<?xml version="1.0" encoding="UTF-8"?>
<!DOCTYPE svg PUBLIC "-//W3C//DTD SVG 1.1//EN" "http://www.w3.org/Graphics/SVG/1.1/DTD/svg11.dtd">
<svg xmlns="http://www.w3.org/2000/svg" version="1.1" width="101px" height="154px" style="shape-rendering:geometricPrecision; text-rendering:geometricPrecision; image-rendering:optimizeQuality; fill-rule:evenodd; clip-rule:evenodd" xmlns:xlink="http://www.w3.org/1999/xlink">
<g><path style="opacity:1" fill="#132c4e" d="M -0.5,-0.5 C 33.1667,-0.5 66.8333,-0.5 100.5,-0.5C 100.5,34.5 100.5,69.5 100.5,104.5C 99.7148,102.626 99.0482,100.626 98.5,98.5C 98.5,80.5 98.5,62.5 98.5,44.5C 98.6735,38.0746 98.0068,31.7413 96.5,25.5C 95.5,26.8333 94.5,28.1667 93.5,29.5C 92.8659,27.4332 91.8659,25.5998 90.5,24C 86.1667,23.3333 81.8333,23.3333 77.5,24C 77.781,27.0168 77.781,30.1834 77.5,33.5C 73.3614,33.6707 69.3614,33.004 65.5,31.5C 62.5262,31.9878 60.1929,33.4878 58.5,36C 52.8505,38.8063 48.5172,37.473 45.5,32C 46.3079,30.2942 47.6412,29.4609 49.5,29.5C 50.1667,28.1667 50.8333,26.8333 51.5,25.5C 53.8568,25.6633 56.1902,25.4966 58.5,25C 59.8009,23.3845 59.8009,21.8845 58.5,20.5C 58.5,19.8333 58.1667,19.5 57.5,19.5C 57.8333,18.8333 58.1667,18.1667 58.5,17.5C 59.4511,16.0813 59.7845,14.4147 59.5,12.5C 57.5165,12.3832 55.8498,13.0499 54.5,14.5C 53.6143,13.675 53.281,12.675 53.5,11.5C 50.7502,7.98897 47.4169,7.48897 43.5,10C 42.1659,12.0871 40.3326,13.5871 38,14.5C 34.708,12.9821 31.8747,13.6488 29.5,16.5C 29.7093,17.086 30.0426,17.586 30.5,18C 28.2353,22.6232 26.402,27.4565 25,32.5C 22.7409,31.4643 20.4075,31.4643 18,32.5C 16.0164,32.2587 14.1831,31.5921 12.5,30.5C 10.4321,33.0774 9.09872,36.0774 8.5,39.5C 6.61826,40.0933 4.78493,40.7599 3,41.5C 1.37568,35.5199 3.04235,30.8532 8,27.5C 8.49001,26.2068 8.65668,24.8734 8.5,23.5C 7.16667,23.5 5.83333,23.5 4.5,23.5C 3.86513,28.2528 2.5318,32.7528 0.5,37C 1.48084,44.4129 1.81417,51.9129 1.5,59.5C 1.5,71.5 1.5,83.5 1.5,95.5C 1.5,105.167 1.5,114.833 1.5,124.5C 1.3336,132.84 1.50027,141.173 2,149.5C 2.5,150 3,150.5 3.5,151C 9.15688,151.499 14.8236,151.666 20.5,151.5C 21.8333,152.167 23.1667,152.833 24.5,153.5C 16.1667,153.5 7.83333,153.5 -0.5,153.5C -0.5,102.167 -0.5,50.8333 -0.5,-0.5 Z"/></g>
<g><path style="opacity:1" fill="#d8dbdf" d="M 53.5,11.5 C 53.281,12.675 53.6143,13.675 54.5,14.5C 55.8498,13.0499 57.5165,12.3832 59.5,12.5C 59.7845,14.4147 59.4511,16.0813 58.5,17.5C 58.719,16.325 58.3857,15.325 57.5,14.5C 56.1667,15.5 54.8333,16.5 53.5,17.5C 52.2807,16.7366 51.2807,15.7366 50.5,14.5C 49.1502,15.9501 47.4835,16.6168 45.5,16.5C 45.7148,14.8212 45.0481,13.8212 43.5,13.5C 45.3756,10.8249 46.8756,11.1582 48,14.5C 49.2635,12.393 51.0968,11.393 53.5,11.5 Z"/></g>
<g><path style="opacity:1" fill="#e3e5e9" d="M 57.5,19.5 C 58.1667,19.5 58.5,19.8333 58.5,20.5C 58.3671,23.8957 57.3671,24.2291 55.5,21.5C 53.0868,24.3772 51.2535,24.0439 50,20.5C 47.9658,23.859 45.6324,24.1924 43,21.5C 40.9195,24.284 40.2528,23.9507 41,20.5C 42.1096,18.9632 43.6096,18.2965 45.5,18.5C 45.281,19.675 45.6143,20.675 46.5,21.5C 47.8333,20.5 49.1667,19.5 50.5,18.5C 51.7989,19.09 52.6322,20.09 53,21.5C 54.1096,19.9632 55.6096,19.2965 57.5,19.5 Z"/></g>
<g><path style="opacity:1" fill="#143155" d="M 53.5,11.5 C 51.0968,11.393 49.2635,12.393 48,14.5C 46.8756,11.1582 45.3756,10.8249 43.5,13.5C 45.0481,13.8212 45.7148,14.8212 45.5,16.5C 47.4835,16.6168 49.1502,15.9501 50.5,14.5C 51.2807,15.7366 52.2807,16.7366 53.5,17.5C 54.8333,16.5 56.1667,15.5 57.5,14.5C 58.3857,15.325 58.719,16.325 58.5,17.5C 58.1667,18.1667 57.8333,18.8333 57.5,19.5C 55.6096,19.2965 54.1096,19.9632 53,21.5C 52.6322,20.09 51.7989,19.09 50.5,18.5C 49.1667,19.5 47.8333,20.5 46.5,21.5C 45.6143,20.675 45.281,19.675 45.5,18.5C 43.6096,18.2965 42.1096,18.9632 41,20.5C 40.2528,23.9507 40.9195,24.284 43,21.5C 45.6324,24.1924 47.9658,23.859 50,20.5C 51.2535,24.0439 53.0868,24.3772 55.5,21.5C 57.3671,24.2291 58.3671,23.8957 58.5,20.5C 59.8009,21.8845 59.8009,23.3845 58.5,25C 56.1902,25.4966 53.8568,25.6633 51.5,25.5C 50.8333,26.8333 50.1667,28.1667 49.5,29.5C 47.6412,29.4609 46.3079,30.2942 45.5,32C 48.5172,37.473 52.8505,38.8063 58.5,36C 60.1929,33.4878 62.5262,31.9878 65.5,31.5C 69.3614,33.004 73.3614,33.6707 77.5,33.5C 77.781,30.1834 77.781,27.0168 77.5,24C 81.8333,23.3333 86.1667,23.3333 90.5,24C 91.8659,25.5998 92.8659,27.4332 93.5,29.5C 94.5,28.1667 95.5,26.8333 96.5,25.5C 98.0068,31.7413 98.6735,38.0746 98.5,44.5C 97.5041,44.5858 96.6708,44.2524 96,43.5C 94.3331,45.6278 92.1664,46.9611 89.5,47.5C 87.2121,52.9716 83.8788,57.805 79.5,62C 74.9647,63.8899 70.6314,63.7233 66.5,61.5C 64.5914,62.3482 62.5914,62.6816 60.5,62.5C 61.1667,65.8332 59.8333,67.8332 56.5,68.5C 55.3652,67.8973 54.3652,67.5639 53.5,67.5C 54.376,66.7492 55.376,66.2492 56.5,66C 55.6919,65.6924 55.0253,65.1924 54.5,64.5C 55.6016,63.8243 56.6016,63.1577 57.5,62.5C 57.5,62.1667 57.5,61.8333 57.5,61.5C 59.3069,60.3852 61.3069,59.7186 63.5,59.5C 66.5627,60.6119 69.7293,61.2785 73,61.5C 75.5437,61.664 77.7103,60.9973 79.5,59.5C 81.543,58.4206 82.8763,56.754 83.5,54.5C 85.7312,48.7043 84.3979,44.0376 79.5,40.5C 75.99,37.1666 71.99,36.6666 67.5,39C 66.6195,39.7083 65.9528,40.5416 65.5,41.5C 64.1283,42.5116 62.795,43.5116 61.5,44.5C 58.5525,44.7771 55.7191,44.4438 53,43.5C 52.3333,44.1667 51.6667,44.8333 51,45.5C 50.5017,48.8168 50.335,52.1501 50.5,55.5C 48.901,55.2322 47.5676,55.5655 46.5,56.5C 43.027,58.6367 40.6936,61.6367 39.5,65.5C 39.6646,68.5184 39.498,71.5184 39,74.5C 37.5098,75.7279 36.0098,75.7279 34.5,74.5C 30.1935,71.68 25.5269,69.3467 20.5,67.5C 19.2284,67.5698 18.0617,67.9032 17,68.5C 16.5065,70.1341 16.3398,71.8008 16.5,73.5C 14.6263,68.4154 13.293,63.0821 12.5,57.5C 12.7093,56.914 13.0426,56.414 13.5,56C 8.33333,56.1667 5.83333,53.6667 6,48.5C 5.66667,48.8333 5.33333,49.1667 5,49.5C 4.57742,48.0439 3.74409,47.5439 2.5,48C 2.83333,48.3333 3.16667,48.6667 3.5,49C 2.86485,52.6027 2.19818,56.1027 1.5,59.5C 1.81417,51.9129 1.48084,44.4129 0.5,37C 2.5318,32.7528 3.86513,28.2528 4.5,23.5C 5.83333,23.5 7.16667,23.5 8.5,23.5C 8.65668,24.8734 8.49001,26.2068 8,27.5C 3.04235,30.8532 1.37568,35.5199 3,41.5C 4.78493,40.7599 6.61826,40.0933 8.5,39.5C 9.09872,36.0774 10.4321,33.0774 12.5,30.5C 14.1831,31.5921 16.0164,32.2587 18,32.5C 20.4075,31.4643 22.7409,31.4643 25,32.5C 26.402,27.4565 28.2353,22.6232 30.5,18C 30.0426,17.586 29.7093,17.086 29.5,16.5C 31.8747,13.6488 34.708,12.9821 38,14.5C 40.3326,13.5871 42.1659,12.0871 43.5,10C 47.4169,7.48897 50.7502,7.98897 53.5,11.5 Z"/></g>
<g><path style="opacity:1" fill="#eff2ed" d="M 43.5,13.5 C 43.5386,14.7562 43.0386,15.7562 42,16.5C 41.4153,15.0024 41.9153,14.0024 43.5,13.5 Z"/></g>
<g><path style="opacity:1" fill="#926238" d="M 61.5,44.5 C 61.6107,45.1174 61.944,45.6174 62.5,46C 60.5,46.3333 58.5,46.6667 56.5,47C 58.718,49.1572 59.8846,51.6572 60,54.5C 58.6841,57.028 57.5174,57.028 56.5,54.5C 54.2706,55.5771 51.9372,56.2437 49.5,56.5C 48.5,56.5 47.5,56.5 46.5,56.5C 47.5676,55.5655 48.901,55.2322 50.5,55.5C 50.335,52.1501 50.5017,48.8168 51,45.5C 51.6667,44.8333 52.3333,44.1667 53,43.5C 55.7191,44.4438 58.5525,44.7771 61.5,44.5 Z"/></g>
<g><path style="opacity:1" fill="#b17f4d" d="M 79.5,40.5 C 77.6023,41.0893 75.6023,41.256 73.5,41C 77.6833,44.9012 79.5166,49.7346 79,55.5C 80.3561,54.6198 81.8561,54.2865 83.5,54.5C 82.8763,56.754 81.543,58.4206 79.5,59.5C 77.9028,58.9095 76.5695,57.9095 75.5,56.5C 74.1084,58.725 72.4417,59.3917 70.5,58.5C 72.3907,56.1643 72.8907,53.4976 72,50.5C 71.6696,46.0705 69.5029,43.0705 65.5,41.5C 65.9528,40.5416 66.6195,39.7083 67.5,39C 71.99,36.6666 75.99,37.1666 79.5,40.5 Z"/></g>
<g><path style="opacity:1" fill="#dea766" d="M 79.5,40.5 C 84.3979,44.0376 85.7312,48.7043 83.5,54.5C 81.8561,54.2865 80.3561,54.6198 79,55.5C 79.5166,49.7346 77.6833,44.9012 73.5,41C 75.6023,41.256 77.6023,41.0893 79.5,40.5 Z"/></g>
<g><path style="opacity:1" fill="#dea768" d="M 65.5,41.5 C 69.5029,43.0705 71.6696,46.0705 72,50.5C 72.8907,53.4976 72.3907,56.1643 70.5,58.5C 67.8517,58.2615 66.0183,56.9282 65,54.5C 62.4447,57.0971 59.278,58.5971 55.5,59C 56.3805,59.7083 57.0472,60.5416 57.5,61.5C 57.5,61.8333 57.5,62.1667 57.5,62.5C 55.901,62.2322 54.5676,62.5655 53.5,63.5C 50.7585,66.534 49.2585,70.2007 49,74.5C 47.7167,67.8678 49.55,62.3678 54.5,58C 52.255,58.1953 50.4216,59.3619 49,61.5C 47.0536,64.1388 46.0536,67.1388 46,70.5C 44.4238,67.3247 44.9238,64.3247 47.5,61.5C 47.3333,61.1667 47.1667,60.8333 47,60.5C 42.6291,65.7887 41.9624,65.4554 45,59.5C 46.6516,58.6006 48.1516,57.6006 49.5,56.5C 51.9372,56.2437 54.2706,55.5771 56.5,54.5C 57.5174,57.028 58.6841,57.028 60,54.5C 59.8846,51.6572 58.718,49.1572 56.5,47C 58.5,46.6667 60.5,46.3333 62.5,46C 61.944,45.6174 61.6107,45.1174 61.5,44.5C 62.795,43.5116 64.1283,42.5116 65.5,41.5 Z"/></g>
<g><path style="opacity:1" fill="#daa265" d="M 51.5,46.5 C 54.08,47.4443 56.08,49.1109 57.5,51.5C 56.1311,53.124 54.4645,53.624 52.5,53C 51.5769,50.9592 51.2436,48.7925 51.5,46.5 Z"/></g>
<g><path style="opacity:1" fill="#12355a" d="M 98.5,44.5 C 98.5,62.5 98.5,80.5 98.5,98.5C 97.5041,98.5858 96.6708,98.2524 96,97.5C 95.6667,98.8333 95.3333,100.167 95,101.5C 93.7118,95.4207 92.5451,89.4207 91.5,83.5C 89.712,83.2148 88.0453,83.5481 86.5,84.5C 86.8333,85.1667 87.1667,85.8333 87.5,86.5C 86.2525,89.1022 84.9192,91.6022 83.5,94C 85.8232,96.5063 86.1565,99.3396 84.5,102.5C 78.8479,103.136 74.1812,100.97 70.5,96C 62.6348,96.0898 54.9681,95.2564 47.5,93.5C 46.081,95.9585 45.081,98.6251 44.5,101.5C 42.3855,102.034 40.5522,103.034 39,104.5C 37.2716,103.648 37.105,102.648 38.5,101.5C 41.0514,101.332 41.7181,100.332 40.5,98.5C 39.7375,97.7321 38.7375,97.2321 37.5,97C 41.9854,96.9884 42.4854,95.8217 39,93.5C 38.228,93.6448 37.5613,93.9781 37,94.5C 33.1949,91.8446 29.0283,90.1779 24.5,89.5C 24.046,86.8602 22.8793,84.5268 21,82.5C 20.586,82.9574 20.086,83.2907 19.5,83.5C 17.8849,82.846 16.2182,82.346 14.5,82C 13.8742,81.2496 13.3742,80.4162 13,79.5C 10.2935,80.4367 7.79347,81.7701 5.5,83.5C 4.91395,83.2907 4.41395,82.9574 4,82.5C 3.95001,87.1271 3.11668,91.4604 1.5,95.5C 1.5,83.5 1.5,71.5 1.5,59.5C 2.19818,56.1027 2.86485,52.6027 3.5,49C 3.16667,48.6667 2.83333,48.3333 2.5,48C 3.74409,47.5439 4.57742,48.0439 5,49.5C 5.33333,49.1667 5.66667,48.8333 6,48.5C 5.83333,53.6667 8.33333,56.1667 13.5,56C 13.0426,56.414 12.7093,56.914 12.5,57.5C 13.293,63.0821 14.6263,68.4154 16.5,73.5C 22.2844,71.395 23.6177,72.895 20.5,78C 20.5699,78.7648 20.9033,79.2648 21.5,79.5C 23.1276,82.148 24.7943,82.148 26.5,79.5C 25.0811,77.8734 25.4144,77.3734 27.5,78C 28.5786,78.956 29.7453,79.7894 31,80.5C 32.0466,85.3078 34.8799,88.3078 39.5,89.5C 43.3112,90.6453 47.3112,90.8119 51.5,90C 52.056,89.6174 52.3893,89.1174 52.5,88.5C 59.8074,83.6496 60.4741,77.9829 54.5,71.5C 52.2433,69.1216 51.91,66.4549 53.5,63.5C 54.5676,62.5655 55.901,62.2322 57.5,62.5C 56.6016,63.1577 55.6016,63.8243 54.5,64.5C 55.0253,65.1924 55.6919,65.6924 56.5,66C 55.376,66.2492 54.376,66.7492 53.5,67.5C 54.3652,67.5639 55.3652,67.8973 56.5,68.5C 59.8333,67.8332 61.1667,65.8332 60.5,62.5C 62.5914,62.6816 64.5914,62.3482 66.5,61.5C 70.6314,63.7233 74.9647,63.8899 79.5,62C 83.8788,57.805 87.2121,52.9716 89.5,47.5C 92.1664,46.9611 94.3331,45.6278 96,43.5C 96.6708,44.2524 97.5041,44.5858 98.5,44.5 Z"/></g>
<g><path style="opacity:1" fill="#8c5e34" d="M 70.5,58.5 C 72.4417,59.3917 74.1084,58.725 75.5,56.5C 76.5695,57.9095 77.9028,58.9095 79.5,59.5C 77.7103,60.9973 75.5437,61.664 73,61.5C 69.7293,61.2785 66.5627,60.6119 63.5,59.5C 61.3069,59.7186 59.3069,60.3852 57.5,61.5C 57.0472,60.5416 56.3805,59.7083 55.5,59C 59.278,58.5971 62.4447,57.0971 65,54.5C 66.0183,56.9282 67.8517,58.2615 70.5,58.5 Z"/></g>
<g><path style="opacity:1" fill="#b17d49" d="M 34.5,74.5 C 31.8713,76.5355 29.038,76.5355 26,74.5C 23.5813,75.3359 22.0813,77.0026 21.5,79.5C 20.9033,79.2648 20.5699,78.7648 20.5,78C 23.6177,72.895 22.2844,71.395 16.5,73.5C 16.3398,71.8008 16.5065,70.1341 17,68.5C 18.0617,67.9032 19.2284,67.5698 20.5,67.5C 25.5269,69.3467 30.1935,71.68 34.5,74.5 Z"/></g>
<g><path style="opacity:1" fill="#d8a362" d="M 39.5,65.5 C 40.4959,65.4142 41.3292,65.7476 42,66.5C 44.32,70.3132 46.4866,74.1465 48.5,78C 47.4221,83.5453 44.0888,85.5453 38.5,84C 43.6233,83.8681 46.4566,81.3681 47,76.5C 46.0853,77.3279 45.4186,78.3279 45,79.5C 43.6667,75.5 42.3333,71.5 41,67.5C 40.8724,70.5144 40.8724,73.5144 41,76.5C 36.5958,79.5302 37.4291,81.0302 43.5,81C 42.2131,82.7859 40.7131,82.9526 39,81.5C 37.5,82.5 36,83.5 34.5,84.5C 36.959,87.7602 40.2924,89.2602 44.5,89C 42.8659,89.4935 41.1992,89.6602 39.5,89.5C 34.8799,88.3078 32.0466,85.3078 31,80.5C 29.7453,79.7894 28.5786,78.956 27.5,78C 25.4144,77.3734 25.0811,77.8734 26.5,79.5C 24.7943,82.148 23.1276,82.148 21.5,79.5C 22.0813,77.0026 23.5813,75.3359 26,74.5C 29.038,76.5355 31.8713,76.5355 34.5,74.5C 36.0098,75.7279 37.5098,75.7279 39,74.5C 39.498,71.5184 39.6646,68.5184 39.5,65.5 Z"/></g>
<g><path style="opacity:1" fill="#dba463" d="M 54.5,71.5 C 60.4741,77.9829 59.8074,83.6496 52.5,88.5C 52.0618,88.5654 51.7284,88.3988 51.5,88C 53.0368,86.8904 53.7035,85.3904 53.5,83.5C 54.5,83.5 55.5,83.5 56.5,83.5C 56.8076,81.076 56.4742,78.7427 55.5,76.5C 54.1791,80.9669 52.0124,84.9669 49,88.5C 45.6667,86.5 45.6667,84.5 49,82.5C 49.3173,84.3008 49.984,84.6341 51,83.5C 51.5184,79.4247 51.5184,75.4247 51,71.5C 52.1455,72.6843 53.3121,72.6843 54.5,71.5 Z"/></g>
<g><path style="opacity:1" fill="#b2804f" d="M 46.5,56.5 C 47.5,56.5 48.5,56.5 49.5,56.5C 48.1516,57.6006 46.6516,58.6006 45,59.5C 41.9624,65.4554 42.6291,65.7887 47,60.5C 47.1667,60.8333 47.3333,61.1667 47.5,61.5C 44.9238,64.3247 44.4238,67.3247 46,70.5C 46.0536,67.1388 47.0536,64.1388 49,61.5C 50.4216,59.3619 52.255,58.1953 54.5,58C 49.55,62.3678 47.7167,67.8678 49,74.5C 49.2585,70.2007 50.7585,66.534 53.5,63.5C 51.91,66.4549 52.2433,69.1216 54.5,71.5C 53.3121,72.6843 52.1455,72.6843 51,71.5C 51.5184,75.4247 51.5184,79.4247 51,83.5C 49.984,84.6341 49.3173,84.3008 49,82.5C 45.6667,84.5 45.6667,86.5 49,88.5C 52.0124,84.9669 54.1791,80.9669 55.5,76.5C 56.4742,78.7427 56.8076,81.076 56.5,83.5C 55.5,83.5 54.5,83.5 53.5,83.5C 53.7035,85.3904 53.0368,86.8904 51.5,88C 51.7284,88.3988 52.0618,88.5654 52.5,88.5C 52.3893,89.1174 52.056,89.6174 51.5,90C 47.3112,90.8119 43.3112,90.6453 39.5,89.5C 41.1992,89.6602 42.8659,89.4935 44.5,89C 40.2924,89.2602 36.959,87.7602 34.5,84.5C 36,83.5 37.5,82.5 39,81.5C 40.7131,82.9526 42.2131,82.7859 43.5,81C 37.4291,81.0302 36.5958,79.5302 41,76.5C 40.8724,73.5144 40.8724,70.5144 41,67.5C 42.3333,71.5 43.6667,75.5 45,79.5C 45.4186,78.3279 46.0853,77.3279 47,76.5C 46.4566,81.3681 43.6233,83.8681 38.5,84C 44.0888,85.5453 47.4221,83.5453 48.5,78C 46.4866,74.1465 44.32,70.3132 42,66.5C 41.3292,65.7476 40.4959,65.4142 39.5,65.5C 40.6936,61.6367 43.027,58.6367 46.5,56.5 Z"/></g>
<g><path style="opacity:1" fill="#153b61" d="M 40.5,98.5 C 38.9519,98.8212 38.2852,99.8212 38.5,101.5C 37.105,102.648 37.2716,103.648 39,104.5C 40.5522,103.034 42.3855,102.034 44.5,101.5C 45.081,98.6251 46.081,95.9585 47.5,93.5C 54.9681,95.2564 62.6348,96.0898 70.5,96C 74.1812,100.97 78.8479,103.136 84.5,102.5C 86.1565,99.3396 85.8232,96.5063 83.5,94C 84.9192,91.6022 86.2525,89.1022 87.5,86.5C 87.1667,85.8333 86.8333,85.1667 86.5,84.5C 88.0453,83.5481 89.712,83.2148 91.5,83.5C 92.5451,89.4207 93.7118,95.4207 95,101.5C 95.3333,100.167 95.6667,98.8333 96,97.5C 96.6708,98.2524 97.5041,98.5858 98.5,98.5C 99.0482,100.626 99.7148,102.626 100.5,104.5C 100.5,120.833 100.5,137.167 100.5,153.5C 75.1667,153.5 49.8333,153.5 24.5,153.5C 23.1667,152.833 21.8333,152.167 20.5,151.5C 45.8355,151.667 71.1689,151.5 96.5,151C 97,150.5 97.5,150 98,149.5C 98.4996,142.842 98.6663,136.175 98.5,129.5C 97.5,129.5 96.5,129.5 95.5,129.5C 95.3962,132.09 96.0629,134.423 97.5,136.5C 96.0538,138.835 93.8872,140.168 91,140.5C 86.1956,138.623 85.5289,135.956 89,132.5C 89.6854,128.653 88.1854,126.82 84.5,127C 83.1007,128.062 82.1007,129.395 81.5,131C 83.1821,132.895 83.6821,135.062 83,137.5C 82.1376,139.087 81.4709,140.754 81,142.5C 78.9555,143.772 77.1222,143.439 75.5,141.5C 72.6143,141.869 69.6143,141.869 66.5,141.5C 64.287,144.08 62.1203,144.08 60,141.5C 58.6841,144.028 57.5174,144.028 56.5,141.5C 53.8001,142.667 51.1335,142.5 48.5,141C 50.3817,140.802 52.0484,140.302 53.5,139.5C 52.8968,137.321 52.2301,135.154 51.5,133C 48.2523,132.329 47.9189,132.829 50.5,134.5C 49.2299,135.288 48.2299,136.288 47.5,137.5C 46.8333,137.5 46.5,137.833 46.5,138.5C 45.8354,136.631 45.1687,134.631 44.5,132.5C 43.1667,140.5 41.8333,140.5 40.5,132.5C 39.5344,134.396 39.2011,136.396 39.5,138.5C 39.573,140.027 38.9063,141.027 37.5,141.5C 37.5,138.5 37.5,135.5 37.5,132.5C 31.7527,131.871 30.086,134.205 32.5,139.5C 29.9367,139.926 27.6033,140.926 25.5,142.5C 23.7869,142.121 22.7869,141.121 22.5,139.5C 24.1632,137.507 25.3299,135.174 26,132.5C 26.977,134.74 27.477,137.073 27.5,139.5C 28.552,139.649 29.552,139.483 30.5,139C 29.0921,135.874 27.7588,132.707 26.5,129.5C 24.9617,131.243 23.9617,133.243 23.5,135.5C 23.3484,132.727 23.3484,129.894 23.5,127C 22.6921,125.294 21.3588,124.461 19.5,124.5C 19.9059,126.109 19.9059,127.443 19.5,128.5C 17.6906,122.684 13.8573,120.351 8,121.5C 6.67386,121.245 5.67386,120.578 5,119.5C 3.31703,120.887 2.15036,122.553 1.5,124.5C 1.5,114.833 1.5,105.167 1.5,95.5C 3.11668,91.4604 3.95001,87.1271 4,82.5C 4.41395,82.9574 4.91395,83.2907 5.5,83.5C 7.79347,81.7701 10.2935,80.4367 13,79.5C 13.3742,80.4162 13.8742,81.2496 14.5,82C 16.2182,82.346 17.8849,82.846 19.5,83.5C 20.086,83.2907 20.586,82.9574 21,82.5C 22.8793,84.5268 24.046,86.8602 24.5,89.5C 29.0283,90.1779 33.1949,91.8446 37,94.5C 37.5613,93.9781 38.228,93.6448 39,93.5C 42.4854,95.8217 41.9854,96.9884 37.5,97C 38.7375,97.2321 39.7375,97.7321 40.5,98.5 Z"/></g>
<g><path style="opacity:1" fill="#dee1e4" d="M 40.5,98.5 C 41.7181,100.332 41.0514,101.332 38.5,101.5C 38.2852,99.8212 38.9519,98.8212 40.5,98.5 Z"/></g>
<g><path style="opacity:1" fill="#d1d2db" d="M 46.5,106.5 C 48.337,106.639 48.6704,107.306 47.5,108.5C 46.7025,108.043 46.3691,107.376 46.5,106.5 Z"/></g>
<g><path style="opacity:1" fill="#dadae5" d="M 62.5,111.5 C 63.5,111.5 64.5,111.5 65.5,111.5C 65.5,112.5 65.5,113.5 65.5,114.5C 64.5,114.5 63.5,114.5 62.5,114.5C 62.5,113.5 62.5,112.5 62.5,111.5 Z"/></g>
<g><path style="opacity:1" fill="#dfdee6" d="M 41.5,116.5 C 44.9571,116.667 45.2904,117.667 42.5,119.5C 41.6143,118.675 41.281,117.675 41.5,116.5 Z"/></g>
<g><path style="opacity:1" fill="#0e3f65" d="M 23.5,135.5 C 22.9717,136.721 22.305,137.887 21.5,139C 21.7284,139.399 22.0618,139.565 22.5,139.5C 22.7869,141.121 23.7869,142.121 25.5,142.5C 27.6033,140.926 29.9367,139.926 32.5,139.5C 33.5,139.5 34.5,139.5 35.5,139.5C 35.5,140.833 35.5,142.167 35.5,143.5C 37.9935,143.869 38.6602,143.203 37.5,141.5C 38.9063,141.027 39.573,140.027 39.5,138.5C 41.941,139.756 44.2743,139.756 46.5,138.5C 46.5,137.833 46.8333,137.5 47.5,137.5C 47.811,138.478 48.4777,139.145 49.5,139.5C 50.7264,138.637 52.0597,138.637 53.5,139.5C 52.0484,140.302 50.3817,140.802 48.5,141C 51.1335,142.5 53.8001,142.667 56.5,141.5C 57.5174,144.028 58.6841,144.028 60,141.5C 62.1203,144.08 64.287,144.08 66.5,141.5C 69.6143,141.869 72.6143,141.869 75.5,141.5C 77.1222,143.439 78.9555,143.772 81,142.5C 81.4709,140.754 82.1376,139.087 83,137.5C 83.6821,135.062 83.1821,132.895 81.5,131C 82.1007,129.395 83.1007,128.062 84.5,127C 88.1854,126.82 89.6854,128.653 89,132.5C 85.5289,135.956 86.1956,138.623 91,140.5C 93.8872,140.168 96.0538,138.835 97.5,136.5C 96.0629,134.423 95.3962,132.09 95.5,129.5C 96.5,129.5 97.5,129.5 98.5,129.5C 98.6663,136.175 98.4996,142.842 98,149.5C 97.5,150 97,150.5 96.5,151C 71.1689,151.5 45.8355,151.667 20.5,151.5C 14.8236,151.666 9.15688,151.499 3.5,151C 3,150.5 2.5,150 2,149.5C 1.50027,141.173 1.3336,132.84 1.5,124.5C 2.15036,122.553 3.31703,120.887 5,119.5C 5.67386,120.578 6.67386,121.245 8,121.5C 13.8573,120.351 17.6906,122.684 19.5,128.5C 19.9059,127.443 19.9059,126.109 19.5,124.5C 21.3588,124.461 22.6921,125.294 23.5,127C 23.3484,129.894 23.3484,132.727 23.5,135.5 Z"/></g>
<g><path style="opacity:1" fill="#ca9c6f" d="M 55.5,132.5 C 56.9778,132.238 58.3112,132.571 59.5,133.5C 58.1735,135.311 57.1735,137.311 56.5,139.5C 55.5258,137.257 55.1924,134.924 55.5,132.5 Z"/></g>
<g><path style="opacity:1" fill="#ecbb72" d="M 61.5,132.5 C 62.2161,134.556 62.8828,136.723 63.5,139C 63.1667,139.167 62.8333,139.333 62.5,139.5C 61.5258,137.257 61.1924,134.924 61.5,132.5 Z"/></g>
<g><path style="opacity:1" fill="#d8b26f" d="M 76.5,136.5 C 73.8269,136.316 73.1602,135.149 74.5,133C 77.7477,132.329 78.0811,132.829 75.5,134.5C 75.8627,135.183 76.1961,135.85 76.5,136.5 Z"/></g>
<g><path style="opacity:1" fill="#c09b6e" d="M 22.5,139.5 C 22.0618,139.565 21.7284,139.399 21.5,139C 22.305,137.887 22.9717,136.721 23.5,135.5C 23.9617,133.243 24.9617,131.243 26.5,129.5C 27.7588,132.707 29.0921,135.874 30.5,139C 29.552,139.483 28.552,139.649 27.5,139.5C 27.477,137.073 26.977,134.74 26,132.5C 25.3299,135.174 24.1632,137.507 22.5,139.5 Z"/></g>
<g><path style="opacity:1" fill="#bb966c" d="M 46.5,138.5 C 44.2743,139.756 41.941,139.756 39.5,138.5C 39.2011,136.396 39.5344,134.396 40.5,132.5C 41.8333,140.5 43.1667,140.5 44.5,132.5C 45.1687,134.631 45.8354,136.631 46.5,138.5 Z"/></g>
<g><path style="opacity:1" fill="#aa8c6c" d="M 53.5,139.5 C 52.0597,138.637 50.7264,138.637 49.5,139.5C 48.4777,139.145 47.811,138.478 47.5,137.5C 48.2299,136.288 49.2299,135.288 50.5,134.5C 47.9189,132.829 48.2523,132.329 51.5,133C 52.2301,135.154 52.8968,137.321 53.5,139.5 Z"/></g>
<g><path style="opacity:1" fill="#c19970" d="M 37.5,141.5 C 38.6602,143.203 37.9935,143.869 35.5,143.5C 35.5,142.167 35.5,140.833 35.5,139.5C 34.5,139.5 33.5,139.5 32.5,139.5C 30.086,134.205 31.7527,131.871 37.5,132.5C 37.5,135.5 37.5,138.5 37.5,141.5 Z"/></g>
<g><path style="opacity:1" fill="#1c3566" d="M 33.5,133.5 C 34.6491,133.791 35.3158,134.624 35.5,136C 34.7062,139.122 33.7062,139.122 32.5,136C 32.7432,135.098 33.0766,134.265 33.5,133.5 Z"/></g>
<g><path style="opacity:1" fill="#b2946f" d="M 65.5,132.5 C 66.7507,140.392 68.4174,140.392 70.5,132.5C 71.2208,134.686 71.8875,136.853 72.5,139C 70.1902,139.497 67.8568,139.663 65.5,139.5C 65.5,137.167 65.5,134.833 65.5,132.5 Z"/></g>
<g><path style="opacity:1" fill="#af8d6e" d="M 76.5,136.5 C 78.5492,136.706 78.8825,137.539 77.5,139C 76.0563,139.781 74.723,139.614 73.5,138.5C 73.9377,137.494 74.6043,137.494 75.5,138.5C 76.2975,138.043 76.6309,137.376 76.5,136.5 Z"/></g>
</svg>
