<?xml version="1.0" encoding="UTF-8"?>
<!DOCTYPE svg PUBLIC "-//W3C//DTD SVG 1.1//EN" "http://www.w3.org/Graphics/SVG/1.1/DTD/svg11.dtd">
<svg xmlns="http://www.w3.org/2000/svg" version="1.1" width="101px" height="154px" style="shape-rendering:geometricPrecision; text-rendering:geometricPrecision; image-rendering:optimizeQuality; fill-rule:evenodd; clip-rule:evenodd" xmlns:xlink="http://www.w3.org/1999/xlink">
<g><path style="opacity:1" fill="#13385e" d="M -0.5,-0.5 C 33.1667,-0.5 66.8333,-0.5 100.5,-0.5C 100.5,50.8333 100.5,102.167 100.5,153.5C 66.8333,153.5 33.1667,153.5 -0.5,153.5C -0.5,102.167 -0.5,50.8333 -0.5,-0.5 Z"/></g>
<g><path style="opacity:1" fill="#efb86e" d="M 61.5,64.5 C 62.1667,65.5 62.8333,66.5 63.5,67.5C 63.2914,68.9217 62.7914,70.255 62,71.5C 61.3918,69.9336 60.5585,68.6002 59.5,67.5C 59.2852,65.8212 59.9519,64.8212 61.5,64.5 Z"/></g>
<g><path style="opacity:1" fill="#ebb26d" d="M 49.5,42.5 C 51.2883,44.4227 53.2883,45.0893 55.5,44.5C 53.4414,45.567 51.608,46.9004 50,48.5C 44.7504,43.9812 43.5837,44.6478 46.5,50.5C 45.2592,54.1372 45.9259,57.4706 48.5,60.5C 47.489,62.3471 46.489,64.1804 45.5,66C 48.1667,66.6667 50.8333,66.6667 53.5,66C 52.6699,64.2533 51.6699,62.5866 50.5,61C 52.6616,58.0219 53.3283,54.8552 52.5,51.5C 53.3333,49.8333 54.1667,48.1667 55,46.5C 55.3076,47.3081 55.8076,47.9747 56.5,48.5C 57.8814,47.1186 59.2147,45.7853 60.5,44.5C 60.6107,45.1174 60.944,45.6174 61.5,46C 59.8371,48.1602 58.1704,50.3268 56.5,52.5C 57.376,53.2508 58.376,53.7508 59.5,54C 56.7854,54.8747 55.4521,56.7081 55.5,59.5C 57.1992,59.3398 58.8659,59.5065 60.5,60C 58.5005,62.4991 57.6672,65.3325 58,68.5C 58.3826,67.944 58.8826,67.6107 59.5,67.5C 59.7733,69.451 59.1066,70.951 57.5,72C 60.8239,73.118 62.8239,75.2847 63.5,78.5C 62.791,79.404 61.791,79.7373 60.5,79.5C 60.458,78.521 60.458,77.521 60.5,76.5C 58.1787,79.2345 56.1787,79.0678 54.5,76C 56.7843,74.6371 56.951,73.1371 55,71.5C 54.8882,74.4471 53.3882,75.7804 50.5,75.5C 50.4411,72.9512 51.4411,70.9512 53.5,69.5C 53.1667,69.1667 52.8333,68.8333 52.5,68.5C 51.5,69.1667 50.5,69.8333 49.5,70.5C 48.5,69.8333 47.5,69.1667 46.5,68.5C 46.1667,68.8333 45.8333,69.1667 45.5,69.5C 47.297,70.6951 48.297,72.3618 48.5,74.5C 45.341,74.4296 43.6743,72.763 43.5,69.5C 43.0113,68.0048 42.3446,66.6715 41.5,65.5C 40.9711,63.4166 39.9711,61.5833 38.5,60C 40.1341,59.5065 41.8008,59.3398 43.5,59.5C 43.2248,55.0549 41.0581,53.7216 37,55.5C 35.9701,55.1639 35.4701,54.4972 35.5,53.5C 35.8333,53.5 36.1667,53.5 36.5,53.5C 38.604,53.7989 40.604,53.4656 42.5,52.5C 41.3937,49.8031 40.0604,47.9698 38.5,47C 39.9087,42.9907 41.2421,42.824 42.5,46.5C 43.2476,43.7048 44.7476,43.0381 47,44.5C 48.0111,43.9444 48.8444,43.2778 49.5,42.5 Z"/></g>
<g><path style="opacity:1" fill="#6d462d" d="M 80.5,61.5 C 77.0564,63.0905 74.0564,62.4238 71.5,59.5C 72.2216,59.0825 72.7216,58.4158 73,57.5C 74.8921,59.9842 77.3921,61.3175 80.5,61.5 Z"/></g>
<g><path style="opacity:1" fill="#95663d" d="M 35.5,53.5 C 35.4701,54.4972 35.9701,55.1639 37,55.5C 41.0581,53.7216 43.2248,55.0549 43.5,59.5C 41.8008,59.3398 40.1341,59.5065 38.5,60C 39.9711,61.5833 40.9711,63.4166 41.5,65.5C 41.631,66.2389 41.4643,66.9056 41,67.5C 40.5776,65.5743 39.4109,64.5743 37.5,64.5C 37.8055,60.9168 36.8055,57.7501 34.5,55C 34.5699,54.2352 34.9033,53.7352 35.5,53.5 Z"/></g>
<g><path style="opacity:1" fill="#9d6f41" d="M 67.5,50.5 C 66.2825,51.1614 64.9492,51.8281 63.5,52.5C 64.2458,53.7362 64.5792,55.0695 64.5,56.5C 63.448,56.3505 62.448,56.5172 61.5,57C 61.8916,59.3543 61.8916,61.8543 61.5,64.5C 59.9519,64.8212 59.2852,65.8212 59.5,67.5C 58.8826,67.6107 58.3826,67.944 58,68.5C 57.6672,65.3325 58.5005,62.4991 60.5,60C 58.8659,59.5065 57.1992,59.3398 55.5,59.5C 55.4521,56.7081 56.7854,54.8747 59.5,54C 58.376,53.7508 57.376,53.2508 56.5,52.5C 58.1704,50.3268 59.8371,48.1602 61.5,46C 60.944,45.6174 60.6107,45.1174 60.5,44.5C 62.4634,43.3159 64.4634,42.4826 66.5,42C 63.0145,43.9472 62.6812,46.2805 65.5,49C 65.1667,49.3333 64.8333,49.6667 64.5,50C 65.448,50.4828 66.448,50.6495 67.5,50.5 Z"/></g>
<g><path style="opacity:1" fill="#af7c48" d="M 14.5,35.5 C 15.2564,37.7634 15.4231,40.0967 15,42.5C 16.0391,43.7101 17.2058,44.7101 18.5,45.5C 16.913,49.7312 17.5797,53.5645 20.5,57C 24.2531,57.926 26.4198,56.426 27,52.5C 29.2162,55.7571 28.7162,58.5904 25.5,61C 23.1902,61.4966 20.8568,61.6633 18.5,61.5C 12.2014,56.0318 9.70145,49.0318 11,40.5C 12.0298,38.6536 13.1964,36.9869 14.5,35.5 Z"/></g>
<g><path style="opacity:1" fill="#ba8852" d="M 88.5,50.5 C 87.4505,55.2341 84.7838,58.9008 80.5,61.5C 77.3921,61.3175 74.8921,59.9842 73,57.5C 72.7216,58.4158 72.2216,59.0825 71.5,59.5C 70.4808,57.4595 70.4808,55.4595 71.5,53.5C 73.7572,57.8155 76.7572,58.4822 80.5,55.5C 82.7844,48.3999 80.4511,43.3999 73.5,40.5C 71.9024,44.0925 69.9024,47.4258 67.5,50.5C 66.448,50.6495 65.448,50.4828 64.5,50C 64.8333,49.6667 65.1667,49.3333 65.5,49C 62.6812,46.2805 63.0145,43.9472 66.5,42C 64.4634,42.4826 62.4634,43.3159 60.5,44.5C 59.2147,45.7853 57.8814,47.1186 56.5,48.5C 55.8076,47.9747 55.3076,47.3081 55,46.5C 54.1667,48.1667 53.3333,49.8333 52.5,51.5C 53.3283,54.8552 52.6616,58.0219 50.5,61C 51.6699,62.5866 52.6699,64.2533 53.5,66C 50.8333,66.6667 48.1667,66.6667 45.5,66C 46.489,64.1804 47.489,62.3471 48.5,60.5C 45.9259,57.4706 45.2592,54.1372 46.5,50.5C 43.5837,44.6478 44.7504,43.9812 50,48.5C 51.608,46.9004 53.4414,45.567 55.5,44.5C 53.2883,45.0893 51.2883,44.4227 49.5,42.5C 50.0881,40.7949 50.4214,39.1283 50.5,37.5C 52.768,38.7185 54.6014,40.3852 56,42.5C 56.5,42.3333 57,42.1667 57.5,42C 55.771,40.2111 55.1043,38.0444 55.5,35.5C 60.3999,28.5854 67.0666,26.0854 75.5,28C 85.3697,32.233 89.703,39.733 88.5,50.5 Z"/></g>
<g><path style="opacity:1" fill="#132d50" d="M 88.5,50.5 C 89.703,39.733 85.3697,32.233 75.5,28C 67.0666,26.0854 60.3999,28.5854 55.5,35.5C 51.8333,36.8333 48.1667,36.8333 44.5,35.5C 38.1026,27.3944 30.1026,25.3944 20.5,29.5C 19.5,29.8333 18.8333,30.5 18.5,31.5C 17.8333,31.8333 17.1667,32.1667 16.5,32.5C 15.0937,32.9731 14.427,33.9731 14.5,35.5C 13.1964,36.9869 12.0298,38.6536 11,40.5C 9.70145,49.0318 12.2014,56.0318 18.5,61.5C 15.5322,61.3739 13.5322,59.8739 12.5,57C 10.8876,56.2797 9.38762,56.4464 8,57.5C 7.12039,55.2615 5.62039,53.5948 3.5,52.5C 2.69111,53.6811 2.69111,55.0144 3.5,56.5C 2.86453,57.9663 2.03119,59.2997 1,60.5C 0.333333,55.5 0.333333,50.5 1,45.5C 2.01127,44.6634 3.17793,44.33 4.5,44.5C 4.63993,42.8762 3.97326,41.7096 2.5,41C 6.45942,28.5453 8.12609,15.7119 7.5,2.5C 37.8352,2.33335 68.1685,2.50002 98.5,3C 97.1279,4.24186 96.1279,5.74186 95.5,7.5C 96.792,13.6622 97.4586,19.9956 97.5,26.5C 97.3306,34.0564 96.6639,41.5564 95.5,49C 97.4104,54.2326 95.4104,56.2326 89.5,55C 88.6198,53.6439 88.2865,52.1439 88.5,50.5 Z"/></g>
<g><path style="opacity:1" fill="#a47344" d="M 20.5,29.5 C 21.8845,30.8009 23.3845,30.8009 25,29.5C 26.7936,32.2145 27.9603,35.2145 28.5,38.5C 29.8425,37.0977 30.6758,37.4311 31,39.5C 31.6667,38.8333 32.3333,38.1667 33,37.5C 35.8397,44.0945 39.5063,44.7612 44,39.5C 44.49,38.2068 44.6567,36.8734 44.5,35.5C 48.1667,36.8333 51.8333,36.8333 55.5,35.5C 55.1043,38.0444 55.771,40.2111 57.5,42C 57,42.1667 56.5,42.3333 56,42.5C 54.6014,40.3852 52.768,38.7185 50.5,37.5C 50.4214,39.1283 50.0881,40.7949 49.5,42.5C 48.8444,43.2778 48.0111,43.9444 47,44.5C 44.7476,43.0381 43.2476,43.7048 42.5,46.5C 41.2421,42.824 39.9087,42.9907 38.5,47C 40.0604,47.9698 41.3937,49.8031 42.5,52.5C 40.604,53.4656 38.604,53.7989 36.5,53.5C 30.9064,51.1996 27.9064,46.8662 27.5,40.5C 24.7939,40.6878 22.4605,41.6878 20.5,43.5C 19.2171,41.3936 18.3838,39.0602 18,36.5C 16.9887,35.6634 15.8221,35.33 14.5,35.5C 14.427,33.9731 15.0937,32.9731 16.5,32.5C 16.7058,34.5492 17.5391,34.8825 19,33.5C 20.756,34.4213 20.9227,35.588 19.5,37C 19.6301,38.0588 20.1301,38.8921 21,39.5C 21.6667,37.5 21.6667,35.5 21,33.5C 20.5831,32.244 19.7498,31.5774 18.5,31.5C 18.8333,30.5 19.5,29.8333 20.5,29.5 Z"/></g>
<g><path style="opacity:1" fill="#dfab69" d="M 14.5,35.5 C 15.8221,35.33 16.9887,35.6634 18,36.5C 18.3838,39.0602 19.2171,41.3936 20.5,43.5C 20.1667,44.5 19.5,45.1667 18.5,45.5C 17.2058,44.7101 16.0391,43.7101 15,42.5C 15.4231,40.0967 15.2564,37.7634 14.5,35.5 Z"/></g>
<g><path style="opacity:1" fill="#c49258" d="M 44.5,35.5 C 44.6567,36.8734 44.49,38.2068 44,39.5C 39.5063,44.7612 35.8397,44.0945 33,37.5C 32.3333,38.1667 31.6667,38.8333 31,39.5C 30.6758,37.4311 29.8425,37.0977 28.5,38.5C 27.9603,35.2145 26.7936,32.2145 25,29.5C 23.3845,30.8009 21.8845,30.8009 20.5,29.5C 30.1026,25.3944 38.1026,27.3944 44.5,35.5 Z"/></g>
<g><path style="opacity:1" fill="#f2be77" d="M 18.5,31.5 C 19.7498,31.5774 20.5831,32.244 21,33.5C 21.6667,35.5 21.6667,37.5 21,39.5C 20.1301,38.8921 19.6301,38.0588 19.5,37C 20.9227,35.588 20.756,34.4213 19,33.5C 17.5391,34.8825 16.7058,34.5492 16.5,32.5C 17.1667,32.1667 17.8333,31.8333 18.5,31.5 Z"/></g>
<g><path style="opacity:1" fill="#dfe2e6" d="M 42.5,11.5 C 46.4483,12.1147 48.7816,14.448 49.5,18.5C 50.4535,16.0918 51.7868,13.9251 53.5,12C 56.5217,11.3637 58.0217,12.5303 58,15.5C 56.3333,12.8333 54.6667,12.8333 53,15.5C 51.7337,18.4662 50.5671,21.4662 49.5,24.5C 48.3333,21.1667 47.1667,17.8333 46,14.5C 44.0144,14.0323 42.1811,14.0323 40.5,14.5C 41.1925,13.4822 41.8592,12.4822 42.5,11.5 Z"/></g>
<g><path style="opacity:1" fill="#a7794b" d="M 59.5,67.5 C 60.5585,68.6002 61.3918,69.9336 62,71.5C 62.7914,70.255 63.2914,68.9217 63.5,67.5C 67.3503,71.1255 67.3503,74.7922 63.5,78.5C 62.8239,75.2847 60.8239,73.118 57.5,72C 59.1066,70.951 59.7733,69.451 59.5,67.5 Z"/></g>
<g><path style="opacity:1" fill="#c28f55" d="M 37.5,64.5 C 39.4109,64.5743 40.5776,65.5743 41,67.5C 41.4643,66.9056 41.631,66.2389 41.5,65.5C 42.3446,66.6715 43.0113,68.0048 43.5,69.5C 43.0702,73.14 42.0702,76.64 40.5,80C 41.9304,81.4404 43.597,81.7737 45.5,81C 44.7447,76.556 45.7447,76.3893 48.5,80.5C 48.1543,81.6956 47.6543,81.6956 47,80.5C 46.51,81.7932 46.3433,83.1266 46.5,84.5C 42.5089,83.3488 38.8422,81.5154 35.5,79C 31.2431,73.5187 31.9097,68.6853 37.5,64.5 Z"/></g>
<g><path style="opacity:1" fill="#a57647" d="M 60.5,79.5 C 59.7101,80.7942 58.7101,81.9609 57.5,83C 54.8232,83.2494 52.4899,84.2494 50.5,86C 48.6476,86.7726 47.3143,86.2726 46.5,84.5C 46.3433,83.1266 46.51,81.7932 47,80.5C 47.6543,81.6956 48.1543,81.6956 48.5,80.5C 45.7447,76.3893 44.7447,76.556 45.5,81C 43.597,81.7737 41.9304,81.4404 40.5,80C 42.0702,76.64 43.0702,73.14 43.5,69.5C 43.6743,72.763 45.341,74.4296 48.5,74.5C 48.297,72.3618 47.297,70.6951 45.5,69.5C 45.8333,69.1667 46.1667,68.8333 46.5,68.5C 47.5,69.1667 48.5,69.8333 49.5,70.5C 50.5,69.8333 51.5,69.1667 52.5,68.5C 52.8333,68.8333 53.1667,69.1667 53.5,69.5C 51.4411,70.9512 50.4411,72.9512 50.5,75.5C 53.3882,75.7804 54.8882,74.4471 55,71.5C 56.951,73.1371 56.7843,74.6371 54.5,76C 56.1787,79.0678 58.1787,79.2345 60.5,76.5C 60.458,77.521 60.458,78.521 60.5,79.5 Z"/></g>
<g><path style="opacity:1" fill="#c9d9de" d="M 32.5,98.5 C 34.337,98.6395 34.6704,99.3061 33.5,100.5C 32.7025,100.043 32.3691,99.3764 32.5,98.5 Z"/></g>
<g><path style="opacity:1" fill="#e2e2e9" d="M 57.5,102.5 C 59.9118,102.694 60.9118,104.027 60.5,106.5C 59.1667,106.5 57.8333,106.5 56.5,106.5C 56.4326,105.041 56.7659,103.708 57.5,102.5 Z"/></g>
<g><path style="opacity:1" fill="#d2dadf" d="M 62.5,109.5 C 64.337,109.639 64.6704,110.306 63.5,111.5C 62.7025,111.043 62.3691,110.376 62.5,109.5 Z"/></g>
<g><path style="opacity:1" fill="#0c3f65" d="M 37.5,129.5 C 36.3611,132.918 35.0277,136.251 33.5,139.5C 34.1834,141.176 35.5168,141.843 37.5,141.5C 37.8333,137.5 38.1667,137.5 38.5,141.5C 44.1667,141.5 49.8333,141.5 55.5,141.5C 55.6932,145.449 56.1932,145.449 57,141.5C 58.7261,142.576 60.5594,142.743 62.5,142C 61.944,141.617 61.6107,141.117 61.5,140.5C 63.3841,140.288 64.7174,139.288 65.5,137.5C 63.9852,136.409 63.1519,135.076 63,133.5C 63.8928,134.711 64.7261,134.711 65.5,133.5C 63.8327,132.334 62.166,132.334 60.5,133.5C 60.4226,132.25 59.756,131.417 58.5,131C 60.3083,128.162 62.6417,125.995 65.5,124.5C 67.1161,125.115 68.4495,126.115 69.5,127.5C 68.1451,128.675 68.3117,129.675 70,130.5C 71.6477,128.972 73.6477,128.305 76,128.5C 80.0269,129.064 84.1936,129.064 88.5,128.5C 88.6695,130.912 88.0028,133.079 86.5,135C 86.8333,135.5 87.1667,136 87.5,136.5C 89.7807,134.2 91.614,131.534 93,128.5C 94.3848,129.551 95.3848,130.884 96,132.5C 96.1857,137.84 95.8523,143.174 95,148.5C 94.3076,149.025 93.8076,149.692 93.5,150.5C 64.8333,151.833 36.1667,151.833 7.5,150.5C 5.8435,149.008 4.3435,147.342 3,145.5C 2.17053,140.136 2.33719,134.802 3.5,129.5C 4.4274,131.113 5.26074,132.779 6,134.5C 6.00467,131.771 7.17134,129.771 9.5,128.5C 6.95568,126.608 6.95568,124.775 9.5,123C 12.4682,122.306 15.4682,121.806 18.5,121.5C 20.6193,121.598 22.286,122.431 23.5,124C 28.5055,124.082 33.5055,124.082 38.5,124C 39.8437,126.144 39.5104,127.977 37.5,129.5 Z"/></g>
<g><path style="opacity:1" fill="#d6aa6f" d="M 54.5,132.5 C 56.1439,132.286 57.6439,132.62 59,133.5C 59.6877,134.332 59.521,134.998 58.5,135.5C 56.7028,132.904 55.3695,133.237 54.5,136.5C 55.3805,137.971 56.7139,138.804 58.5,139C 53.5705,139.427 52.2372,137.26 54.5,132.5 Z"/></g>
<g><path style="opacity:1" fill="#bd9b6f" d="M 61.5,140.5 C 60.6971,139.577 60.5304,138.577 61,137.5C 61.8928,138.711 62.7261,138.711 63.5,137.5C 61.7118,136.717 60.7118,135.384 60.5,133.5C 62.166,132.334 63.8327,132.334 65.5,133.5C 64.7261,134.711 63.8928,134.711 63,133.5C 63.1519,135.076 63.9852,136.409 65.5,137.5C 64.7174,139.288 63.3841,140.288 61.5,140.5 Z"/></g>
<g><path style="opacity:1" fill="#dfaf6d" d="M 49.5,133.5 C 49.56,132.957 49.8933,132.624 50.5,132.5C 51.8333,134.833 51.8333,137.167 50.5,139.5C 50.638,137.564 50.3047,135.564 49.5,133.5 Z"/></g>
<g><path style="opacity:1" fill="#d3ac6f" d="M 43.5,133.5 C 44.7618,133.093 46.0951,132.76 47.5,132.5C 47.8333,132.833 48.1667,133.167 48.5,133.5C 47.675,134.386 46.675,134.719 45.5,134.5C 45.8072,136.446 45.8072,138.113 45.5,139.5C 44.8313,137.369 44.1646,135.369 43.5,133.5 Z"/></g>
<g><path style="opacity:1" fill="#c59d6e" d="M 37.5,129.5 C 38.4972,129.47 39.1639,129.97 39.5,131C 40.0459,133.861 41.0459,136.527 42.5,139C 41.552,139.483 40.552,139.649 39.5,139.5C 39.477,137.073 38.977,134.74 38,132.5C 37.8276,135.813 36.3276,138.146 33.5,139.5C 35.0277,136.251 36.3611,132.918 37.5,129.5 Z"/></g>
<g><path style="opacity:1" fill="#bd946d" d="M 49.5,128.5 C 51.337,128.639 51.6704,129.306 50.5,130.5C 49.7025,130.043 49.3691,129.376 49.5,128.5 Z"/></g>
</svg>
