<?xml version="1.0" encoding="UTF-8"?>
<!DOCTYPE svg PUBLIC "-//W3C//DTD SVG 1.1//EN" "http://www.w3.org/Graphics/SVG/1.1/DTD/svg11.dtd">
<svg xmlns="http://www.w3.org/2000/svg" version="1.1" width="102px" height="155px" style="shape-rendering:geometricPrecision; text-rendering:geometricPrecision; image-rendering:optimizeQuality; fill-rule:evenodd; clip-rule:evenodd" xmlns:xlink="http://www.w3.org/1999/xlink">
<g><path style="opacity:1" fill="#152e51" d="M -0.5,-0.5 C 33.5,-0.5 67.5,-0.5 101.5,-0.5C 101.5,51.1667 101.5,102.833 101.5,154.5C 67.5,154.5 33.5,154.5 -0.5,154.5C -0.5,152.167 -0.5,149.833 -0.5,147.5C 0.166667,147.5 0.833333,147.5 1.5,147.5C 2.96163,151.641 5.96163,153.641 10.5,153.5C 39.1454,152.314 67.8121,151.314 96.5,150.5C 97.9224,148.213 98.589,145.713 98.5,143C 97.8356,138.521 97.5023,134.021 97.5,129.5C 98.4767,126.713 98.81,123.713 98.5,120.5C 98.5405,95.1567 98.0405,69.8233 97,44.5C 94.8615,45.7691 92.6948,45.7691 90.5,44.5C 91.0253,43.8076 91.6919,43.3076 92.5,43C 90.6547,41.872 88.6547,41.372 86.5,41.5C 86.5,42.8333 86.5,44.1667 86.5,45.5C 89.2613,46.9205 92.2613,47.5871 95.5,47.5C 95.4107,51.7174 94.5774,55.7174 93,59.5C 89.6161,57.7269 87.4494,58.7269 86.5,62.5C 85.1667,63.1667 83.8333,63.8333 82.5,64.5C 81.2638,63.7542 79.9305,63.4208 78.5,63.5C 80.8251,60.049 82.4918,56.2157 83.5,52C 83.1377,50.7753 82.6377,49.6086 82,48.5C 81.2366,55.2029 78.0699,60.3696 72.5,64C 70.8659,64.4935 69.1992,64.6602 67.5,64.5C 66.8333,64.5 66.5,64.1667 66.5,63.5C 69.462,58.7038 73.2954,54.7038 78,51.5C 78.2754,47.8376 77.4421,44.5043 75.5,41.5C 74.8333,40.1667 74.1667,38.8333 73.5,37.5C 70.0768,32.6254 65.4102,30.7921 59.5,32C 61.3586,33.6924 63.3586,35.1924 65.5,36.5C 66.1272,37.4168 66.4606,38.4168 66.5,39.5C 64.5043,37.6668 62.171,37.1668 59.5,38C 60.7588,38.9234 62.0921,39.7568 63.5,40.5C 65.199,44.7336 67.5323,48.5669 70.5,52C 69.2006,54.1742 67.2006,55.3409 64.5,55.5C 62.2276,54.4418 59.8942,54.4418 57.5,55.5C 55.1605,55.3308 52.9939,54.6642 51,53.5C 48.2096,53.8443 45.2096,54.511 42,55.5C 38.5876,54.9709 35.0876,54.9709 31.5,55.5C 27.481,52.8173 27.6476,50.484 32,48.5C 33.7751,43.53 36.4418,39.53 40,36.5C 37.3813,37.2808 34.8813,38.2808 32.5,39.5C 32.5,39.1667 32.5,38.8333 32.5,38.5C 34.4205,35.4126 37.0872,33.2459 40.5,32C 34.3513,30.2461 29.6846,32.0794 26.5,37.5C 25.6618,37.8417 25.3284,38.5084 25.5,39.5C 24.2101,40.0577 23.3768,41.0577 23,42.5C 20.9635,46.493 21.2968,50.1596 24,53.5C 26.3333,55.5 28.6667,57.5 31,59.5C 32.0086,61.0249 32.5086,62.6916 32.5,64.5C 24.7052,63.7104 20.0385,59.3771 18.5,51.5C 19.6725,45.6586 19.0059,45.3253 16.5,50.5C 16.8031,55.3964 18.4698,59.7297 21.5,63.5C 21.631,64.2389 21.4643,64.9056 21,65.5C 18.4747,61.3787 15.808,57.3787 13,53.5C 9.40337,51.8998 6.40337,49.5665 4,46.5C 2.49439,57.7358 1.49439,69.0692 1,80.5C 0.822695,76.6437 0.322695,72.977 -0.5,69.5C -0.5,46.1667 -0.5,22.8333 -0.5,-0.5 Z"/></g>
<g><path style="opacity:1" fill="#dddfe2" d="M 47.5,11.5 C 54.0261,10.6903 56.6928,13.357 55.5,19.5C 53.3561,20.9535 51.5227,20.6201 50,18.5C 49.5348,19.9308 48.7014,21.0975 47.5,22C 50.2004,22.2532 52.867,22.2532 55.5,22C 51.122,25.487 46.9553,25.3203 43,21.5C 42.2722,16.953 44.1056,15.2863 48.5,16.5C 49.646,15.8551 50.646,15.0217 51.5,14C 49.102,13.6256 46.7687,13.6256 44.5,14C 45.5707,13.1482 46.5707,12.3149 47.5,11.5 Z"/></g>
<g><path style="opacity:1" fill="#28264e" d="M 51.5,15.5 C 52.8333,15.5 54.1667,15.5 55.5,15.5C 55.5,16.5 55.5,17.5 55.5,18.5C 54.1667,18.5 52.8333,18.5 51.5,18.5C 51.5,17.5 51.5,16.5 51.5,15.5 Z"/></g>
<g><path style="opacity:1" fill="#1a1e42" d="M 44.5,17.5 C 45.5,17.5 46.5,17.5 47.5,17.5C 47.5,18.5 47.5,19.5 47.5,20.5C 46.5,20.5 45.5,20.5 44.5,20.5C 44.5,19.5 44.5,18.5 44.5,17.5 Z"/></g>
<g><path style="opacity:1" fill="#9d6e3e" d="M 73.5,37.5 C 72.448,37.3505 71.448,37.5172 70.5,38C 71.6956,38.6543 71.6956,39.1543 70.5,39.5C 69.135,38.1931 67.8016,38.1931 66.5,39.5C 66.4606,38.4168 66.1272,37.4168 65.5,36.5C 63.3586,35.1924 61.3586,33.6924 59.5,32C 65.4102,30.7921 70.0768,32.6254 73.5,37.5 Z"/></g>
<g><path style="opacity:1" fill="#b07e47" d="M 32.5,38.5 C 29.848,38.5497 28.848,39.5497 29.5,41.5C 28.3196,44.081 27.3196,43.9143 26.5,41C 28.4904,39.1598 28.4904,37.9931 26.5,37.5C 29.6846,32.0794 34.3513,30.2461 40.5,32C 37.0872,33.2459 34.4205,35.4126 32.5,38.5 Z"/></g>
<g><path style="opacity:1" fill="#f3bc74" d="M 26.5,37.5 C 28.4904,37.9931 28.4904,39.1598 26.5,41C 27.3196,43.9143 28.3196,44.081 29.5,41.5C 28.848,39.5497 29.848,38.5497 32.5,38.5C 32.5,38.8333 32.5,39.1667 32.5,39.5C 32.2786,40.7348 31.6119,41.7348 30.5,42.5C 31.3401,44.2838 30.5068,45.2838 28,45.5C 25.9655,44.0558 25.1322,42.0558 25.5,39.5C 25.3284,38.5084 25.6618,37.8417 26.5,37.5 Z"/></g>
<g><path style="opacity:1" fill="#dfa968" d="M 73.5,37.5 C 74.1667,38.8333 74.8333,40.1667 75.5,41.5C 74.2434,46.3452 71.9101,47.1785 68.5,44C 68.8333,43.6667 69.1667,43.3333 69.5,43C 67.5743,42.5776 66.5743,41.4109 66.5,39.5C 67.8016,38.1931 69.135,38.1931 70.5,39.5C 71.6956,39.1543 71.6956,38.6543 70.5,38C 71.448,37.5172 72.448,37.3505 73.5,37.5 Z"/></g>
<g><path style="opacity:1" fill="#a47344" d="M 66.5,39.5 C 66.5743,41.4109 67.5743,42.5776 69.5,43C 69.1667,43.3333 68.8333,43.6667 68.5,44C 71.9101,47.1785 74.2434,46.3452 75.5,41.5C 77.4421,44.5043 78.2754,47.8376 78,51.5C 73.2954,54.7038 69.462,58.7038 66.5,63.5C 63.8333,66.8333 61.1667,70.1667 58.5,73.5C 56.7312,73.9396 54.7312,73.9396 52.5,73.5C 54.9082,72.5465 57.0749,71.2132 59,69.5C 60.8922,65.4372 63.3922,61.7706 66.5,58.5C 65.8075,57.4822 65.1408,56.4822 64.5,55.5C 67.2006,55.3409 69.2006,54.1742 70.5,52C 67.5323,48.5669 65.199,44.7336 63.5,40.5C 62.0921,39.7568 60.7588,38.9234 59.5,38C 62.171,37.1668 64.5043,37.6668 66.5,39.5 Z"/></g>
<g><path style="opacity:1" fill="#96673b" d="M 31.5,55.5 C 30.7611,55.369 30.0944,55.5357 29.5,56C 31.3203,56.9794 32.487,58.4794 33,60.5C 33.3076,59.6919 33.8076,59.0253 34.5,58.5C 36.932,61.4502 38.7653,64.7835 40,68.5C 42.4047,70.7015 44.2381,72.7015 45.5,74.5C 42.5673,73.07 40.0673,71.07 38,68.5C 38.382,70.7711 39.5487,72.7711 41.5,74.5C 43.604,75.5195 45.604,76.5195 47.5,77.5C 42.7671,75.6347 38.4338,76.3014 34.5,79.5C 35.4903,82.4399 37.4903,84.2733 40.5,85C 33.7035,84.8678 32.0369,81.8678 35.5,76C 28.8943,75.6112 26.0609,78.7778 27,85.5C 28.4194,86.4601 29.9194,87.2935 31.5,88C 27.5285,88.8471 24.8618,87.3471 23.5,83.5C 24.5058,79.9272 26.1725,76.7606 28.5,74C 31.8333,73.6667 35.1667,73.3333 38.5,73C 29.2015,70.5416 21.8682,73.2083 16.5,81C 17.5597,83.2513 18.3931,85.4179 19,87.5C 13.7163,83.0811 13.383,78.4145 18,73.5C 19.5793,71.9588 21.4127,70.7922 23.5,70C 27.5,69.6667 31.5,69.3333 35.5,69C 32.1656,67.9156 28.8323,67.0823 25.5,66.5C 28.3878,67.0102 30.7211,66.3435 32.5,64.5C 32.5086,62.6916 32.0086,61.0249 31,59.5C 28.6667,57.5 26.3333,55.5 24,53.5C 21.2968,50.1596 20.9635,46.493 23,42.5C 23.3768,41.0577 24.2101,40.0577 25.5,39.5C 25.1322,42.0558 25.9655,44.0558 28,45.5C 30.5068,45.2838 31.3401,44.2838 30.5,42.5C 31.6119,41.7348 32.2786,40.7348 32.5,39.5C 34.8813,38.2808 37.3813,37.2808 40,36.5C 36.4418,39.53 33.7751,43.53 32,48.5C 27.6476,50.484 27.481,52.8173 31.5,55.5 Z"/></g>
<g><path style="opacity:1" fill="#16365a" d="M 98.5,120.5 C 97.8334,113.655 97.1667,106.655 96.5,99.5C 94.2534,98.6258 91.9201,98.2924 89.5,98.5C 89.162,96.146 88.662,93.8127 88,91.5C 85.9592,90.5769 83.7925,90.2436 81.5,90.5C 82.0001,94.1638 80.8334,97.1638 78,99.5C 77.8078,97.4233 77.3078,95.4233 76.5,93.5C 75.0148,95.9336 73.3481,98.2669 71.5,100.5C 70.6779,97.6819 70.6779,94.6819 71.5,91.5C 68.8333,91.5 66.1667,91.5 63.5,91.5C 63.6602,93.1992 63.4935,94.8659 63,96.5C 60.8642,94.6224 59.3642,92.289 58.5,89.5C 58.1667,89.8333 57.8333,90.1667 57.5,90.5C 58.1687,93.832 58.1687,96.9987 57.5,100C 57.9054,100.945 58.572,101.612 59.5,102C 55.9937,102.629 52.6604,103.629 49.5,105C 51.8808,106.247 51.5475,106.58 48.5,106C 45.8976,105.117 43.7309,103.617 42,101.5C 42.1953,103.126 42.1953,104.793 42,106.5C 39.246,104.891 36.4127,103.558 33.5,102.5C 33.7251,106.056 32.8918,106.39 31,103.5C 29.6992,104.893 28.1992,105.393 26.5,105C 26.1262,100.753 24.2929,97.253 21,94.5C 19.8481,98.3259 17.6814,99.1593 14.5,97C 15.3079,95.2942 16.6412,94.4609 18.5,94.5C 18.719,93.325 18.3857,92.325 17.5,91.5C 14.3604,89.9779 11.0271,89.1446 7.5,89C 8.44802,88.5172 9.44802,88.3505 10.5,88.5C 10.2289,86.1789 10.8955,84.1789 12.5,82.5C 10.4122,81.5105 8.41222,81.8439 6.5,83.5C 5.81327,85.2744 4.97993,86.9411 4,88.5C 1.98392,102.711 1.15059,117.045 1.5,131.5C 1.5,136.833 1.5,142.167 1.5,147.5C 0.833333,147.5 0.166667,147.5 -0.5,147.5C -0.5,121.5 -0.5,95.5 -0.5,69.5C 0.322695,72.977 0.822695,76.6437 1,80.5C 1.49439,69.0692 2.49439,57.7358 4,46.5C 6.40337,49.5665 9.40337,51.8998 13,53.5C 15.808,57.3787 18.4747,61.3787 21,65.5C 21.4643,64.9056 21.631,64.2389 21.5,63.5C 22.2362,65.2294 23.5695,66.2294 25.5,66.5C 28.8323,67.0823 32.1656,67.9156 35.5,69C 31.5,69.3333 27.5,69.6667 23.5,70C 21.4127,70.7922 19.5793,71.9588 18,73.5C 13.383,78.4145 13.7163,83.0811 19,87.5C 18.3931,85.4179 17.5597,83.2513 16.5,81C 21.8682,73.2083 29.2015,70.5416 38.5,73C 35.1667,73.3333 31.8333,73.6667 28.5,74C 26.1725,76.7606 24.5058,79.9272 23.5,83.5C 24.8618,87.3471 27.5285,88.8471 31.5,88C 29.9194,87.2935 28.4194,86.4601 27,85.5C 26.0609,78.7778 28.8943,75.6112 35.5,76C 32.0369,81.8678 33.7035,84.8678 40.5,85C 37.4903,84.2733 35.4903,82.4399 34.5,79.5C 38.4338,76.3014 42.7671,75.6347 47.5,77.5C 48.8333,77.5 50.1667,77.5 51.5,77.5C 54.1667,77.5 56.8333,77.5 59.5,77.5C 63.8159,77.5631 65.3159,79.5631 64,83.5C 67.6891,79.6872 66.8558,77.1872 61.5,76C 68.0878,74.5648 72.0878,77.2315 73.5,84C 71.4579,86.5802 68.7912,88.2469 65.5,89C 76.1017,87.9517 78.1017,83.1184 71.5,74.5C 71.5,73.8333 71.8333,73.5 72.5,73.5C 76.302,74.7786 79.4687,77.1119 82,80.5C 82.3591,83.6201 81.1924,86.1201 78.5,88C 81.4939,87.6416 83.3272,85.8083 84,82.5C 83.8589,76.8211 81.0255,72.8211 75.5,70.5C 71.9792,69.8337 68.3125,69.1671 64.5,68.5C 67.3056,67.8324 69.9723,67.1657 72.5,66.5C 75.0772,66.5449 77.0772,65.5449 78.5,63.5C 79.9305,63.4208 81.2638,63.7542 82.5,64.5C 83.8333,63.8333 85.1667,63.1667 86.5,62.5C 87.4494,58.7269 89.6161,57.7269 93,59.5C 94.5774,55.7174 95.4107,51.7174 95.5,47.5C 92.2613,47.5871 89.2613,46.9205 86.5,45.5C 86.5,44.1667 86.5,42.8333 86.5,41.5C 88.6547,41.372 90.6547,41.872 92.5,43C 91.6919,43.3076 91.0253,43.8076 90.5,44.5C 92.6948,45.7691 94.8615,45.7691 97,44.5C 98.0405,69.8233 98.5405,95.1567 98.5,120.5 Z"/></g>
<g><path style="opacity:1" fill="#9e6d3a" d="M 71.5,74.5 C 78.1017,83.1184 76.1017,87.9517 65.5,89C 68.7912,88.2469 71.4579,86.5802 73.5,84C 72.0878,77.2315 68.0878,74.5648 61.5,76C 66.8558,77.1872 67.6891,79.6872 64,83.5C 65.3159,79.5631 63.8159,77.5631 59.5,77.5C 59.6282,75.9102 60.2949,74.5769 61.5,73.5C 64.7577,74.4173 68.091,74.7507 71.5,74.5 Z"/></g>
<g><path style="opacity:1" fill="#98693a" d="M 75.5,70.5 C 81.0255,72.8211 83.8589,76.8211 84,82.5C 83.3272,85.8083 81.4939,87.6416 78.5,88C 81.1924,86.1201 82.3591,83.6201 82,80.5C 79.4687,77.1119 76.302,74.7786 72.5,73.5C 72.5,73.1667 72.5,72.8333 72.5,72.5C 74.0269,72.573 75.0269,71.9063 75.5,70.5 Z"/></g>
<g><path style="opacity:1" fill="#eab26e" d="M 64.5,55.5 C 65.1408,56.4822 65.8075,57.4822 66.5,58.5C 63.3922,61.7706 60.8922,65.4372 59,69.5C 57.0749,71.2132 54.9082,72.5465 52.5,73.5C 54.7312,73.9396 56.7312,73.9396 58.5,73.5C 58.1961,74.1499 57.8627,74.8165 57.5,75.5C 55.3691,76.1687 53.3691,76.8354 51.5,77.5C 50.1667,77.5 48.8333,77.5 47.5,77.5C 45.604,76.5195 43.604,75.5195 41.5,74.5C 39.5487,72.7711 38.382,70.7711 38,68.5C 40.0673,71.07 42.5673,73.07 45.5,74.5C 44.2381,72.7015 42.4047,70.7015 40,68.5C 38.7653,64.7835 36.932,61.4502 34.5,58.5C 33.8076,59.0253 33.3076,59.6919 33,60.5C 32.487,58.4794 31.3203,56.9794 29.5,56C 30.0944,55.5357 30.7611,55.369 31.5,55.5C 35.0876,54.9709 38.5876,54.9709 42,55.5C 45.2096,54.511 48.2096,53.8443 51,53.5C 52.9939,54.6642 55.1605,55.3308 57.5,55.5C 59.8942,54.4418 62.2276,54.4418 64.5,55.5 Z"/></g>
<g><path style="opacity:1" fill="#d4984d" d="M 75.5,70.5 C 75.0269,71.9063 74.0269,72.573 72.5,72.5C 69.2784,72.8919 66.2784,72.3919 63.5,71C 67.4862,70.5012 71.4862,70.3345 75.5,70.5 Z"/></g>
<g><path style="opacity:1" fill="#6c4731" d="M 66.5,63.5 C 66.5,64.1667 66.8333,64.5 67.5,64.5C 67.3893,65.1174 67.056,65.6174 66.5,66C 68.4727,66.4955 70.4727,66.6621 72.5,66.5C 69.9723,67.1657 67.3056,67.8324 64.5,68.5C 68.3125,69.1671 71.9792,69.8337 75.5,70.5C 71.4862,70.3345 67.4862,70.5012 63.5,71C 66.2784,72.3919 69.2784,72.8919 72.5,72.5C 72.5,72.8333 72.5,73.1667 72.5,73.5C 71.8333,73.5 71.5,73.8333 71.5,74.5C 68.091,74.7507 64.7577,74.4173 61.5,73.5C 60.2949,74.5769 59.6282,75.9102 59.5,77.5C 56.8333,77.5 54.1667,77.5 51.5,77.5C 53.3691,76.8354 55.3691,76.1687 57.5,75.5C 57.8627,74.8165 58.1961,74.1499 58.5,73.5C 61.1667,70.1667 63.8333,66.8333 66.5,63.5 Z"/></g>
<g><path style="opacity:1" fill="#9a6c44" d="M 41.5,62.5 C 44.0368,64.5731 45.2035,67.2398 45,70.5C 42.792,68.3526 41.6253,65.6859 41.5,62.5 Z"/></g>
<g><path style="opacity:1" fill="#a6754a" d="M 48.5,55.5 C 50.1667,55.5 51.8333,55.5 53.5,55.5C 55.0504,60.4112 53.7171,64.4112 49.5,67.5C 44.8393,63.6276 44.506,59.6276 48.5,55.5 Z"/></g>
<g><path style="opacity:1" fill="#f4bb73" d="M 50.5,57.5 C 51.6946,57.8656 52.3613,58.699 52.5,60C 50.4823,65.7361 48.8157,65.7361 47.5,60C 48.5727,59.7934 49.5727,58.96 50.5,57.5 Z"/></g>
<g><path style="opacity:1" fill="#b17d42" d="M 16.5,50.5 C 17.1667,50.8333 17.8333,51.1667 18.5,51.5C 20.0385,59.3771 24.7052,63.7104 32.5,64.5C 30.7211,66.3435 28.3878,67.0102 25.5,66.5C 23.5695,66.2294 22.2362,65.2294 21.5,63.5C 18.4698,59.7297 16.8031,55.3964 16.5,50.5 Z"/></g>
<g><path style="opacity:1" fill="#ac7840" d="M 78.5,63.5 C 77.0772,65.5449 75.0772,66.5449 72.5,66.5C 70.4727,66.6621 68.4727,66.4955 66.5,66C 67.056,65.6174 67.3893,65.1174 67.5,64.5C 69.1992,64.6602 70.8659,64.4935 72.5,64C 78.0699,60.3696 81.2366,55.2029 82,48.5C 82.6377,49.6086 83.1377,50.7753 83.5,52C 82.4918,56.2157 80.8251,60.049 78.5,63.5 Z"/></g>
<g><path style="opacity:1" fill="#6e4f41" d="M 18.5,51.5 C 17.8333,51.1667 17.1667,50.8333 16.5,50.5C 19.0059,45.3253 19.6725,45.6586 18.5,51.5 Z"/></g>
<g><path style="opacity:1" fill="#133c61" d="M 98.5,120.5 C 98.81,123.713 98.4767,126.713 97.5,129.5C 95.3727,125.61 92.8727,125.61 90,129.5C 88.1804,128.511 86.3471,127.511 84.5,126.5C 80.5216,129.579 76.1883,130.246 71.5,128.5C 71.5,129.833 71.5,131.167 71.5,132.5C 70.1667,132.5 68.8333,132.5 67.5,132.5C 67.1924,134.924 67.5258,137.257 68.5,139.5C 69.1067,139.376 69.44,139.043 69.5,138.5C 70.7514,139.472 70.418,140.139 68.5,140.5C 67.3527,140.182 66.5194,139.516 66,138.5C 65.6174,139.056 65.1174,139.389 64.5,139.5C 63.791,138.596 62.791,138.263 61.5,138.5C 61.5,136.833 61.5,135.167 61.5,133.5C 59.195,135.045 58.8617,137.045 60.5,139.5C 58.8016,140.687 56.9682,141.687 55,142.5C 48.6894,141.437 42.1894,141.437 35.5,142.5C 25.988,140.115 16.3213,139.115 6.5,139.5C 6.80316,134.565 5.96983,129.899 4,125.5C 3.43381,127.723 2.60047,129.723 1.5,131.5C 1.15059,117.045 1.98392,102.711 4,88.5C 4.97993,86.9411 5.81327,85.2744 6.5,83.5C 8.41222,81.8439 10.4122,81.5105 12.5,82.5C 10.8955,84.1789 10.2289,86.1789 10.5,88.5C 9.44802,88.3505 8.44802,88.5172 7.5,89C 11.0271,89.1446 14.3604,89.9779 17.5,91.5C 18.3857,92.325 18.719,93.325 18.5,94.5C 16.6412,94.4609 15.3079,95.2942 14.5,97C 17.6814,99.1593 19.8481,98.3259 21,94.5C 24.2929,97.253 26.1262,100.753 26.5,105C 28.1992,105.393 29.6992,104.893 31,103.5C 32.8918,106.39 33.7251,106.056 33.5,102.5C 36.4127,103.558 39.246,104.891 42,106.5C 42.1953,104.793 42.1953,103.126 42,101.5C 43.7309,103.617 45.8976,105.117 48.5,106C 51.5475,106.58 51.8808,106.247 49.5,105C 52.6604,103.629 55.9937,102.629 59.5,102C 58.572,101.612 57.9054,100.945 57.5,100C 58.1687,96.9987 58.1687,93.832 57.5,90.5C 57.8333,90.1667 58.1667,89.8333 58.5,89.5C 59.3642,92.289 60.8642,94.6224 63,96.5C 63.4935,94.8659 63.6602,93.1992 63.5,91.5C 66.1667,91.5 68.8333,91.5 71.5,91.5C 70.6779,94.6819 70.6779,97.6819 71.5,100.5C 73.3481,98.2669 75.0148,95.9336 76.5,93.5C 77.3078,95.4233 77.8078,97.4233 78,99.5C 80.8334,97.1638 82.0001,94.1638 81.5,90.5C 83.7925,90.2436 85.9592,90.5769 88,91.5C 88.662,93.8127 89.162,96.146 89.5,98.5C 91.9201,98.2924 94.2534,98.6258 96.5,99.5C 97.1667,106.655 97.8334,113.655 98.5,120.5 Z"/></g>
<g><path style="opacity:1" fill="#f0ecf1" d="M 38.5,99.5 C 40.337,99.6395 40.6704,100.306 39.5,101.5C 38.7025,101.043 38.3691,100.376 38.5,99.5 Z"/></g>
<g><path style="opacity:1" fill="#f4f4f5" d="M 48.5,107.5 C 49.5,107.5 50.5,107.5 51.5,107.5C 51.5,108.5 51.5,109.5 51.5,110.5C 50.5,110.5 49.5,110.5 48.5,110.5C 48.5,109.5 48.5,108.5 48.5,107.5 Z"/></g>
<g><path style="opacity:1" fill="#ece5eb" d="M 65.5,112.5 C 67.337,112.639 67.6704,113.306 66.5,114.5C 65.7025,114.043 65.3691,113.376 65.5,112.5 Z"/></g>
<g><path style="opacity:1" fill="#0d3f65" d="M 60.5,139.5 C 61.8333,139.5 63.1667,139.5 64.5,139.5C 65.1174,139.389 65.6174,139.056 66,138.5C 66.5194,139.516 67.3527,140.182 68.5,140.5C 70.418,140.139 70.7514,139.472 69.5,138.5C 69.6138,136.282 70.2804,134.282 71.5,132.5C 71.5,131.167 71.5,129.833 71.5,128.5C 76.1883,130.246 80.5216,129.579 84.5,126.5C 86.3471,127.511 88.1804,128.511 90,129.5C 92.8727,125.61 95.3727,125.61 97.5,129.5C 97.5023,134.021 97.8356,138.521 98.5,143C 98.589,145.713 97.9224,148.213 96.5,150.5C 67.8121,151.314 39.1454,152.314 10.5,153.5C 5.96163,153.641 2.96163,151.641 1.5,147.5C 1.5,142.167 1.5,136.833 1.5,131.5C 2.60047,129.723 3.43381,127.723 4,125.5C 5.96983,129.899 6.80316,134.565 6.5,139.5C 16.3213,139.115 25.988,140.115 35.5,142.5C 42.1894,141.437 48.6894,141.437 55,142.5C 56.9682,141.687 58.8016,140.687 60.5,139.5 Z"/></g>
<g><path style="opacity:1" fill="#e0b56f" d="M 54.5,132.5 C 55.9778,132.238 57.3112,132.571 58.5,133.5C 57.7376,133.911 56.7376,134.077 55.5,134C 53.8695,137.062 54.8695,138.729 58.5,139C 53.5705,139.427 52.2372,137.26 54.5,132.5 Z"/></g>
<g><path style="opacity:1" fill="#cda16d" d="M 38.5,133.5 C 39.5417,132.209 40.7083,132.209 42,133.5C 42.2511,135.433 42.7511,137.266 43.5,139C 41.5273,139.495 39.5273,139.662 37.5,139.5C 37.281,138.325 37.6143,137.325 38.5,136.5C 38.8333,137.167 39.1667,137.833 39.5,138.5C 42.2633,135.877 41.93,134.211 38.5,133.5 Z"/></g>
<g><path style="opacity:1" fill="#cca470" d="M 61.5,133.5 C 61.5,135.167 61.5,136.833 61.5,138.5C 62.791,138.263 63.791,138.596 64.5,139.5C 63.1667,139.5 61.8333,139.5 60.5,139.5C 58.8617,137.045 59.195,135.045 61.5,133.5 Z"/></g>
<g><path style="opacity:1" fill="#c49a6d" d="M 71.5,132.5 C 70.2804,134.282 69.6138,136.282 69.5,138.5C 69.44,139.043 69.1067,139.376 68.5,139.5C 67.5258,137.257 67.1924,134.924 67.5,132.5C 68.8333,132.5 70.1667,132.5 71.5,132.5 Z"/></g>
<g><path style="opacity:1" fill="#c49b6c" d="M 48.5,133.5 C 49.1894,132.226 50.0228,132.226 51,133.5C 51.8077,135.579 51.641,137.579 50.5,139.5C 49.8313,137.369 49.1646,135.369 48.5,133.5 Z"/></g>
<g><path style="opacity:1" fill="#e3b16d" d="M 45.5,132.5 C 46.2891,132.783 46.9558,133.283 47.5,134C 46.7208,135.994 46.3874,137.828 46.5,139.5C 45.5258,137.257 45.1924,134.924 45.5,132.5 Z"/></g>
<g><path style="opacity:1" fill="#be9a70" d="M 61.5,133.5 C 62.5676,132.566 63.901,132.232 65.5,132.5C 65.719,133.675 65.3857,134.675 64.5,135.5C 63.7348,134.388 62.7348,133.721 61.5,133.5 Z"/></g>
<g><path style="opacity:1" fill="#c79f6e" d="M 30.5,129.5 C 32.1667,129.5 33.8333,129.5 35.5,129.5C 35.7251,133.056 34.8918,133.39 33,130.5C 29.7948,131.798 28.7948,134.132 30,137.5C 31.9942,138.279 33.8276,138.613 35.5,138.5C 31.2265,141.033 28.5598,139.699 27.5,134.5C 28.0924,132.577 29.0924,130.911 30.5,129.5 Z"/></g>
</svg>
