<?xml version="1.0" encoding="UTF-8"?>
<!DOCTYPE svg PUBLIC "-//W3C//DTD SVG 1.1//EN" "http://www.w3.org/Graphics/SVG/1.1/DTD/svg11.dtd">
<svg xmlns="http://www.w3.org/2000/svg" version="1.1" width="101px" height="154px" style="shape-rendering:geometricPrecision; text-rendering:geometricPrecision; image-rendering:optimizeQuality; fill-rule:evenodd; clip-rule:evenodd" xmlns:xlink="http://www.w3.org/1999/xlink">
<g><path style="opacity:1" fill="#142f52" d="M -0.5,-0.5 C 33.1667,-0.5 66.8333,-0.5 100.5,-0.5C 100.5,50.8333 100.5,102.167 100.5,153.5C 97.5,153.5 94.5,153.5 91.5,153.5C 92.9575,151.989 94.7908,150.989 97,150.5C 97.4966,148.19 97.6633,145.857 97.5,143.5C 98.4472,125.194 98.7805,106.861 98.5,88.5C 98.5,73.5 98.5,58.5 98.5,43.5C 94.5,43.1667 90.5,42.8333 86.5,42.5C 86.5,43.5 86.5,44.5 86.5,45.5C 87.5,45.5 88.5,45.5 89.5,45.5C 89.7251,49.0562 88.8918,49.3895 87,46.5C 86.5,46.6667 86,46.8333 85.5,47C 86.9797,48.2991 87.6464,49.9658 87.5,52C 87.8907,55.8814 87.2241,59.7147 85.5,63.5C 83.5,63.5 81.5,63.5 79.5,63.5C 79.628,61.3453 79.128,59.3453 78,57.5C 74.8358,59.8161 71.6691,62.1495 68.5,64.5C 70.168,62.66 71.668,60.66 73,58.5C 73.3979,53.3547 71.2312,52.188 66.5,55C 63.9774,56.3597 61.9774,58.193 60.5,60.5C 60.259,57.2065 61.0924,54.2065 63,51.5C 66.6687,46.3368 70.502,41.3368 74.5,36.5C 75.6491,36.2089 76.3158,35.3756 76.5,34C 76.2305,32.4857 75.8971,30.9857 75.5,29.5C 76.5471,27.9436 77.2137,26.2769 77.5,24.5C 78.5,24.5 79.5,24.5 80.5,24.5C 80.1455,21.9333 79.4788,19.4333 78.5,17C 78.6301,15.9412 79.1301,15.1079 80,14.5C 87.0844,18.1408 92.7511,16.4741 97,9.5C 97.6667,10.8333 98.3333,10.8333 99,9.5C 99.3058,7.04916 98.8058,4.71583 97.5,2.5C 96.1054,3.81457 95.1054,3.48123 94.5,1.5C 65.8391,0.333468 37.1725,0.166802 8.5,1C 6.80714,2.71298 5.4738,4.71298 4.5,7C 5.79323,7.49001 7.12656,7.65668 8.5,7.5C 8.5,8.5 8.5,9.5 8.5,10.5C 18.4004,10.6319 28.067,9.96522 37.5,8.5C 38.1667,8.83333 38.8333,9.16667 39.5,9.5C 38.0878,10.8064 36.4211,11.6397 34.5,12C 35.5762,13.7261 35.7429,15.5594 35,17.5C 33.0807,18.074 31.2474,18.4074 29.5,18.5C 29.19,17.2617 28.69,17.2617 28,18.5C 27.7586,21.2889 27.092,23.9556 26,26.5C 25.3333,30.1667 25.3333,33.8333 26,37.5C 30.0046,42.9165 34.0046,48.2498 38,53.5C 40.0141,55.9699 39.8475,57.9699 37.5,59.5C 34.9745,55.4929 31.4745,54.1595 27,55.5C 26.4209,56.9285 26.5876,58.2618 27.5,59.5C 25.4947,60.1236 23.8281,59.2903 22.5,57C 24.1373,53.3176 23.4706,50.1509 20.5,47.5C 17.0191,49.9742 13.0191,51.1409 8.5,51C 4.94099,53.7488 1.94099,56.9155 -0.5,60.5C -0.5,40.1667 -0.5,19.8333 -0.5,-0.5 Z"/></g>
<g><path style="opacity:1" fill="#152d51" d="M 74.5,36.5 C 73.9836,30.3629 72.8169,24.3629 71,18.5C 70.5774,17.0439 69.7441,16.5439 68.5,17C 70.0138,19.5871 70.6804,22.4205 70.5,25.5C 70.5672,29.6949 69.7339,33.6949 68,37.5C 64.8964,40.7245 61.5631,43.7245 58,46.5C 57.0411,50.1366 55.2077,53.3033 52.5,56C 50.8333,56.6667 49.1667,56.6667 47.5,56C 44.5095,53.0096 42.3428,49.5096 41,45.5C 31.0229,39.289 27.1896,30.289 29.5,18.5C 31.2474,18.4074 33.0807,18.074 35,17.5C 35.7429,15.5594 35.5762,13.7261 34.5,12C 36.4211,11.6397 38.0878,10.8064 39.5,9.5C 38.8333,9.16667 38.1667,8.83333 37.5,8.5C 28.067,9.96522 18.4004,10.6319 8.5,10.5C 8.5,9.5 8.5,8.5 8.5,7.5C 7.12656,7.65668 5.79323,7.49001 4.5,7C 5.4738,4.71298 6.80714,2.71298 8.5,1C 37.1725,0.166802 65.8391,0.333468 94.5,1.5C 95.1054,3.48123 96.1054,3.81457 97.5,2.5C 98.8058,4.71583 99.3058,7.04916 99,9.5C 98.3333,10.8333 97.6667,10.8333 97,9.5C 92.7511,16.4741 87.0844,18.1408 80,14.5C 79.1301,15.1079 78.6301,15.9412 78.5,17C 79.4788,19.4333 80.1455,21.9333 80.5,24.5C 79.5,24.5 78.5,24.5 77.5,24.5C 77.2137,26.2769 76.5471,27.9436 75.5,29.5C 75.8971,30.9857 76.2305,32.4857 76.5,34C 76.3158,35.3756 75.6491,36.2089 74.5,36.5 Z"/></g>
<g><path style="opacity:1" fill="#e5e7ec" d="M 43.5,9.5 C 50.4797,7.95334 53.4797,10.62 52.5,17.5C 54.1033,17.3118 55.4366,17.8118 56.5,19C 55.3474,20.883 53.6807,21.7163 51.5,21.5C 51.4542,25.2349 49.7875,26.5683 46.5,25.5C 47.9337,24.7702 49.1004,23.7702 50,22.5C 50.4986,18.8484 50.6653,15.1817 50.5,11.5C 49.5,11.5 48.5,11.5 47.5,11.5C 47.1667,22.1667 46.8333,22.1667 46.5,11.5C 44.8212,11.7148 43.8212,11.0481 43.5,9.5 Z"/></g>
<g><path style="opacity:1" fill="#12355a" d="M 98.5,88.5 C 97.6715,95.3213 97.1715,102.321 97,109.5C 96.8078,107.423 96.3078,105.423 95.5,103.5C 94.5745,104.641 93.7412,104.641 93,103.5C 91.5263,100.244 90.3597,96.911 89.5,93.5C 88.5,93.5 87.5,93.5 86.5,93.5C 86.5,92.5 86.5,91.5 86.5,90.5C 78.346,88.6255 73.6793,91.9588 72.5,100.5C 70.556,101.189 68.556,101.689 66.5,102C 64.7745,106.899 62.4412,107.399 59.5,103.5C 59.6236,102.893 59.9569,102.56 60.5,102.5C 61.1667,102.5 61.8333,102.5 62.5,102.5C 63.4345,101.432 63.7678,100.099 63.5,98.5C 61.7839,98.6287 60.1172,98.962 58.5,99.5C 57.5,99.5 56.5,99.5 55.5,99.5C 55.6495,98.448 55.4828,97.448 55,96.5C 53.2533,95.6699 51.5866,94.6699 50,93.5C 39.7839,97.1396 29.2839,98.1396 18.5,96.5C 18.2907,95.914 17.9574,95.414 17.5,95C 19.0374,92.6872 19.5374,90.1872 19,87.5C 16.7969,89.6688 15.9635,92.3354 16.5,95.5C 15.1667,95.5 13.8333,95.5 12.5,95.5C 12.6715,93.5082 12.0049,91.8415 10.5,90.5C 13.5202,86.3292 13.0202,82.6626 9,79.5C 5.12241,82.8889 4.62241,86.7223 7.5,91C 6.27049,94.7726 5.27049,98.6059 4.5,102.5C 3.7022,100.922 3.2022,99.2556 3,97.5C 2.23653,107.327 1.40319,116.994 0.5,126.5C 0.5,125.833 0.166667,125.5 -0.5,125.5C -0.5,103.833 -0.5,82.1667 -0.5,60.5C 1.94099,56.9155 4.94099,53.7488 8.5,51C 13.0191,51.1409 17.0191,49.9742 20.5,47.5C 23.4706,50.1509 24.1373,53.3176 22.5,57C 23.8281,59.2903 25.4947,60.1236 27.5,59.5C 29.2393,62.2427 31.5726,64.2427 34.5,65.5C 36.2191,66.0221 37.5525,67.0221 38.5,68.5C 38.5,68.8333 38.5,69.1667 38.5,69.5C 37.1667,70.8333 37.1667,72.1667 38.5,73.5C 38.8333,74.1667 39.1667,74.8333 39.5,75.5C 39.523,80.8741 40.023,86.2074 41,91.5C 44.8235,92.219 48.6569,92.219 52.5,91.5C 53.1667,91.5 53.8333,91.5 54.5,91.5C 56.3344,92.494 58.0011,92.494 59.5,91.5C 60.1174,91.3893 60.6174,91.056 61,90.5C 60.9357,88.0444 61.1023,85.7111 61.5,83.5C 61.3316,78.0043 61.8316,72.3376 63,66.5C 64.7255,65.536 66.5588,64.8693 68.5,64.5C 71.6691,62.1495 74.8358,59.8161 78,57.5C 79.128,59.3453 79.628,61.3453 79.5,63.5C 81.5,63.5 83.5,63.5 85.5,63.5C 87.2241,59.7147 87.8907,55.8814 87.5,52C 87.6464,49.9658 86.9797,48.2991 85.5,47C 86,46.8333 86.5,46.6667 87,46.5C 88.8918,49.3895 89.7251,49.0562 89.5,45.5C 88.5,45.5 87.5,45.5 86.5,45.5C 86.5,44.5 86.5,43.5 86.5,42.5C 90.5,42.8333 94.5,43.1667 98.5,43.5C 98.5,58.5 98.5,73.5 98.5,88.5 Z"/></g>
<g><path style="opacity:1" fill="#c69256" d="M 37.5,59.5 C 36.1501,62.106 34.6501,62.106 33,59.5C 33.3705,62.5392 35.2038,64.3725 38.5,65C 37.2068,65.49 35.8734,65.6567 34.5,65.5C 31.5726,64.2427 29.2393,62.2427 27.5,59.5C 26.5876,58.2618 26.4209,56.9285 27,55.5C 31.4745,54.1595 34.9745,55.4929 37.5,59.5 Z"/></g>
<g><path style="opacity:1" fill="#aa7947" d="M 74.5,36.5 C 70.502,41.3368 66.6687,46.3368 63,51.5C 61.0924,54.2065 60.259,57.2065 60.5,60.5C 61.9774,58.193 63.9774,56.3597 66.5,55C 71.2312,52.188 73.3979,53.3547 73,58.5C 71.668,60.66 70.168,62.66 68.5,64.5C 66.5588,64.8693 64.7255,65.536 63,66.5C 61.8316,72.3376 61.3316,78.0043 61.5,83.5C 61.6602,81.8008 61.4935,80.1341 61,78.5C 59.1511,82.1978 57.3178,85.8644 55.5,89.5C 56.5769,90.7051 57.9102,91.3718 59.5,91.5C 58.0011,92.494 56.3344,92.494 54.5,91.5C 54.6465,88.5569 55.3132,85.7236 56.5,83C 54.8368,81.5054 53.8368,79.672 53.5,77.5C 51.5,77.5 49.5,77.5 47.5,77.5C 47.7409,74.9664 46.7409,73.2998 44.5,72.5C 45.5817,71.4062 46.2483,70.0729 46.5,68.5C 44.7559,66.7592 43.4226,64.7592 42.5,62.5C 41.8485,61.9094 41.1818,61.2427 40.5,60.5C 40.1667,60.8333 39.8333,61.1667 39.5,61.5C 42.3347,64.3197 42.0013,66.653 38.5,68.5C 37.5525,67.0221 36.2191,66.0221 34.5,65.5C 35.8734,65.6567 37.2068,65.49 38.5,65C 35.2038,64.3725 33.3705,62.5392 33,59.5C 34.6501,62.106 36.1501,62.106 37.5,59.5C 39.8475,57.9699 40.0141,55.9699 38,53.5C 34.0046,48.2498 30.0046,42.9165 26,37.5C 25.3333,33.8333 25.3333,30.1667 26,26.5C 27.092,23.9556 27.7586,21.2889 28,18.5C 28.69,17.2617 29.19,17.2617 29.5,18.5C 27.1896,30.289 31.0229,39.289 41,45.5C 42.3428,49.5096 44.5095,53.0096 47.5,56C 49.1667,56.6667 50.8333,56.6667 52.5,56C 55.2077,53.3033 57.0411,50.1366 58,46.5C 61.5631,43.7245 64.8964,40.7245 68,37.5C 69.7339,33.6949 70.5672,29.6949 70.5,25.5C 70.6804,22.4205 70.0138,19.5871 68.5,17C 69.7441,16.5439 70.5774,17.0439 71,18.5C 72.8169,24.3629 73.9836,30.3629 74.5,36.5 Z"/></g>
<g><path style="opacity:1" fill="#f1b877" d="M 42.5,62.5 C 42.4877,58.5541 44.4877,56.8874 48.5,57.5C 48.7266,62.7541 47.5599,63.7541 45,60.5C 44.9252,62.935 44.0919,63.6016 42.5,62.5 Z"/></g>
<g><path style="opacity:1" fill="#ebb571" d="M 60.5,60.5 C 59.3284,62.8439 59.3284,65.1772 60.5,67.5C 59.3687,68.6039 58.5354,68.2705 58,66.5C 57,67.5 56,68.5 55,69.5C 54.3698,67.0966 55.2031,65.2633 57.5,64C 56.451,63.5078 55.451,63.6744 54.5,64.5C 53.1268,62.5101 52.1268,60.3434 51.5,58C 54.0075,57.9071 56.1741,57.0738 58,55.5C 58.6924,56.0253 59.1924,56.6919 59.5,57.5C 56.5754,58.1046 56.9087,59.1046 60.5,60.5 Z"/></g>
<g><path style="opacity:1" fill="#e8b16c" d="M 42.5,62.5 C 43.4226,64.7592 44.7559,66.7592 46.5,68.5C 46.2483,70.0729 45.5817,71.4062 44.5,72.5C 43.2482,71.0322 41.2482,70.0322 38.5,69.5C 38.5,69.1667 38.5,68.8333 38.5,68.5C 42.0013,66.653 42.3347,64.3197 39.5,61.5C 39.8333,61.1667 40.1667,60.8333 40.5,60.5C 41.1818,61.2427 41.8485,61.9094 42.5,62.5 Z"/></g>
<g><path style="opacity:1" fill="#efba7a" d="M 49.5,60.5 C 51.6801,62.0313 52.6801,64.1979 52.5,67C 52.2781,69.9436 51.6115,72.777 50.5,75.5C 49.2335,72.051 48.2335,68.551 47.5,65C 47.8333,64.8333 48.1667,64.6667 48.5,64.5C 49.1667,66.1667 49.8333,67.8333 50.5,69.5C 50.8333,68.6667 51.1667,67.8333 51.5,67C 50.9671,64.7739 50.3004,62.6073 49.5,60.5 Z"/></g>
<g><path style="opacity:1" fill="#845b38" d="M 38.5,69.5 C 41.2482,70.0322 43.2482,71.0322 44.5,72.5C 42.2783,75.2714 40.4449,74.938 39,71.5C 38.5357,72.0944 38.369,72.7611 38.5,73.5C 37.1667,72.1667 37.1667,70.8333 38.5,69.5 Z"/></g>
<g><path style="opacity:1" fill="#f1b971" d="M 44.5,72.5 C 46.7409,73.2998 47.7409,74.9664 47.5,77.5C 46.2101,78.0577 45.3768,79.0577 45,80.5C 44.2496,79.8742 43.4162,79.3742 42.5,79C 43.3903,76.6935 42.3903,75.5268 39.5,75.5C 39.1667,74.8333 38.8333,74.1667 38.5,73.5C 38.369,72.7611 38.5357,72.0944 39,71.5C 40.4449,74.938 42.2783,75.2714 44.5,72.5 Z"/></g>
<g><path style="opacity:1" fill="#f0b772" d="M 53.5,77.5 C 53.3379,75.4727 53.5045,73.4727 54,71.5C 55.9347,73.1022 58.1013,74.2689 60.5,75C 57.3323,75.5823 56.999,76.5823 59.5,78C 57.3733,79.9098 55.3733,79.7431 53.5,77.5 Z"/></g>
<g><path style="opacity:1" fill="#113b60" d="M 58.5,99.5 C 57.1461,104.556 54.1461,108.223 49.5,110.5C 51.396,111.466 53.396,111.799 55.5,111.5C 55.2267,113.451 55.8934,114.951 57.5,116C 56.6919,116.308 56.0253,116.808 55.5,117.5C 57.5524,119.387 57.8858,121.387 56.5,123.5C 54.409,125.904 52.409,125.571 50.5,122.5C 51.5896,121.391 51.5896,120.391 50.5,119.5C 49.8076,120.025 49.3076,120.692 49,121.5C 48.6667,121.167 48.3333,120.833 48,120.5C 44.614,123.701 43.2806,123.035 44,118.5C 45.5158,121.051 46.3491,120.718 46.5,117.5C 45.0222,117.238 43.6888,117.571 42.5,118.5C 42.1345,119.902 41.3012,120.902 40,121.5C 37.2259,122.536 34.3926,123.369 31.5,124C 30.2532,125.458 30.2532,126.958 31.5,128.5C 29.0097,129.632 26.6763,129.299 24.5,127.5C 23.7659,126.292 23.4326,124.959 23.5,123.5C 22.0222,123.238 20.6888,123.571 19.5,124.5C 18.528,126.305 17.3613,127.972 16,129.5C 15.5,129 15,128.5 14.5,128C 16.5268,126.604 16.8602,124.938 15.5,123C 13.1902,122.503 10.8568,122.337 8.5,122.5C 8.58794,126.306 7.92128,129.973 6.5,133.5C 5.56758,131.234 4.23425,129.234 2.5,127.5C 1.66941,133.807 1.16941,140.141 1,146.5C 0.500416,139.842 0.333749,133.175 0.5,126.5C 1.40319,116.994 2.23653,107.327 3,97.5C 3.2022,99.2556 3.7022,100.922 4.5,102.5C 5.27049,98.6059 6.27049,94.7726 7.5,91C 4.62241,86.7223 5.12241,82.8889 9,79.5C 13.0202,82.6626 13.5202,86.3292 10.5,90.5C 12.0049,91.8415 12.6715,93.5082 12.5,95.5C 13.8333,95.5 15.1667,95.5 16.5,95.5C 15.9635,92.3354 16.7969,89.6688 19,87.5C 19.5374,90.1872 19.0374,92.6872 17.5,95C 17.9574,95.414 18.2907,95.914 18.5,96.5C 29.2839,98.1396 39.7839,97.1396 50,93.5C 51.5866,94.6699 53.2533,95.6699 55,96.5C 55.4828,97.448 55.6495,98.448 55.5,99.5C 56.5,99.5 57.5,99.5 58.5,99.5 Z"/></g>
<g><path style="opacity:1" fill="#a77848" d="M 39.5,75.5 C 42.3903,75.5268 43.3903,76.6935 42.5,79C 43.4162,79.3742 44.2496,79.8742 45,80.5C 45.3768,79.0577 46.2101,78.0577 47.5,77.5C 47.67,78.8221 47.3366,79.9887 46.5,81C 47.9533,83.1144 49.9533,84.4478 52.5,85C 51.2829,90.4064 50.1162,90.5731 49,85.5C 47.9887,84.6634 46.8221,84.33 45.5,84.5C 46.1667,86.8333 46.8333,89.1667 47.5,91.5C 49.1667,91.5 50.8333,91.5 52.5,91.5C 48.6569,92.219 44.8235,92.219 41,91.5C 40.023,86.2074 39.523,80.8741 39.5,75.5 Z"/></g>
<g><path style="opacity:1" fill="#d9a365" d="M 47.5,77.5 C 49.5,77.5 51.5,77.5 53.5,77.5C 53.8368,79.672 54.8368,81.5054 56.5,83C 55.3132,85.7236 54.6465,88.5569 54.5,91.5C 53.8333,91.5 53.1667,91.5 52.5,91.5C 50.8333,91.5 49.1667,91.5 47.5,91.5C 46.8333,89.1667 46.1667,86.8333 45.5,84.5C 46.8221,84.33 47.9887,84.6634 49,85.5C 50.1162,90.5731 51.2829,90.4064 52.5,85C 49.9533,84.4478 47.9533,83.1144 46.5,81C 47.3366,79.9887 47.67,78.8221 47.5,77.5 Z"/></g>
<g><path style="opacity:1" fill="#ca9657" d="M 61.5,83.5 C 61.1023,85.7111 60.9357,88.0444 61,90.5C 60.6174,91.056 60.1174,91.3893 59.5,91.5C 57.9102,91.3718 56.5769,90.7051 55.5,89.5C 57.3178,85.8644 59.1511,82.1978 61,78.5C 61.4935,80.1341 61.6602,81.8008 61.5,83.5 Z"/></g>
<g><path style="opacity:1" fill="#143c62" d="M 98.5,88.5 C 98.7805,106.861 98.4472,125.194 97.5,143.5C 96.6745,139.018 96.1745,134.351 96,129.5C 95.6924,128.692 95.1924,128.025 94.5,127.5C 90.8643,130.017 87.3643,129.684 84,126.5C 83.0975,127.701 81.9308,128.535 80.5,129C 80.9574,129.414 81.2907,129.914 81.5,130.5C 80.0508,131.172 78.7175,131.839 77.5,132.5C 76.5,132.5 75.5,132.5 74.5,132.5C 74.5,134.5 74.5,136.5 74.5,138.5C 73.9569,138.56 73.6236,138.893 73.5,139.5C 74.7349,141.415 76.0682,142.415 77.5,142.5C 73.7863,143.745 70.1197,143.579 66.5,142C 68.0589,141.02 69.7256,140.187 71.5,139.5C 71.3764,138.893 71.0431,138.56 70.5,138.5C 70.3285,136.508 70.9951,134.842 72.5,133.5C 71.3112,132.571 69.9778,132.238 68.5,132.5C 68.5,134.5 68.5,136.5 68.5,138.5C 66.8317,139.844 65.1651,141.177 63.5,142.5C 62.8333,142.167 62.1667,141.833 61.5,141.5C 62.6016,140.824 63.6016,140.158 64.5,139.5C 66.4411,137.989 66.9411,135.989 66,133.5C 63.7655,132.02 61.9321,132.353 60.5,134.5C 59.8333,133.833 59.1667,133.167 58.5,132.5C 56.5168,132.157 55.1834,132.824 54.5,134.5C 53.0698,136.455 53.4031,138.121 55.5,139.5C 54.8106,140.774 53.9772,140.774 53,139.5C 50.7397,141.502 48.573,141.169 46.5,138.5C 45.5655,137.432 45.2322,136.099 45.5,134.5C 46.675,134.719 47.675,134.386 48.5,133.5C 46.8945,133.519 45.2278,133.353 43.5,133C 44.768,135.163 44.768,137.33 43.5,139.5C 44.2625,140.268 45.2625,140.768 46.5,141C 43.7412,142.508 41.0745,143.341 38.5,143.5C 38.6716,142.508 38.3382,141.842 37.5,141.5C 38.0998,140.1 39.0998,139.1 40.5,138.5C 42.2726,137.686 42.7726,136.352 42,134.5C 40.5557,132.845 38.7224,132.178 36.5,132.5C 35.5184,135.962 35.185,139.629 35.5,143.5C 34.8826,143.611 34.3826,143.944 34,144.5C 32.6307,140.17 29.9641,139.17 26,141.5C 21.0032,141.752 17.5032,139.585 15.5,135C 16.7014,134.097 17.5348,132.931 18,131.5C 18.3988,131.728 18.5654,132.062 18.5,132.5C 17.9998,138.329 20.6665,140.663 26.5,139.5C 26.6495,138.448 26.4828,137.448 26,136.5C 22.8114,139.493 20.9781,138.826 20.5,134.5C 20.9781,130.174 22.8114,129.507 26,132.5C 26.4828,131.552 26.6495,130.552 26.5,129.5C 24.5,129.5 22.5,129.5 20.5,129.5C 21.1834,127.824 22.5168,127.157 24.5,127.5C 26.6763,129.299 29.0097,129.632 31.5,128.5C 30.2532,126.958 30.2532,125.458 31.5,124C 34.3926,123.369 37.2259,122.536 40,121.5C 41.3012,120.902 42.1345,119.902 42.5,118.5C 43.6888,117.571 45.0222,117.238 46.5,117.5C 46.3491,120.718 45.5158,121.051 44,118.5C 43.2806,123.035 44.614,123.701 48,120.5C 48.3333,120.833 48.6667,121.167 49,121.5C 49.3076,120.692 49.8076,120.025 50.5,119.5C 51.5896,120.391 51.5896,121.391 50.5,122.5C 52.409,125.571 54.409,125.904 56.5,123.5C 57.8858,121.387 57.5524,119.387 55.5,117.5C 56.0253,116.808 56.6919,116.308 57.5,116C 55.8934,114.951 55.2267,113.451 55.5,111.5C 53.396,111.799 51.396,111.466 49.5,110.5C 54.1461,108.223 57.1461,104.556 58.5,99.5C 60.1172,98.962 61.7839,98.6287 63.5,98.5C 63.7678,100.099 63.4345,101.432 62.5,102.5C 61.8333,99.8333 61.1667,99.8333 60.5,102.5C 59.9569,102.56 59.6236,102.893 59.5,103.5C 62.4412,107.399 64.7745,106.899 66.5,102C 68.556,101.689 70.556,101.189 72.5,100.5C 73.6793,91.9588 78.346,88.6255 86.5,90.5C 86.5,91.5 86.5,92.5 86.5,93.5C 87.5,93.5 88.5,93.5 89.5,93.5C 90.3597,96.911 91.5263,100.244 93,103.5C 93.7412,104.641 94.5745,104.641 95.5,103.5C 96.3078,105.423 96.8078,107.423 97,109.5C 97.1715,102.321 97.6715,95.3213 98.5,88.5 Z"/></g>
<g><path style="opacity:1" fill="#d0d0dc" d="M 62.5,102.5 C 61.8333,102.5 61.1667,102.5 60.5,102.5C 61.1667,99.8333 61.8333,99.8333 62.5,102.5 Z"/></g>
<g><path style="opacity:1" fill="#9498af" d="M 36.5,112.5 C 40.31,113.754 40.31,114.754 36.5,115.5C 36.5,114.5 36.5,113.5 36.5,112.5 Z"/></g>
<g><path style="opacity:1" fill="#d6d6e2" d="M 56.5,123.5 C 55.325,123.719 54.325,123.386 53.5,122.5C 55.0517,121.202 56.0517,121.535 56.5,123.5 Z"/></g>
<g><path style="opacity:1" fill="#133f65" d="M 24.5,127.5 C 22.5168,127.157 21.1834,127.824 20.5,129.5C 20.0679,130.71 19.4013,131.71 18.5,132.5C 18.5654,132.062 18.3988,131.728 18,131.5C 17.5348,132.931 16.7014,134.097 15.5,135C 17.5032,139.585 21.0032,141.752 26,141.5C 29.9641,139.17 32.6307,140.17 34,144.5C 34.3826,143.944 34.8826,143.611 35.5,143.5C 36.5,143.5 37.5,143.5 38.5,143.5C 41.0745,143.341 43.7412,142.508 46.5,141C 45.2625,140.768 44.2625,140.268 43.5,139.5C 44.791,139.737 45.791,139.404 46.5,138.5C 48.573,141.169 50.7397,141.502 53,139.5C 53.9772,140.774 54.8106,140.774 55.5,139.5C 56.552,139.649 57.552,139.483 58.5,139C 55.5529,138.888 54.2196,137.388 54.5,134.5C 55.6879,133.316 56.8545,133.316 58,134.5C 58.4643,133.906 58.631,133.239 58.5,132.5C 59.1667,133.167 59.8333,133.833 60.5,134.5C 59.7564,137.95 61.0897,139.616 64.5,139.5C 63.6016,140.158 62.6016,140.824 61.5,141.5C 62.1667,141.833 62.8333,142.167 63.5,142.5C 65.1651,141.177 66.8317,139.844 68.5,138.5C 69.1667,139.833 69.8333,139.833 70.5,138.5C 71.0431,138.56 71.3764,138.893 71.5,139.5C 69.7256,140.187 68.0589,141.02 66.5,142C 70.1197,143.579 73.7863,143.745 77.5,142.5C 76.0682,142.415 74.7349,141.415 73.5,139.5C 73.6236,138.893 73.9569,138.56 74.5,138.5C 74.8966,139.525 75.5632,139.692 76.5,139C 75.0099,136.8 75.3432,134.966 77.5,133.5C 79.2876,141.425 80.121,141.425 80,133.5C 79.3292,132.748 78.4959,132.414 77.5,132.5C 78.7175,131.839 80.0508,131.172 81.5,130.5C 81.2907,129.914 80.9574,129.414 80.5,129C 81.9308,128.535 83.0975,127.701 84,126.5C 87.3643,129.684 90.8643,130.017 94.5,127.5C 95.1924,128.025 95.6924,128.692 96,129.5C 96.1745,134.351 96.6745,139.018 97.5,143.5C 97.6633,145.857 97.4966,148.19 97,150.5C 94.7908,150.989 92.9575,151.989 91.5,153.5C 60.8333,153.5 30.1667,153.5 -0.5,153.5C -0.5,144.167 -0.5,134.833 -0.5,125.5C 0.166667,125.5 0.5,125.833 0.5,126.5C 0.333749,133.175 0.500416,139.842 1,146.5C 1.16941,140.141 1.66941,133.807 2.5,127.5C 4.23425,129.234 5.56758,131.234 6.5,133.5C 7.92128,129.973 8.58794,126.306 8.5,122.5C 10.8568,122.337 13.1902,122.503 15.5,123C 16.8602,124.938 16.5268,126.604 14.5,128C 15,128.5 15.5,129 16,129.5C 17.3613,127.972 18.528,126.305 19.5,124.5C 20.6888,123.571 22.0222,123.238 23.5,123.5C 23.4326,124.959 23.7659,126.292 24.5,127.5 Z"/></g>
<g><path style="opacity:1" fill="#daac72" d="M 64.5,139.5 C 61.0897,139.616 59.7564,137.95 60.5,134.5C 61.9321,132.353 63.7655,132.02 66,133.5C 66.9411,135.989 66.4411,137.989 64.5,139.5 Z"/></g>
<g><path style="opacity:1" fill="#d4a971" d="M 58.5,132.5 C 58.631,133.239 58.4643,133.906 58,134.5C 56.8545,133.316 55.6879,133.316 54.5,134.5C 55.1834,132.824 56.5168,132.157 58.5,132.5 Z"/></g>
<g><path style="opacity:1" fill="#d2a36f" d="M 77.5,132.5 C 78.4959,132.414 79.3292,132.748 80,133.5C 80.121,141.425 79.2876,141.425 77.5,133.5C 75.3432,134.966 75.0099,136.8 76.5,139C 75.5632,139.692 74.8966,139.525 74.5,138.5C 74.5,136.5 74.5,134.5 74.5,132.5C 75.5,132.5 76.5,132.5 77.5,132.5 Z"/></g>
<g><path style="opacity:1" fill="#d7ac6e" d="M 46.5,138.5 C 45.791,139.404 44.791,139.737 43.5,139.5C 44.768,137.33 44.768,135.163 43.5,133C 45.2278,133.353 46.8945,133.519 48.5,133.5C 47.675,134.386 46.675,134.719 45.5,134.5C 45.2322,136.099 45.5655,137.432 46.5,138.5 Z"/></g>
<g><path style="opacity:1" fill="#d3a76e" d="M 32.5,133.5 C 32.6602,135.199 32.4935,136.866 32,138.5C 31.5172,137.552 31.3505,136.552 31.5,135.5C 31.6309,134.624 31.2975,133.957 30.5,133.5C 29.6043,134.506 28.9377,134.506 28.5,133.5C 29.9584,132.218 31.2918,132.218 32.5,133.5 Z"/></g>
<g><path style="opacity:1" fill="#e5b46f" d="M 54.5,134.5 C 54.2196,137.388 55.5529,138.888 58.5,139C 57.552,139.483 56.552,139.649 55.5,139.5C 53.4031,138.121 53.0698,136.455 54.5,134.5 Z"/></g>
<g><path style="opacity:1" fill="#e6b16f" d="M 50.5,132.5 C 51.7969,134.693 51.7969,137.027 50.5,139.5C 50.2947,137.448 50.2947,135.114 50.5,132.5 Z"/></g>
<g><path style="opacity:1" fill="#1e3a67" d="M 62.5,133.5 C 65.9563,134.536 66.2896,136.203 63.5,138.5C 61.2957,137.218 60.9624,135.551 62.5,133.5 Z"/></g>
<g><path style="opacity:1" fill="#c29a6d" d="M 70.5,138.5 C 69.8333,139.833 69.1667,139.833 68.5,138.5C 68.5,136.5 68.5,134.5 68.5,132.5C 69.9778,132.238 71.3112,132.571 72.5,133.5C 70.9951,134.842 70.3285,136.508 70.5,138.5 Z"/></g>
<g><path style="opacity:1" fill="#696269" d="M 32.5,133.5 C 33.224,135.218 33.8906,137.052 34.5,139C 33.2068,139.49 31.8734,139.657 30.5,139.5C 29.8902,138.609 29.5569,137.609 29.5,136.5C 29.8417,135.662 30.5084,135.328 31.5,135.5C 31.3505,136.552 31.5172,137.552 32,138.5C 32.4935,136.866 32.6602,135.199 32.5,133.5 Z"/></g>
<g><path style="opacity:1" fill="#caa16d" d="M 20.5,129.5 C 22.5,129.5 24.5,129.5 26.5,129.5C 26.6495,130.552 26.4828,131.552 26,132.5C 22.8114,129.507 20.9781,130.174 20.5,134.5C 20.9781,138.826 22.8114,139.493 26,136.5C 26.4828,137.448 26.6495,138.448 26.5,139.5C 20.6665,140.663 17.9998,138.329 18.5,132.5C 19.4013,131.71 20.0679,130.71 20.5,129.5 Z"/></g>
<g><path style="opacity:1" fill="#e4bc71" d="M 29.5,136.5 C 29.5569,137.609 29.8902,138.609 30.5,139.5C 28.4482,138.947 28.1148,137.947 29.5,136.5 Z"/></g>
<g><path style="opacity:1" fill="#d8ad6e" d="M 36.5,132.5 C 38.7224,132.178 40.5557,132.845 42,134.5C 42.7726,136.352 42.2726,137.686 40.5,138.5C 39.0998,139.1 38.0998,140.1 37.5,141.5C 36.4949,139.296 36.1616,136.296 36.5,132.5 Z"/></g>
<g><path style="opacity:1" fill="#1c3764" d="M 40.5,138.5 C 39.5,138.5 38.5,138.5 37.5,138.5C 38.5,131.833 39.5,131.833 40.5,138.5 Z"/></g>
<g><path style="opacity:1" fill="#726668" d="M 36.5,132.5 C 36.1616,136.296 36.4949,139.296 37.5,141.5C 38.3382,141.842 38.6716,142.508 38.5,143.5C 37.5,143.5 36.5,143.5 35.5,143.5C 35.185,139.629 35.5184,135.962 36.5,132.5 Z"/></g>
</svg>
