<?xml version="1.0" encoding="UTF-8"?>
<!DOCTYPE svg PUBLIC "-//W3C//DTD SVG 1.1//EN" "http://www.w3.org/Graphics/SVG/1.1/DTD/svg11.dtd">
<svg xmlns="http://www.w3.org/2000/svg" version="1.1" width="102px" height="155px" style="shape-rendering:geometricPrecision; text-rendering:geometricPrecision; image-rendering:optimizeQuality; fill-rule:evenodd; clip-rule:evenodd" xmlns:xlink="http://www.w3.org/1999/xlink">
<g><path style="opacity:1" fill="#132b4d" d="M -0.5,-0.5 C 33.5,-0.5 67.5,-0.5 101.5,-0.5C 101.5,51.1667 101.5,102.833 101.5,154.5C 67.5,154.5 33.5,154.5 -0.5,154.5C -0.5,102.833 -0.5,51.1667 -0.5,-0.5 Z"/></g>
<g><path style="opacity:1" fill="#132f53" d="M 97.5,74.5 C 96.6981,73.0484 96.1981,71.3817 96,69.5C 95.3333,70.8333 94.6667,72.1667 94,73.5C 92.8333,71.8333 91.6667,70.1667 90.5,68.5C 83.3868,66.0981 80.2201,68.7647 81,76.5C 80.3292,77.2524 79.4959,77.5858 78.5,77.5C 78.7721,75.6862 78.9387,73.6862 79,71.5C 80.0945,69.9221 80.9278,68.2554 81.5,66.5C 83.189,62.6214 82.5223,59.2881 79.5,56.5C 79.0279,52.7232 77.3612,49.5565 74.5,47C 76.8855,44.2935 77.0522,41.4602 75,38.5C 72.8683,37.2203 70.7016,37.2203 68.5,38.5C 66.3501,35.8494 64.0168,33.3494 61.5,31C 56.9274,30.079 52.7608,30.9123 49,33.5C 44.9961,30.5949 40.8294,30.2615 36.5,32.5C 34.8149,34.5707 33.1482,36.5707 31.5,38.5C 26.0067,37.178 23.5067,39.178 24,44.5C 24.7083,45.3805 25.5416,46.0472 26.5,46.5C 24.4776,48.5313 22.8109,50.8646 21.5,53.5C 21.4431,54.609 21.1098,55.609 20.5,56.5C 17.6566,59.3835 16.99,62.7169 18.5,66.5C 20.8956,69.4067 21.5622,72.5734 20.5,76C 21.2822,78.7405 21.7822,81.5738 22,84.5C 24.0454,85.9265 26.2121,86.9265 28.5,87.5C 24.0193,89.6713 21.1859,88.338 20,83.5C 19.6667,84.1667 19.3333,84.8333 19,85.5C 18.51,84.2068 18.3433,82.8734 18.5,81.5C 16.2275,80.5681 14.0608,80.2348 12,80.5C 10.3488,81.7424 8.51545,82.5757 6.5,83C 5.42642,87.1952 4.25976,91.0285 3,94.5C 2.50999,93.2068 2.34332,91.8734 2.5,90.5C 1.23958,63.0885 1.23958,35.7552 2.5,8.5C 4.34705,2.09411 6.34705,1.92744 8.5,8C 6.67869,10.456 6.01202,13.2893 6.5,16.5C 8.83333,16.5 11.1667,16.5 13.5,16.5C 13.5,14.8333 13.5,13.1667 13.5,11.5C 19.5092,11.3338 25.5092,11.5005 31.5,12C 35.1475,13.936 38.8142,15.7693 42.5,17.5C 42.2493,7.38455 46.2493,5.05122 54.5,10.5C 55.3214,13.4465 55.8214,16.4465 56,19.5C 57.908,18.9208 59.5747,18.9208 61,19.5C 61.3742,18.5838 61.8742,17.7504 62.5,17C 60.6552,16.8135 58.9885,15.9802 57.5,14.5C 58.325,13.6143 59.325,13.281 60.5,13.5C 60.7796,9.77468 62.7796,8.60802 66.5,10C 66.1667,10.3333 65.8333,10.6667 65.5,11C 69.4862,11.4988 73.4862,11.6655 77.5,11.5C 77.5,10.5 77.5,9.5 77.5,8.5C 83.0934,8.19343 88.5934,8.52676 94,9.5C 94.6667,8.83333 95.3333,8.16667 96,7.5C 96.4675,11.4955 97.3008,15.3289 98.5,19C 97.8333,22.3333 97.1667,25.6667 96.5,29C 98.1142,44.158 98.4475,59.3247 97.5,74.5 Z"/></g>
<g><path style="opacity:1" fill="#e3e5e9" d="M 47.5,10.5 C 53.4286,12.2304 55.0953,16.0638 52.5,22C 53.0223,22.9503 53.689,23.7836 54.5,24.5C 53.7261,25.7112 52.8928,25.7112 52,24.5C 51.5014,21.9783 51.6681,19.4783 52.5,17C 52.2015,13.5038 50.5349,12.3371 47.5,13.5C 50.144,14.741 50.9774,16.741 50,19.5C 48.6667,20.8333 47.3333,20.8333 46,19.5C 45.9944,17.1912 45.8277,15.0246 45.5,13C 46.0556,11.9889 46.7222,11.1556 47.5,10.5 Z"/></g>
<g><path style="opacity:1" fill="#1c1c3f" d="M 46.5,16.5 C 49.5476,16.494 50.0476,17.494 48,19.5C 46.9614,18.7562 46.4614,17.7562 46.5,16.5 Z"/></g>
<g><path style="opacity:1" fill="#b78451" d="M 79.5,56.5 C 78.5222,56.811 77.8555,57.4777 77.5,58.5C 78.2305,61.1092 78.7305,63.7759 79,66.5C 79.7697,65.4019 80.603,65.4019 81.5,66.5C 80.9278,68.2554 80.0945,69.9221 79,71.5C 78.9387,73.6862 78.7721,75.6862 78.5,77.5C 79.9638,84.2002 77.2971,87.3669 70.5,87C 69.2731,90.2761 66.9397,92.1094 63.5,92.5C 65.1049,91.0817 66.1049,89.2484 66.5,87C 65.1439,85.4329 64.4772,83.5996 64.5,81.5C 66.1238,81.3601 67.2904,82.0267 68,83.5C 68.3333,81.8333 68.6667,80.1667 69,78.5C 69.1922,80.5767 69.6922,82.5767 70.5,84.5C 72.4812,83.8946 72.8146,82.8946 71.5,81.5C 73.5924,79.6541 74.9258,77.3208 75.5,74.5C 74.6195,73.0295 73.2861,72.1962 71.5,72C 71.8333,71.6667 72.1667,71.3333 72.5,71C 71.0039,70.4926 69.8373,70.9926 69,72.5C 68.5357,71.9056 68.369,71.2389 68.5,70.5C 69.6085,69.71 70.9419,69.21 72.5,69C 70.0948,67.4845 70.4281,66.3178 73.5,65.5C 73.7748,67.8418 74.6081,67.8418 76,65.5C 77.5948,63.5752 77.7615,61.5752 76.5,59.5C 73.5687,59.1714 71.0687,57.5047 69,54.5C 67.7945,50.5504 66.7945,46.5504 66,42.5C 64.2894,39.4203 61.7894,38.2536 58.5,39C 60.5,40.3333 62.5,41.6667 64.5,43C 57.8789,42.8344 58.0455,44.0011 65,46.5C 66.373,48.6954 66.7063,51.0288 66,53.5C 64.1207,51.4732 62.954,49.1398 62.5,46.5C 60.0459,46.6795 57.8792,46.0128 56,44.5C 54.2509,44.7483 53.4176,45.7483 53.5,47.5C 51.1024,50.6548 49.9358,54.3215 50,58.5C 49.0467,55.5682 48.5467,52.5682 48.5,49.5C 49.3168,47.6923 48.6502,46.1923 46.5,45C 43.446,43.4192 40.446,42.5859 37.5,42.5C 40.039,39.9597 43.039,39.1263 46.5,40C 43.9722,40.6689 43.9722,41.5022 46.5,42.5C 47.8333,42.1667 49.1667,41.8333 50.5,41.5C 48.8688,38.4036 46.8688,35.5702 44.5,33C 43.0922,32.6848 41.7589,33.0181 40.5,34C 42.087,34.8624 43.7536,35.5291 45.5,36C 46.4506,36.7175 46.6172,37.5509 46,38.5C 42.156,36.7621 38.8227,37.4288 36,40.5C 35.3086,38.1088 34.3086,38.1088 33,40.5C 32.2828,39.9558 31.7828,39.2891 31.5,38.5C 33.1482,36.5707 34.8149,34.5707 36.5,32.5C 40.8294,30.2615 44.9961,30.5949 49,33.5C 52.7608,30.9123 56.9274,30.079 61.5,31C 64.0168,33.3494 66.3501,35.8494 68.5,38.5C 70.7016,37.2203 72.8683,37.2203 75,38.5C 77.0522,41.4602 76.8855,44.2935 74.5,47C 77.3612,49.5565 79.0279,52.7232 79.5,56.5 Z"/></g>
<g><path style="opacity:1" fill="#ecb26d" d="M 73.5,65.5 C 75.3675,64.2139 75.5342,62.8805 74,61.5C 71.7341,65.334 71.0674,65.0007 72,60.5C 71,61.8333 70,61.8333 69,60.5C 69.3052,62.4432 69.3052,64.4432 69,66.5C 66.7868,70.5156 65.7868,70.5156 66,66.5C 62.3711,63.3905 61.2044,64.0572 62.5,68.5C 61.147,69.6853 59.9803,71.0186 59,72.5C 58.6667,72.1667 58.3333,71.8333 58,71.5C 57.5045,73.4727 57.3379,75.4727 57.5,77.5C 55.1667,77.5 52.8333,77.5 50.5,77.5C 49.8742,73.6246 51.5408,71.7913 55.5,72C 57.0135,68.5715 56.3468,65.5715 53.5,63C 54.1667,62.6667 54.8333,62.3333 55.5,62C 54.8803,59.5272 54.2136,57.0272 53.5,54.5C 52.5481,56.0453 52.2148,57.712 52.5,59.5C 50.549,59.2267 49.049,59.8934 48,61.5C 47.4757,53.5877 46.6424,53.5877 45.5,61.5C 45.7093,62.086 46.0426,62.586 46.5,63C 44.7029,64.5941 43.7029,66.5941 43.5,69C 45.4776,71.2477 47.4776,73.4144 49.5,75.5C 49.3918,76.4419 49.0585,77.2753 48.5,78C 46.4546,78.4901 44.4546,78.3235 42.5,77.5C 42.6621,75.4727 42.4955,73.4727 42,71.5C 40.8525,72.4581 39.8525,72.1247 39,70.5C 38.5078,69.451 38.6744,68.451 39.5,67.5C 38.8671,65.4807 37.8671,65.1474 36.5,66.5C 35.7611,66.631 35.0944,66.4643 34.5,66C 36.8069,63.6902 37.1403,61.0235 35.5,58C 36.1528,53.3471 38.8195,50.6805 43.5,50C 42.2842,48.2602 40.6175,47.2602 38.5,47C 39.2752,45.7705 40.2752,45.4372 41.5,46C 43.7493,47.7455 45.4159,49.9121 46.5,52.5C 47.0959,51.2839 47.2626,49.9506 47,48.5C 47.3826,49.056 47.8826,49.3893 48.5,49.5C 48.5467,52.5682 49.0467,55.5682 50,58.5C 49.9358,54.3215 51.1024,50.6548 53.5,47.5C 53.4176,45.7483 54.2509,44.7483 56,44.5C 57.8792,46.0128 60.0459,46.6795 62.5,46.5C 62.954,49.1398 64.1207,51.4732 66,53.5C 66.7063,51.0288 66.373,48.6954 65,46.5C 58.0455,44.0011 57.8789,42.8344 64.5,43C 62.5,41.6667 60.5,40.3333 58.5,39C 61.7894,38.2536 64.2894,39.4203 66,42.5C 66.7945,46.5504 67.7945,50.5504 69,54.5C 71.0687,57.5047 73.5687,59.1714 76.5,59.5C 77.7615,61.5752 77.5948,63.5752 76,65.5C 74.6081,67.8418 73.7748,67.8418 73.5,65.5 Z"/></g>
<g><path style="opacity:1" fill="#9f7044" d="M 53.5,47.5 C 60.7923,47.7738 65.1256,51.7738 66.5,59.5C 66.523,61.0666 66.023,62.3999 65,63.5C 65.3789,58.5783 63.8789,54.4116 60.5,51C 58.765,50.3486 57.0983,50.5153 55.5,51.5C 54.2888,50.7261 54.2888,49.8928 55.5,49C 54.5842,48.7216 53.9175,48.2216 53.5,47.5 Z"/></g>
<g><path style="opacity:1" fill="#cd985d" d="M 48.5,49.5 C 47.8826,49.3893 47.3826,49.056 47,48.5C 47.2626,49.9506 47.0959,51.2839 46.5,52.5C 45.4159,49.9121 43.7493,47.7455 41.5,46C 40.2752,45.4372 39.2752,45.7705 38.5,47C 40.6175,47.2602 42.2842,48.2602 43.5,50C 38.8195,50.6805 36.1528,53.3471 35.5,58C 37.1403,61.0235 36.8069,63.6902 34.5,66C 35.0944,66.4643 35.7611,66.631 36.5,66.5C 35.9344,68.0783 34.9344,69.4116 33.5,70.5C 31.3628,67.0085 29.5295,63.3418 28,59.5C 27.6667,61.1667 27.3333,62.8333 27,64.5C 26.3457,63.3044 25.8457,63.3044 25.5,64.5C 26.3256,65.451 26.4922,66.451 26,67.5C 22.0629,64.7125 21.7296,61.7125 25,58.5C 26.7891,58.3775 28.6225,58.3775 30.5,58.5C 32.4753,57.7248 33.3087,56.3914 33,54.5C 32.1887,55.9597 31.3554,56.293 30.5,55.5C 33.9503,49.5182 32.9503,48.3516 27.5,52C 26.2666,56.4943 25.0999,56.3276 24,51.5C 23.6667,52.8333 23.3333,54.1667 23,55.5C 22.7216,54.5842 22.2216,53.9175 21.5,53.5C 22.8109,50.8646 24.4776,48.5313 26.5,46.5C 25.5416,46.0472 24.7083,45.3805 24,44.5C 23.5067,39.178 26.0067,37.178 31.5,38.5C 31.7828,39.2891 32.2828,39.9558 33,40.5C 34.3086,38.1088 35.3086,38.1088 36,40.5C 38.8227,37.4288 42.156,36.7621 46,38.5C 46.6172,37.5509 46.4506,36.7175 45.5,36C 43.7536,35.5291 42.087,34.8624 40.5,34C 41.7589,33.0181 43.0922,32.6848 44.5,33C 46.8688,35.5702 48.8688,38.4036 50.5,41.5C 49.1667,41.8333 47.8333,42.1667 46.5,42.5C 43.9722,41.5022 43.9722,40.6689 46.5,40C 43.039,39.1263 40.039,39.9597 37.5,42.5C 40.446,42.5859 43.446,43.4192 46.5,45C 48.6502,46.1923 49.3168,47.6923 48.5,49.5 Z"/></g>
<g><path style="opacity:1" fill="#8a5e3b" d="M 26.5,46.5 C 27.278,44.7753 27.6114,43.1086 27.5,41.5C 29.9723,43.3479 32.139,43.3479 34,41.5C 34.3664,47.2272 31.8664,48.8938 26.5,46.5 Z"/></g>
<g><path style="opacity:1" fill="#886036" d="M 39.5,53.5 C 42.2921,54.3918 43.6254,56.3918 43.5,59.5C 38.1769,59.5685 36.8436,57.5685 39.5,53.5 Z"/></g>
<g><path style="opacity:1" fill="#8a6039" d="M 57.5,53.5 C 62.5726,54.4848 63.2393,56.4848 59.5,59.5C 59.0024,58.3966 58.6691,57.3966 58.5,56.5C 57.8076,57.0253 57.3076,57.6919 57,58.5C 56.6155,56.8034 56.7822,55.1368 57.5,53.5 Z"/></g>
<g><path style="opacity:1" fill="#dea563" d="M 79.5,56.5 C 82.5223,59.2881 83.189,62.6214 81.5,66.5C 80.603,65.4019 79.7697,65.4019 79,66.5C 78.7305,63.7759 78.2305,61.1092 77.5,58.5C 77.8555,57.4777 78.5222,56.811 79.5,56.5 Z"/></g>
<g><path style="opacity:1" fill="#dfa763" d="M 20.5,56.5 C 21.4778,56.811 22.1445,57.4777 22.5,58.5C 21.7695,61.1092 21.2695,63.7759 21,66.5C 20.6667,65.8333 20.3333,65.1667 20,64.5C 19.7216,65.4158 19.2216,66.0825 18.5,66.5C 16.99,62.7169 17.6566,59.3835 20.5,56.5 Z"/></g>
<g><path style="opacity:1" fill="#9a6c43" d="M 73.5,65.5 C 70.4281,66.3178 70.0948,67.4845 72.5,69C 70.9419,69.21 69.6085,69.71 68.5,70.5C 67.1851,71.4756 65.8518,72.4756 64.5,73.5C 63.914,73.2907 63.414,72.9574 63,72.5C 62.1989,76.1935 61.0322,79.6935 59.5,83C 59.8333,83.3333 60.1667,83.6667 60.5,84C 59.6138,85.6147 58.6138,87.1147 57.5,88.5C 56.5266,88.0133 55.5266,87.5133 54.5,87C 55.6217,84.8762 57.1217,83.0429 59,81.5C 60.2504,78.9234 60.5837,76.2567 60,73.5C 58.4091,76.3516 57.0758,79.3516 56,82.5C 54.8549,83.6364 53.6883,84.6364 52.5,85.5C 51.1266,85.6567 49.7932,85.49 48.5,85C 51.4242,84.3167 53.7575,82.8167 55.5,80.5C 52.2317,79.513 48.8984,79.1796 45.5,79.5C 45.2965,81.3904 45.9632,82.8904 47.5,84C 46.9056,84.4643 46.2389,84.631 45.5,84.5C 44.0512,82.3894 43.0512,80.0561 42.5,77.5C 44.4546,78.3235 46.4546,78.4901 48.5,78C 49.0585,77.2753 49.3918,76.4419 49.5,75.5C 47.4776,73.4144 45.4776,71.2477 43.5,69C 43.7029,66.5941 44.7029,64.5941 46.5,63C 46.0426,62.586 45.7093,62.086 45.5,61.5C 46.6424,53.5877 47.4757,53.5877 48,61.5C 49.049,59.8934 50.549,59.2267 52.5,59.5C 52.2148,57.712 52.5481,56.0453 53.5,54.5C 54.2136,57.0272 54.8803,59.5272 55.5,62C 54.8333,62.3333 54.1667,62.6667 53.5,63C 56.3468,65.5715 57.0135,68.5715 55.5,72C 51.5408,71.7913 49.8742,73.6246 50.5,77.5C 52.8333,77.5 55.1667,77.5 57.5,77.5C 57.3379,75.4727 57.5045,73.4727 58,71.5C 58.3333,71.8333 58.6667,72.1667 59,72.5C 59.9803,71.0186 61.147,69.6853 62.5,68.5C 61.2044,64.0572 62.3711,63.3905 66,66.5C 65.7868,70.5156 66.7868,70.5156 69,66.5C 69.3052,64.4432 69.3052,62.4432 69,60.5C 70,61.8333 71,61.8333 72,60.5C 71.0674,65.0007 71.7341,65.334 74,61.5C 75.5342,62.8805 75.3675,64.2139 73.5,65.5 Z"/></g>
<g><path style="opacity:1" fill="#f6ba73" d="M 49.5,61.5 C 52.961,63.4153 54.6277,66.4153 54.5,70.5C 51.5,70.5 48.5,70.5 45.5,70.5C 45.4825,66.8707 46.8158,63.8707 49.5,61.5 Z"/></g>
<g><path style="opacity:1" fill="#ae7c4a" d="M 36.5,66.5 C 37.8671,65.1474 38.8671,65.4807 39.5,67.5C 38.6744,68.451 38.5078,69.451 39,70.5C 39.8525,72.1247 40.8525,72.4581 42,71.5C 42.4955,73.4727 42.6621,75.4727 42.5,77.5C 41.3994,76.1516 40.3994,74.6516 39.5,73C 38.2575,72.6886 37.2575,73.1886 36.5,74.5C 35.1861,73.6872 34.0195,72.6872 33,71.5C 32.6667,72.1667 32.3333,72.8333 32,73.5C 30.1847,71.5951 28.1847,69.9284 26,68.5C 25.5521,70.4089 26.3855,71.5756 28.5,72C 27.552,72.4828 26.552,72.6495 25.5,72.5C 25.1102,76.1388 26.1102,79.3054 28.5,82C 27.3961,83.1313 27.7295,83.9646 29.5,84.5C 29.6691,83.6034 30.0024,82.6034 30.5,81.5C 31.8333,82.8333 33.1667,82.8333 34.5,81.5C 34.8333,82.1667 35.1667,82.8333 35.5,83.5C 34.1115,85.9962 33.1115,88.6628 32.5,91.5C 31.1667,90.1667 29.8333,88.8333 28.5,87.5C 26.2121,86.9265 24.0454,85.9265 22,84.5C 21.7822,81.5738 21.2822,78.7405 20.5,76C 21.5622,72.5734 20.8956,69.4067 18.5,66.5C 19.2216,66.0825 19.7216,65.4158 20,64.5C 20.3333,65.1667 20.6667,65.8333 21,66.5C 21.2695,63.7759 21.7695,61.1092 22.5,58.5C 22.1445,57.4777 21.4778,56.811 20.5,56.5C 21.1098,55.609 21.4431,54.609 21.5,53.5C 22.2216,53.9175 22.7216,54.5842 23,55.5C 23.3333,54.1667 23.6667,52.8333 24,51.5C 25.0999,56.3276 26.2666,56.4943 27.5,52C 32.9503,48.3516 33.9503,49.5182 30.5,55.5C 31.3554,56.293 32.1887,55.9597 33,54.5C 33.3087,56.3914 32.4753,57.7248 30.5,58.5C 28.6225,58.3775 26.7891,58.3775 25,58.5C 21.7296,61.7125 22.0629,64.7125 26,67.5C 26.4922,66.451 26.3256,65.451 25.5,64.5C 25.8457,63.3044 26.3457,63.3044 27,64.5C 27.3333,62.8333 27.6667,61.1667 28,59.5C 29.5295,63.3418 31.3628,67.0085 33.5,70.5C 34.9344,69.4116 35.9344,68.0783 36.5,66.5 Z"/></g>
<g><path style="opacity:1" fill="#dca565" d="M 42.5,77.5 C 43.0512,80.0561 44.0512,82.3894 45.5,84.5C 43.2598,83.4324 41.4264,81.7658 40,79.5C 40.159,82.6395 40.8256,85.6395 42,88.5C 39.8942,86.6234 38.5609,84.29 38,81.5C 37.3333,83.1667 37.3333,84.8333 38,86.5C 39.8333,88.3333 41.6667,90.1667 43.5,92C 41.8659,92.4935 40.1992,92.6602 38.5,92.5C 36.5,92.1667 34.5,91.8333 32.5,91.5C 33.1115,88.6628 34.1115,85.9962 35.5,83.5C 35.1667,82.8333 34.8333,82.1667 34.5,81.5C 33.1667,82.8333 31.8333,82.8333 30.5,81.5C 30.0024,82.6034 29.6691,83.6034 29.5,84.5C 27.7295,83.9646 27.3961,83.1313 28.5,82C 26.1102,79.3054 25.1102,76.1388 25.5,72.5C 26.552,72.6495 27.552,72.4828 28.5,72C 26.3855,71.5756 25.5521,70.4089 26,68.5C 28.1847,69.9284 30.1847,71.5951 32,73.5C 32.3333,72.8333 32.6667,72.1667 33,71.5C 34.0195,72.6872 35.1861,73.6872 36.5,74.5C 37.2575,73.1886 38.2575,72.6886 39.5,73C 40.3994,74.6516 41.3994,76.1516 42.5,77.5 Z"/></g>
<g><path style="opacity:1" fill="#13395f" d="M 97.5,74.5 C 97.5,80.8333 97.5,87.1667 97.5,93.5C 94.2129,91.0123 92.2129,87.679 91.5,83.5C 90.1667,83.5 88.8333,83.5 87.5,83.5C 87.7035,85.3904 87.0368,86.8904 85.5,88C 83.4194,88.8687 81.2527,89.3687 79,89.5C 76.4905,88.9075 73.9905,88.7408 71.5,89C 70.8095,90.0674 70.3095,91.2341 70,92.5C 68.8525,91.5419 67.8525,91.8753 67,93.5C 66.2797,95.1124 66.4464,96.6124 67.5,98C 65.981,99.3513 64.6477,100.851 63.5,102.5C 65.9783,103.722 66.9783,105.722 66.5,108.5C 63.9562,107.271 62.1228,105.938 61,104.5C 58.3153,107.309 55.1486,109.475 51.5,111C 48.7111,111.241 46.0444,111.908 43.5,113C 40.8225,116.204 37.8225,118.704 34.5,120.5C 34.9731,121.906 35.9731,122.573 37.5,122.5C 38.6398,118.073 40.3065,117.74 42.5,121.5C 43.1924,120.975 43.6924,120.308 44,119.5C 45.0086,120.658 46.3419,121.325 48,121.5C 50.4218,121.014 52.5885,120.681 54.5,120.5C 56.3535,121.176 56.6869,122.176 55.5,123.5C 49.1552,121.913 42.9885,122.246 37,124.5C 32.0472,124.081 27.2138,124.081 22.5,124.5C 21.263,124.444 20.263,123.944 19.5,123C 14.2497,122.807 9.08299,122.307 4,121.5C 3.58309,122.756 2.74975,123.423 1.5,123.5C 1.17207,112.321 1.5054,101.321 2.5,90.5C 2.34332,91.8734 2.50999,93.2068 3,94.5C 4.25976,91.0285 5.42642,87.1952 6.5,83C 8.51545,82.5757 10.3488,81.7424 12,80.5C 14.0608,80.2348 16.2275,80.5681 18.5,81.5C 18.3433,82.8734 18.51,84.2068 19,85.5C 19.3333,84.8333 19.6667,84.1667 20,83.5C 21.1859,88.338 24.0193,89.6713 28.5,87.5C 29.8333,88.8333 31.1667,90.1667 32.5,91.5C 34.5,91.8333 36.5,92.1667 38.5,92.5C 43.291,93.1503 47.1243,95.4836 50,99.5C 51.5383,96.6915 53.705,94.6915 56.5,93.5C 58.9496,93.702 61.283,93.3686 63.5,92.5C 66.9397,92.1094 69.2731,90.2761 70.5,87C 77.2971,87.3669 79.9638,84.2002 78.5,77.5C 79.4959,77.5858 80.3292,77.2524 81,76.5C 80.2201,68.7647 83.3868,66.0981 90.5,68.5C 91.6667,70.1667 92.8333,71.8333 94,73.5C 94.6667,72.1667 95.3333,70.8333 96,69.5C 96.1981,71.3817 96.6981,73.0484 97.5,74.5 Z"/></g>
<g><path style="opacity:1" fill="#b4824f" d="M 57.5,88.5 C 59.6237,87.9688 61.1237,86.6355 62,84.5C 62.1667,84.8333 62.3333,85.1667 62.5,85.5C 60.6921,88.4229 58.3588,90.9229 55.5,93C 55.7284,93.3988 56.0618,93.5654 56.5,93.5C 53.705,94.6915 51.5383,96.6915 50,99.5C 47.1243,95.4836 43.291,93.1503 38.5,92.5C 40.1992,92.6602 41.8659,92.4935 43.5,92C 41.6667,90.1667 39.8333,88.3333 38,86.5C 37.3333,84.8333 37.3333,83.1667 38,81.5C 38.5609,84.29 39.8942,86.6234 42,88.5C 40.8256,85.6395 40.159,82.6395 40,79.5C 41.4264,81.7658 43.2598,83.4324 45.5,84.5C 47.1032,85.5964 48.6032,86.9297 50,88.5C 51.045,87.6266 51.8783,86.6266 52.5,85.5C 53.6883,84.6364 54.8549,83.6364 56,82.5C 57.0758,79.3516 58.4091,76.3516 60,73.5C 60.5837,76.2567 60.2504,78.9234 59,81.5C 57.1217,83.0429 55.6217,84.8762 54.5,87C 55.5266,87.5133 56.5266,88.0133 57.5,88.5 Z"/></g>
<g><path style="opacity:1" fill="#ecb26d" d="M 52.5,85.5 C 51.8783,86.6266 51.045,87.6266 50,88.5C 48.6032,86.9297 47.1032,85.5964 45.5,84.5C 46.2389,84.631 46.9056,84.4643 47.5,84C 45.9632,82.8904 45.2965,81.3904 45.5,79.5C 48.8984,79.1796 52.2317,79.513 55.5,80.5C 53.7575,82.8167 51.4242,84.3167 48.5,85C 49.7932,85.49 51.1266,85.6567 52.5,85.5 Z"/></g>
<g><path style="opacity:1" fill="#dba566" d="M 68.5,70.5 C 68.369,71.2389 68.5357,71.9056 69,72.5C 69.8373,70.9926 71.0039,70.4926 72.5,71C 72.1667,71.3333 71.8333,71.6667 71.5,72C 73.2861,72.1962 74.6195,73.0295 75.5,74.5C 74.9258,77.3208 73.5924,79.6541 71.5,81.5C 72.8146,82.8946 72.4812,83.8946 70.5,84.5C 69.6922,82.5767 69.1922,80.5767 69,78.5C 68.6667,80.1667 68.3333,81.8333 68,83.5C 67.2904,82.0267 66.1238,81.3601 64.5,81.5C 64.4772,83.5996 65.1439,85.4329 66.5,87C 66.1049,89.2484 65.1049,91.0817 63.5,92.5C 61.283,93.3686 58.9496,93.702 56.5,93.5C 56.0618,93.5654 55.7284,93.3988 55.5,93C 58.3588,90.9229 60.6921,88.4229 62.5,85.5C 62.3333,85.1667 62.1667,84.8333 62,84.5C 61.1237,86.6355 59.6237,87.9688 57.5,88.5C 58.6138,87.1147 59.6138,85.6147 60.5,84C 60.1667,83.6667 59.8333,83.3333 59.5,83C 61.0322,79.6935 62.1989,76.1935 63,72.5C 63.414,72.9574 63.914,73.2907 64.5,73.5C 65.8518,72.4756 67.1851,71.4756 68.5,70.5 Z"/></g>
<g><path style="opacity:1" fill="#103a5f" d="M 97.5,93.5 C 97.5,104.5 97.5,115.5 97.5,126.5C 91.2992,127.105 85.1326,127.772 79,128.5C 77.2552,127.044 75.4219,125.711 73.5,124.5C 69.4465,124.725 65.2798,125.391 61,126.5C 60.5172,125.552 60.3505,124.552 60.5,123.5C 60.5,122.833 60.5,122.167 60.5,121.5C 61.1534,120.193 61.8201,118.86 62.5,117.5C 61.1228,115.711 60.1228,113.711 59.5,111.5C 61.875,110.34 64.2083,109.34 66.5,108.5C 66.9783,105.722 65.9783,103.722 63.5,102.5C 64.6477,100.851 65.981,99.3513 67.5,98C 66.4464,96.6124 66.2797,95.1124 67,93.5C 67.8525,91.8753 68.8525,91.5419 70,92.5C 70.3095,91.2341 70.8095,90.0674 71.5,89C 73.9905,88.7408 76.4905,88.9075 79,89.5C 81.2527,89.3687 83.4194,88.8687 85.5,88C 87.0368,86.8904 87.7035,85.3904 87.5,83.5C 88.8333,83.5 90.1667,83.5 91.5,83.5C 92.2129,87.679 94.2129,91.0123 97.5,93.5 Z"/></g>
<g><path style="opacity:1" fill="#eff3f4" d="M 34.5,120.5 C 36.1788,120.285 37.1788,120.952 37.5,122.5C 35.9731,122.573 34.9731,121.906 34.5,120.5 Z"/></g>
<g><path style="opacity:1" fill="#fdfafb" d="M 60.5,121.5 C 60.5,122.167 60.5,122.833 60.5,123.5C 59.1329,124.853 58.1329,124.519 57.5,122.5C 58.325,121.614 59.325,121.281 60.5,121.5 Z"/></g>
<g><path style="opacity:1" fill="#103f64" d="M 66.5,108.5 C 64.2083,109.34 61.875,110.34 59.5,111.5C 60.1228,113.711 61.1228,115.711 62.5,117.5C 61.8201,118.86 61.1534,120.193 60.5,121.5C 59.325,121.281 58.325,121.614 57.5,122.5C 58.1329,124.519 59.1329,124.853 60.5,123.5C 60.3505,124.552 60.5172,125.552 61,126.5C 65.2798,125.391 69.4465,124.725 73.5,124.5C 75.4219,125.711 77.2552,127.044 79,128.5C 85.1326,127.772 91.2992,127.105 97.5,126.5C 97.83,133.2 97.4967,139.866 96.5,146.5C 92.3173,147.754 88.6506,149.754 85.5,152.5C 58.5,153.833 31.5,153.833 4.5,152.5C 3.19362,151.088 2.36029,149.421 2,147.5C 1.50029,139.507 1.33362,131.507 1.5,123.5C 2.74975,123.423 3.58309,122.756 4,121.5C 9.08299,122.307 14.2497,122.807 19.5,123C 20.263,123.944 21.263,124.444 22.5,124.5C 27.2138,124.081 32.0472,124.081 37,124.5C 42.9885,122.246 49.1552,121.913 55.5,123.5C 56.6869,122.176 56.3535,121.176 54.5,120.5C 52.5885,120.681 50.4218,121.014 48,121.5C 46.3419,121.325 45.0086,120.658 44,119.5C 43.6924,120.308 43.1924,120.975 42.5,121.5C 40.3065,117.74 38.6398,118.073 37.5,122.5C 37.1788,120.952 36.1788,120.285 34.5,120.5C 37.8225,118.704 40.8225,116.204 43.5,113C 46.0444,111.908 48.7111,111.241 51.5,111C 55.1486,109.475 58.3153,107.309 61,104.5C 62.1228,105.938 63.9562,107.271 66.5,108.5 Z"/></g>
<g><path style="opacity:1" fill="#d4a76e" d="M 48.5,132.5 C 50.1439,132.286 51.6439,132.62 53,133.5C 53.6877,134.332 53.521,134.998 52.5,135.5C 50.82,132.839 49.4867,133.006 48.5,136C 49.0933,137.882 50.4267,138.882 52.5,139C 47.5705,139.427 46.2372,137.26 48.5,132.5 Z"/></g>
<g><path style="opacity:1" fill="#dcae70" d="M 55.5,132.5 C 60.3276,132.385 61.6609,134.552 59.5,139C 54.5705,139.427 53.2372,137.26 55.5,132.5 Z"/></g>
<g><path style="opacity:1" fill="#8d7a6a" d="M 42.5,130.5 C 41.8333,133.167 41.1667,135.833 40.5,138.5C 40.5,135.5 40.5,132.5 40.5,129.5C 42.4008,129.246 43.0674,129.58 42.5,130.5 Z"/></g>
<g><path style="opacity:1" fill="#203766" d="M 56.5,133.5 C 59.9563,134.536 60.2896,136.203 57.5,138.5C 55.2957,137.218 54.9624,135.551 56.5,133.5 Z"/></g>
<g><path style="opacity:1" fill="#e4b66e" d="M 42.5,130.5 C 42.5,133.167 42.5,135.833 42.5,138.5C 42.5,138.833 42.5,139.167 42.5,139.5C 41.5084,139.672 40.8417,139.338 40.5,138.5C 41.1667,135.833 41.8333,133.167 42.5,130.5 Z"/></g>
<g><path style="opacity:1" fill="#c6c7d6" d="M 56.5,112.5 C 58.337,112.639 58.6704,113.306 57.5,114.5C 56.7025,114.043 56.3691,113.376 56.5,112.5 Z"/></g>
<g><path style="opacity:1" fill="#85746b" d="M 42.5,139.5 C 42.5,139.167 42.5,138.833 42.5,138.5C 43.8221,138.67 44.9887,138.337 46,137.5C 46.4828,138.448 46.6495,139.448 46.5,140.5C 44.901,140.768 43.5676,140.434 42.5,139.5 Z"/></g>
</svg>
