<?xml version="1.0" encoding="UTF-8"?>
<!DOCTYPE svg PUBLIC "-//W3C//DTD SVG 1.1//EN" "http://www.w3.org/Graphics/SVG/1.1/DTD/svg11.dtd">
<svg xmlns="http://www.w3.org/2000/svg" version="1.1" width="101px" height="154px" style="shape-rendering:geometricPrecision; text-rendering:geometricPrecision; image-rendering:optimizeQuality; fill-rule:evenodd; clip-rule:evenodd" xmlns:xlink="http://www.w3.org/1999/xlink">
<g><path style="opacity:1" fill="#13294d" d="M 94.5,-0.5 C 96.5,-0.5 98.5,-0.5 100.5,-0.5C 100.5,50.8333 100.5,102.167 100.5,153.5C 98.5,153.5 96.5,153.5 94.5,153.5C 94.5,152.833 94.5,152.167 94.5,151.5C 99.1651,148.959 99.8317,145.459 96.5,141C 97.056,140.617 97.3893,140.117 97.5,139.5C 98.4978,113.339 98.8312,87.0053 98.5,60.5C 98.0575,45.1673 97.5575,29.8339 97,14.5C 94.1712,12.2383 94.0045,9.90495 96.5,7.5C 95.2815,7.89103 94.4482,7.22436 94,5.5C 91.4299,5.86594 88.5965,6.5326 85.5,7.5C 86.3094,9.07092 86.6427,10.7376 86.5,12.5C 80.9066,12.1934 75.4066,12.5268 70,13.5C 69.5034,11.1902 69.3367,8.85684 69.5,6.5C 67.549,6.22672 66.049,6.89339 65,8.5C 64.6924,7.69194 64.1924,7.02527 63.5,6.5C 59.6605,9.56424 59.6605,12.3976 63.5,15C 62.0292,17.2428 61.0292,19.7428 60.5,22.5C 56.0358,23.7994 51.7025,23.7994 47.5,22.5C 51.226,22.8226 54.8927,22.4892 58.5,21.5C 52.5368,20.5041 46.5368,20.1707 40.5,20.5C 40.5,20.1667 40.5,19.8333 40.5,19.5C 39.5,19.5 38.5,19.5 37.5,19.5C 37.67,20.8221 37.3366,21.9887 36.5,23C 32.8333,23.6667 29.1667,23.6667 25.5,23C 23.0829,21.8563 22.4162,20.1897 23.5,18C 25.764,17.7638 27.9307,17.2638 30,16.5C 30.5194,17.5156 31.3527,18.1822 32.5,18.5C 34.5178,17.3921 36.5178,17.2254 38.5,18C 39.7978,15.5008 39.4644,13.1675 37.5,11C 34.7759,10.7305 32.1092,10.2305 29.5,9.5C 22.224,10.4655 14.8907,10.7988 7.5,10.5C 7.5,12.1667 7.5,13.8333 7.5,15.5C 5.54899,15.7733 4.04899,15.1066 3,13.5C 2.33333,9.83333 2.33333,6.16667 3,2.5C 3.5,2 4,1.5 4.5,1C 34.6695,0.832363 64.6695,0.332363 94.5,-0.5 Z"/></g>
<g><path style="opacity:1" fill="#153154" d="M -0.5,-0.5 C 31.1667,-0.5 62.8333,-0.5 94.5,-0.5C 64.6695,0.332363 34.6695,0.832363 4.5,1C 4,1.5 3.5,2 3,2.5C 2.33333,6.16667 2.33333,9.83333 3,13.5C 4.04899,15.1066 5.54899,15.7733 7.5,15.5C 7.5,13.8333 7.5,12.1667 7.5,10.5C 14.8907,10.7988 22.224,10.4655 29.5,9.5C 32.1092,10.2305 34.7759,10.7305 37.5,11C 39.4644,13.1675 39.7978,15.5008 38.5,18C 36.5178,17.2254 34.5178,17.3921 32.5,18.5C 31.3527,18.1822 30.5194,17.5156 30,16.5C 27.9307,17.2638 25.764,17.7638 23.5,18C 22.4162,20.1897 23.0829,21.8563 25.5,23C 29.1667,23.6667 32.8333,23.6667 36.5,23C 37.3366,21.9887 37.67,20.8221 37.5,19.5C 38.5,19.5 39.5,19.5 40.5,19.5C 40.5,19.8333 40.5,20.1667 40.5,20.5C 42.2789,22.3435 44.6122,23.0102 47.5,22.5C 51.7025,23.7994 56.0358,23.7994 60.5,22.5C 61.0292,19.7428 62.0292,17.2428 63.5,15C 59.6605,12.3976 59.6605,9.56424 63.5,6.5C 64.1924,7.02527 64.6924,7.69194 65,8.5C 66.049,6.89339 67.549,6.22672 69.5,6.5C 69.3367,8.85684 69.5034,11.1902 70,13.5C 75.4066,12.5268 80.9066,12.1934 86.5,12.5C 86.6427,10.7376 86.3094,9.07092 85.5,7.5C 88.5965,6.5326 91.4299,5.86594 94,5.5C 94.4482,7.22436 95.2815,7.89103 96.5,7.5C 94.0045,9.90495 94.1712,12.2383 97,14.5C 97.5575,29.8339 98.0575,45.1673 98.5,60.5C 93.842,61.0563 89.1754,61.7229 84.5,62.5C 83.0969,64.9046 81.4302,67.0713 79.5,69C 82.1311,74.2268 83.9645,79.7268 85,85.5C 85.3333,85.1667 85.6667,84.8333 86,84.5C 87.9148,87.767 86.7481,89.1004 82.5,88.5C 82.7022,90.9892 82.2022,93.3225 81,95.5C 77.9654,93.2046 74.6321,92.8713 71,94.5C 67.8486,93.9069 64.682,93.4069 61.5,93C 57.8269,89.266 53.8269,88.4327 49.5,90.5C 46.4473,89.1839 43.7806,87.5173 41.5,85.5C 42.494,83.6656 42.494,81.9989 41.5,80.5C 40.1911,77.2223 38.3578,74.2223 36,71.5C 32.5798,68.2506 29.4131,64.9173 26.5,61.5C 27.0577,60.2101 28.0577,59.3768 29.5,59C 33.5037,58.0026 37.5037,57.1692 41.5,56.5C 47.3758,55.471 53.3758,55.471 59.5,56.5C 62.8647,57.0396 66.198,57.7063 69.5,58.5C 70.5045,59.6828 71.3378,61.0161 72,62.5C 73.3561,61.6198 74.8561,61.2865 76.5,61.5C 77.3272,55.9767 75.3272,54.3101 70.5,56.5C 65.5692,56.0139 60.9025,54.6806 56.5,52.5C 54.1673,49.9974 52.0007,47.3307 50,44.5C 49.4054,43.1011 49.5721,41.7678 50.5,40.5C 48.9547,39.5481 47.288,39.2148 45.5,39.5C 46.9116,45.0111 45.2449,49.3445 40.5,52.5C 34.4725,55.8314 28.1391,57.4981 21.5,57.5C 20.8728,58.4168 20.5394,59.4168 20.5,60.5C 20.3433,61.8734 20.51,63.2068 21,64.5C 22.0495,63.4829 23.2161,63.3162 24.5,64C 22.4476,64.9299 20.9476,66.4299 20,68.5C 18.5716,72.307 17.0716,75.9736 15.5,79.5C 15.5654,79.0618 15.3988,78.7284 15,78.5C 14.4921,80.9042 13.3255,81.5709 11.5,80.5C 9.83665,82.8007 8.00332,82.8007 6,80.5C 5.13862,83.0507 3.97195,85.384 2.5,87.5C 1.66729,100.821 1.16729,114.154 1,127.5C 0.173418,105.594 0.340085,83.7605 1.5,62C 0.905578,61.5357 0.238911,61.369 -0.5,61.5C -0.5,40.8333 -0.5,20.1667 -0.5,-0.5 Z"/></g>
<g><path style="opacity:1" fill="#cecfd9" d="M 40.5,20.5 C 46.5368,20.1707 52.5368,20.5041 58.5,21.5C 54.8927,22.4892 51.226,22.8226 47.5,22.5C 44.6122,23.0102 42.2789,22.3435 40.5,20.5 Z"/></g>
<g><path style="opacity:1" fill="#dfdfe3" d="M 40.5,19.5 C 43.677,17.6185 46.8437,15.6185 50,13.5C 52.8022,15.6397 55.9688,17.3064 59.5,18.5C 57.5787,19.641 55.5787,19.8077 53.5,19C 52.6151,14.374 50.4484,13.5407 47,16.5C 46.5172,17.448 46.3505,18.448 46.5,19.5C 44.5,19.5 42.5,19.5 40.5,19.5 Z"/></g>
<g><path style="opacity:1" fill="#95663a" d="M 56.5,52.5 C 54.4041,52.404 52.2374,52.404 50,52.5C 49.7508,51.376 49.2508,50.376 48.5,49.5C 47.1667,50.8333 47.1667,52.1667 48.5,53.5C 50.6841,52.8919 52.6841,53.5586 54.5,55.5C 56.2894,54.7526 57.9561,55.086 59.5,56.5C 53.3758,55.471 47.3758,55.471 41.5,56.5C 43.1233,55.2206 44.79,53.8872 46.5,52.5C 46.1924,51.6919 45.6924,51.0253 45,50.5C 44.2742,53.285 42.7742,53.9516 40.5,52.5C 45.2449,49.3445 46.9116,45.0111 45.5,39.5C 47.288,39.2148 48.9547,39.5481 50.5,40.5C 49.5721,41.7678 49.4054,43.1011 50,44.5C 52.0007,47.3307 54.1673,49.9974 56.5,52.5 Z"/></g>
<g><path style="opacity:1" fill="#c89354" d="M 56.5,52.5 C 60.9025,54.6806 65.5692,56.0139 70.5,56.5C 70.6716,57.4916 70.3382,58.1583 69.5,58.5C 66.198,57.7063 62.8647,57.0396 59.5,56.5C 57.9561,55.086 56.2894,54.7526 54.5,55.5C 52.6841,53.5586 50.6841,52.8919 48.5,53.5C 47.1667,52.1667 47.1667,50.8333 48.5,49.5C 49.2508,50.376 49.7508,51.376 50,52.5C 52.2374,52.404 54.4041,52.404 56.5,52.5 Z"/></g>
<g><path style="opacity:1" fill="#b68148" d="M 41.5,56.5 C 37.5037,57.1692 33.5037,58.0026 29.5,59C 28.0577,59.3768 27.0577,60.2101 26.5,61.5C 25.4168,61.5394 24.4168,61.8728 23.5,62.5C 22.4822,61.8075 21.4822,61.1408 20.5,60.5C 20.5394,59.4168 20.8728,58.4168 21.5,57.5C 28.1391,57.4981 34.4725,55.8314 40.5,52.5C 42.7742,53.9516 44.2742,53.285 45,50.5C 45.6924,51.0253 46.1924,51.6919 46.5,52.5C 44.79,53.8872 43.1233,55.2206 41.5,56.5 Z"/></g>
<g><path style="opacity:1" fill="#95673a" d="M 69.5,58.5 C 70.3382,58.1583 70.6716,57.4916 70.5,56.5C 75.3272,54.3101 77.3272,55.9767 76.5,61.5C 74.8561,61.2865 73.3561,61.6198 72,62.5C 71.3378,61.0161 70.5045,59.6828 69.5,58.5 Z"/></g>
<g><path style="opacity:1" fill="#333347" d="M 20.5,60.5 C 21.4822,61.1408 22.4822,61.8075 23.5,62.5C 24.4168,61.8728 25.4168,61.5394 26.5,61.5C 29.4131,64.9173 32.5798,68.2506 36,71.5C 38.3578,74.2223 40.1911,77.2223 41.5,80.5C 37.1018,80.2941 32.7685,80.6274 28.5,81.5C 29.1975,78.5722 29.3642,75.5722 29,72.5C 29.912,74.6585 30.7454,76.8252 31.5,79C 33.9018,79.8141 36.2351,79.6474 38.5,78.5C 35.594,72.925 31.594,68.2583 26.5,64.5C 24.5195,70.2282 24.1862,75.8949 25.5,81.5C 25.5,81.8333 25.5,82.1667 25.5,82.5C 24.8333,82.5 24.1667,82.5 23.5,82.5C 25.0972,63.948 23.0972,62.7814 17.5,79C 16.9689,80.718 16.3023,80.8847 15.5,79.5C 17.0716,75.9736 18.5716,72.307 20,68.5C 20.9476,66.4299 22.4476,64.9299 24.5,64C 23.2161,63.3162 22.0495,63.4829 21,64.5C 20.51,63.2068 20.3433,61.8734 20.5,60.5 Z"/></g>
<g><path style="opacity:1" fill="#133a60" d="M 98.5,60.5 C 98.8312,87.0053 98.4978,113.339 97.5,139.5C 98.0421,135.456 97.2088,131.789 95,128.5C 92.5644,128.958 90.0644,129.958 87.5,131.5C 87.5,130.167 87.5,128.833 87.5,127.5C 84.8333,127.5 82.1667,127.5 79.5,127.5C 79.2411,130.48 80.5744,132.313 83.5,133C 81.2379,134.047 79.0712,135.213 77,136.5C 76.5,136.167 76,135.833 75.5,135.5C 78.6454,131.553 77.9787,128.553 73.5,126.5C 72.3279,126.919 71.3279,127.585 70.5,128.5C 70.5089,131.176 70.5089,133.842 70.5,136.5C 69.1667,135.5 67.8333,134.5 66.5,133.5C 67.3482,131.591 67.6816,129.591 67.5,127.5C 62.6094,126.52 59.2761,128.186 57.5,132.5C 56.5,132.5 55.5,132.5 54.5,132.5C 54.5,134.5 54.5,136.5 54.5,138.5C 51.4014,141.076 47.9014,143.076 44,144.5C 40.2923,143.113 36.4589,142.279 32.5,142C 31.5838,141.626 30.7504,141.126 30,140.5C 29.7489,138.567 29.2489,136.734 28.5,135C 20.3969,136.83 18.3969,133.997 22.5,126.5C 20.6847,124.306 18.518,123.972 16,125.5C 13.5984,120.685 10.7651,120.352 7.5,124.5C 9.56362,128.009 9.89695,131.676 8.5,135.5C 5.65845,133.177 3.82511,130.177 3,126.5C 2.64512,133.345 2.14512,140.178 1.5,147C 1.42286,149.051 1.92286,150.884 3,152.5C 33.4264,151.504 63.9264,151.171 94.5,151.5C 94.5,152.167 94.5,152.833 94.5,153.5C 62.8333,153.5 31.1667,153.5 -0.5,153.5C -0.5,122.833 -0.5,92.1667 -0.5,61.5C 0.238911,61.369 0.905578,61.5357 1.5,62C 0.340085,83.7605 0.173418,105.594 1,127.5C 1.16729,114.154 1.66729,100.821 2.5,87.5C 3.97195,85.384 5.13862,83.0507 6,80.5C 8.00332,82.8007 9.83665,82.8007 11.5,80.5C 13.3255,81.5709 14.4921,80.9042 15,78.5C 15.3988,78.7284 15.5654,79.0618 15.5,79.5C 16.3023,80.8847 16.9689,80.718 17.5,79C 23.0972,62.7814 25.0972,63.948 23.5,82.5C 20.8333,83.1667 18.1667,83.8333 15.5,84.5C 15.178,86.7224 15.8446,88.5557 17.5,90C 21.926,91.6517 26.2593,91.8184 30.5,90.5C 31.7079,89.7659 33.0413,89.4326 34.5,89.5C 37.2762,88.9109 39.6096,87.5776 41.5,85.5C 43.7806,87.5173 46.4473,89.1839 49.5,90.5C 53.8269,88.4327 57.8269,89.266 61.5,93C 64.682,93.4069 67.8486,93.9069 71,94.5C 74.6321,92.8713 77.9654,93.2046 81,95.5C 82.2022,93.3225 82.7022,90.9892 82.5,88.5C 86.7481,89.1004 87.9148,87.767 86,84.5C 85.6667,84.8333 85.3333,85.1667 85,85.5C 83.9645,79.7268 82.1311,74.2268 79.5,69C 81.4302,67.0713 83.0969,64.9046 84.5,62.5C 89.1754,61.7229 93.842,61.0563 98.5,60.5 Z"/></g>
<g><path style="opacity:1" fill="#8e623c" d="M 23.5,82.5 C 24.1667,82.5 24.8333,82.5 25.5,82.5C 25.2606,84.4672 25.5939,86.3005 26.5,88C 25.552,88.4828 24.552,88.6495 23.5,88.5C 23.395,82.6086 22.395,82.2752 20.5,87.5C 23.3094,90.0384 26.6427,91.0384 30.5,90.5C 26.2593,91.8184 21.926,91.6517 17.5,90C 15.8446,88.5557 15.178,86.7224 15.5,84.5C 18.1667,83.8333 20.8333,83.1667 23.5,82.5 Z"/></g>
<g><path style="opacity:1" fill="#a67544" d="M 73.5,81.5 C 69.0876,81.9022 64.7543,82.7355 60.5,84C 61.1667,84.6667 61.8333,85.3333 62.5,86C 66.4862,86.4988 70.4862,86.6655 74.5,86.5C 74.5,84.8333 74.5,83.1667 74.5,81.5C 77.5448,81.5079 80.5448,81.8413 83.5,82.5C 84.07,86.4214 82.4033,88.588 78.5,89C 73.5,89.6667 68.5,89.6667 63.5,89C 59.1231,87.7945 56.7898,84.9612 56.5,80.5C 62.358,80.1778 68.0247,80.5111 73.5,81.5 Z"/></g>
<g><path style="opacity:1" fill="#f1b871" d="M 73.5,81.5 C 73.8333,81.5 74.1667,81.5 74.5,81.5C 74.5,83.1667 74.5,84.8333 74.5,86.5C 70.4862,86.6655 66.4862,86.4988 62.5,86C 61.8333,85.3333 61.1667,84.6667 60.5,84C 64.7543,82.7355 69.0876,81.9022 73.5,81.5 Z"/></g>
<g><path style="opacity:1" fill="#8d5e35" d="M 41.5,80.5 C 42.494,81.9989 42.494,83.6656 41.5,85.5C 39.6096,87.5776 37.2762,88.9109 34.5,89.5C 32.7078,88.6909 30.7078,88.1909 28.5,88C 32.3756,87.1189 36.0423,85.7855 39.5,84C 34.882,83.006 30.2153,82.506 25.5,82.5C 25.5,82.1667 25.5,81.8333 25.5,81.5C 26.5,81.5 27.5,81.5 28.5,81.5C 32.7685,80.6274 37.1018,80.2941 41.5,80.5 Z"/></g>
<g><path style="opacity:1" fill="#173559" d="M 28.5,81.5 C 27.5,81.5 26.5,81.5 25.5,81.5C 24.1862,75.8949 24.5195,70.2282 26.5,64.5C 31.594,68.2583 35.594,72.925 38.5,78.5C 36.2351,79.6474 33.9018,79.8141 31.5,79C 30.7454,76.8252 29.912,74.6585 29,72.5C 29.3642,75.5722 29.1975,78.5722 28.5,81.5 Z"/></g>
<g><path style="opacity:1" fill="#dea967" d="M 25.5,82.5 C 30.2153,82.506 34.882,83.006 39.5,84C 36.0423,85.7855 32.3756,87.1189 28.5,88C 30.7078,88.1909 32.7078,88.6909 34.5,89.5C 33.0413,89.4326 31.7079,89.7659 30.5,90.5C 26.6427,91.0384 23.3094,90.0384 20.5,87.5C 22.395,82.2752 23.395,82.6086 23.5,88.5C 24.552,88.6495 25.552,88.4828 26.5,88C 25.5939,86.3005 25.2606,84.4672 25.5,82.5 Z"/></g>
<g><path style="opacity:1" fill="#aaaec1" d="M 44.5,99.5 C 46.337,99.6395 46.6704,100.306 45.5,101.5C 44.7025,101.043 44.3691,100.376 44.5,99.5 Z"/></g>
<g><path style="opacity:1" fill="#dde1e5" d="M 55.5,100.5 C 56.5,100.5 57.5,100.5 58.5,100.5C 57.7542,104.31 56.7542,104.31 55.5,100.5 Z"/></g>
<g><path style="opacity:1" fill="#0d3f64" d="M 54.5,138.5 C 54.56,139.043 54.8933,139.376 55.5,139.5C 56.1735,137.311 57.1735,135.311 58.5,133.5C 58.3764,132.893 58.0431,132.56 57.5,132.5C 59.2761,128.186 62.6094,126.52 67.5,127.5C 67.6816,129.591 67.3482,131.591 66.5,133.5C 67.8333,134.5 69.1667,135.5 70.5,136.5C 70.5089,133.842 70.5089,131.176 70.5,128.5C 71.3279,127.585 72.3279,126.919 73.5,126.5C 77.9787,128.553 78.6454,131.553 75.5,135.5C 76,135.833 76.5,136.167 77,136.5C 79.0712,135.213 81.2379,134.047 83.5,133C 80.5744,132.313 79.2411,130.48 79.5,127.5C 82.1667,127.5 84.8333,127.5 87.5,127.5C 87.5,128.833 87.5,130.167 87.5,131.5C 90.0644,129.958 92.5644,128.958 95,128.5C 97.2088,131.789 98.0421,135.456 97.5,139.5C 97.3893,140.117 97.056,140.617 96.5,141C 99.8317,145.459 99.1651,148.959 94.5,151.5C 63.9264,151.171 33.4264,151.504 3,152.5C 1.92286,150.884 1.42286,149.051 1.5,147C 2.14512,140.178 2.64512,133.345 3,126.5C 3.82511,130.177 5.65845,133.177 8.5,135.5C 9.89695,131.676 9.56362,128.009 7.5,124.5C 10.7651,120.352 13.5984,120.685 16,125.5C 18.518,123.972 20.6847,124.306 22.5,126.5C 18.3969,133.997 20.3969,136.83 28.5,135C 29.2489,136.734 29.7489,138.567 30,140.5C 30.7504,141.126 31.5838,141.626 32.5,142C 36.4589,142.279 40.2923,143.113 44,144.5C 47.9014,143.076 51.4014,141.076 54.5,138.5 Z"/></g>
<g><path style="opacity:1" fill="#c7a06b" d="M 46.5,128.5 C 48.1765,129.183 48.8432,130.517 48.5,132.5C 52.2253,132.78 53.392,134.78 52,138.5C 50.3005,139.406 48.4672,139.739 46.5,139.5C 46.5,135.833 46.5,132.167 46.5,128.5 Z"/></g>
<g><path style="opacity:1" fill="#eab86f" d="M 34.5,130.5 C 35.2506,129.427 36.2506,129.26 37.5,130C 36.5562,132.719 36.2229,135.552 36.5,138.5C 38.1092,138.094 39.4425,138.094 40.5,138.5C 38.5787,139.641 36.5787,139.808 34.5,139C 35.8166,136.063 35.8166,133.23 34.5,130.5 Z"/></g>
<g><path style="opacity:1" fill="#f2b76f" d="M 42.5,132.5 C 43.2161,134.556 43.8828,136.723 44.5,139C 44.1667,139.167 43.8333,139.333 43.5,139.5C 42.5258,137.257 42.1924,134.924 42.5,132.5 Z"/></g>
<g><path style="opacity:1" fill="#343d65" d="M 48.5,133.5 C 51.3892,133.999 52.0558,135.499 50.5,138C 49.552,138.483 48.552,138.649 47.5,138.5C 47.366,136.708 47.6993,135.042 48.5,133.5 Z"/></g>
<g><path style="opacity:1" fill="#8d766c" d="M 63.5,135.5 C 63.5,136.833 63.5,138.167 63.5,139.5C 61.6536,139.778 60.3202,139.111 59.5,137.5C 60.3202,135.889 61.6536,135.222 63.5,135.5 Z"/></g>
<g><path style="opacity:1" fill="#bd9670" d="M 57.5,132.5 C 58.0431,132.56 58.3764,132.893 58.5,133.5C 57.1735,135.311 56.1735,137.311 55.5,139.5C 54.8933,139.376 54.56,139.043 54.5,138.5C 54.5,136.5 54.5,134.5 54.5,132.5C 55.5,132.5 56.5,132.5 57.5,132.5 Z"/></g>
<g><path style="opacity:1" fill="#e1b071" d="M 63.5,139.5 C 63.5,138.167 63.5,136.833 63.5,135.5C 62.9423,134.21 61.9423,133.377 60.5,133C 61.7932,132.51 63.1266,132.343 64.5,132.5C 64.2436,134.792 64.5769,136.959 65.5,139C 64.9056,139.464 64.2389,139.631 63.5,139.5 Z"/></g>
</svg>
