<?xml version="1.0" encoding="UTF-8"?>
<!DOCTYPE svg PUBLIC "-//W3C//DTD SVG 1.1//EN" "http://www.w3.org/Graphics/SVG/1.1/DTD/svg11.dtd">
<svg xmlns="http://www.w3.org/2000/svg" version="1.1" width="102px" height="154px" style="shape-rendering:geometricPrecision; text-rendering:geometricPrecision; image-rendering:optimizeQuality; fill-rule:evenodd; clip-rule:evenodd" xmlns:xlink="http://www.w3.org/1999/xlink">
<g><path style="opacity:1" fill="#152d50" d="M -0.5,-0.5 C 33.5,-0.5 67.5,-0.5 101.5,-0.5C 101.5,50.8333 101.5,102.167 101.5,153.5C 99.1667,153.5 96.8333,153.5 94.5,153.5C 96.168,151.66 97.668,149.66 99,147.5C 100.324,137.884 100.824,128.217 100.5,118.5C 100.667,93.8311 100.5,69.1644 100,44.5C 99.1026,41.5101 98.2692,38.5101 97.5,35.5C 94.1637,34.7604 90.8304,34.0938 87.5,33.5C 86.8333,33.8333 86.1667,34.1667 85.5,34.5C 85.4047,29.4313 83.0714,26.098 78.5,24.5C 78.5,25.5 78.5,26.5 78.5,27.5C 79.5,27.5 80.5,27.5 81.5,27.5C 81.6621,29.5273 81.4955,31.5273 81,33.5C 80.5172,32.552 80.3505,31.552 80.5,30.5C 78.6693,31.0522 77.0026,31.0522 75.5,30.5C 74.52,33.0865 74.1866,35.7531 74.5,38.5C 70.1667,36.8333 68.8333,38.1667 70.5,42.5C 71.675,42.281 72.675,42.6143 73.5,43.5C 72.3707,45.5294 72.8707,45.8627 75,44.5C 76.7275,47.6179 77.5608,50.9513 77.5,54.5C 76.2641,52.3893 74.7641,50.3893 73,48.5C 71,49.1667 69.6667,50.5 69,52.5C 68.1785,49.8832 67.6785,47.2165 67.5,44.5C 68.6782,37.3466 65.6782,34.0133 58.5,34.5C 61.3788,36.6809 62.0454,39.3476 60.5,42.5C 58.6954,43.2371 57.0287,44.2371 55.5,45.5C 59.5568,48.7503 58.8902,50.7503 53.5,51.5C 53.6427,53.2624 53.3094,54.9291 52.5,56.5C 50.784,56.9972 49.1173,57.3306 47.5,57.5C 48.5594,58.6964 49.8927,59.363 51.5,59.5C 56.7868,57.7891 62.1201,56.6224 67.5,56C 68.9436,57.126 69.6102,58.626 69.5,60.5C 69.2814,62.6931 68.6148,64.6931 67.5,66.5C 66.1667,67.9335 64.6667,69.2668 63,70.5C 62.6666,68.9532 63.1666,67.6199 64.5,66.5C 63.9017,65.2054 63.4017,63.8721 63,62.5C 61.4543,64.699 59.9543,66.8657 58.5,69C 60.6186,72.8538 59.6186,75.0204 55.5,75.5C 55.9077,78.5993 54.741,80.9326 52,82.5C 51.5172,83.448 51.3505,84.448 51.5,85.5C 50.71,86.6085 50.21,87.9419 50,89.5C 49.6966,87.1116 48.8633,84.9449 47.5,83C 48.2524,82.3292 48.5858,81.4959 48.5,80.5C 48.2882,78.6159 47.2882,77.2826 45.5,76.5C 48.1681,74.505 49.8347,71.8383 50.5,68.5C 52.1667,67.8333 53.8333,67.1667 55.5,66.5C 53.2351,65.3526 50.9018,65.1859 48.5,66C 44.5304,67.1287 40.6971,68.6287 37,70.5C 34.5869,69.6853 33.0869,68.0186 32.5,65.5C 33.6918,62.0979 35.3584,58.9312 37.5,56C 38.3317,55.3123 38.9984,55.479 39.5,56.5C 37.1835,58.5988 37.0168,60.9321 39,63.5C 39.8995,61.4839 41.2328,59.8172 43,58.5C 43.0435,55.5248 42.8769,52.5248 42.5,49.5C 45.5055,51.0263 46.1722,50.1929 44.5,47C 47.0765,43.2664 48.0765,39.0997 47.5,34.5C 43.5863,34.1113 39.9196,34.7779 36.5,36.5C 34.0486,37.8943 31.3819,38.7276 28.5,39C 31.9431,39.2213 32.2764,40.2213 29.5,42C 26.5738,42.2178 23.7405,42.7178 21,43.5C 20.4784,46.496 18.9784,48.8293 16.5,50.5C 16.9186,51.6721 17.5853,52.6721 18.5,53.5C 21.0237,51.8099 23.0237,49.6432 24.5,47C 25.448,46.5172 26.448,46.3505 27.5,46.5C 27.2172,47.2891 26.7172,47.9558 26,48.5C 25.501,52.8206 25.3343,57.1539 25.5,61.5C 25.5,64.8333 25.5,68.1667 25.5,71.5C 24.8826,71.3893 24.3826,71.056 24,70.5C 23.829,65.4671 23.329,60.4671 22.5,55.5C 21.7492,56.376 21.2492,57.376 21,58.5C 18.2401,56.5418 15.2401,54.8752 12,53.5C 9.94596,54.1893 8.94596,55.1893 9,56.5C 7.69981,55.2927 6.19981,54.6261 4.5,54.5C 4.84949,57.0448 4.01616,59.0448 2,60.5C 1.50004,83.1642 1.33337,105.831 1.5,128.5C 1.66602,133.844 1.49935,139.177 1,144.5C 0.617425,145.056 0.117425,145.389 -0.5,145.5C -0.5,96.8333 -0.5,48.1667 -0.5,-0.5 Z"/></g>
<g><path style="opacity:1" fill="#e9eaec" d="M 46.5,8.5 C 48.3325,10.8315 49.6659,13.4982 50.5,16.5C 51.3333,14.5 52.1667,12.5 53,10.5C 53.6543,9.30441 54.1543,9.30441 54.5,10.5C 52.8502,13.3477 53.1836,15.8477 55.5,18C 54.4216,18.6739 53.7549,19.6739 53.5,21C 54.3431,22.9354 54.3431,24.7688 53.5,26.5C 52.2525,23.9399 51.2525,21.2732 50.5,18.5C 49.7267,20.813 49.0601,23.1463 48.5,25.5C 47.6406,26.7742 46.9739,26.6075 46.5,25C 46.5606,19.9244 46.5606,14.4244 46.5,8.5 Z"/></g>
<g><path style="opacity:1" fill="#d7a161" d="M 42.5,49.5 C 41.8826,49.3893 41.3826,49.056 41,48.5C 38.9707,50.8585 36.9707,53.1918 35,55.5C 34.3333,54.5 34.3333,53.5 35,52.5C 36.6851,50.9825 38.1851,49.3159 39.5,47.5C 35.819,49.633 32.319,52.633 29,56.5C 28.6667,56.1667 28.3333,55.8333 28,55.5C 28.1953,57.1261 28.1953,58.7928 28,60.5C 27.3292,61.2524 26.4959,61.5858 25.5,61.5C 25.3343,57.1539 25.501,52.8206 26,48.5C 26.7172,47.9558 27.2172,47.2891 27.5,46.5C 29.9332,44.8778 32.4332,43.2112 35,41.5C 35.2492,42.624 35.7492,43.624 36.5,44.5C 37.6956,44.1543 37.6956,43.6543 36.5,43C 40.6833,43.3356 41.0166,42.5023 37.5,40.5C 36.5713,39.3112 36.238,37.9778 36.5,36.5C 39.9196,34.7779 43.5863,34.1113 47.5,34.5C 48.0765,39.0997 47.0765,43.2664 44.5,47C 46.1722,50.1929 45.5055,51.0263 42.5,49.5 Z"/></g>
<g><path style="opacity:1" fill="#b2804a" d="M 36.5,36.5 C 36.238,37.9778 36.5713,39.3112 37.5,40.5C 41.0166,42.5023 40.6833,43.3356 36.5,43C 37.6956,43.6543 37.6956,44.1543 36.5,44.5C 35.7492,43.624 35.2492,42.624 35,41.5C 32.4332,43.2112 29.9332,44.8778 27.5,46.5C 26.448,46.3505 25.448,46.5172 24.5,47C 23.0237,49.6432 21.0237,51.8099 18.5,53.5C 17.5853,52.6721 16.9186,51.6721 16.5,50.5C 18.9784,48.8293 20.4784,46.496 21,43.5C 23.7405,42.7178 26.5738,42.2178 29.5,42C 32.2764,40.2213 31.9431,39.2213 28.5,39C 31.3819,38.7276 34.0486,37.8943 36.5,36.5 Z"/></g>
<g><path style="opacity:1" fill="#d9a362" d="M 67.5,44.5 C 66.8485,45.0906 66.1818,45.7573 65.5,46.5C 64.6667,45.5 63.8333,44.5 63,43.5C 63.316,47.9142 61.816,48.4142 58.5,45C 59.756,44.5831 60.4226,43.7498 60.5,42.5C 62.0454,39.3476 61.3788,36.6809 58.5,34.5C 65.6782,34.0133 68.6782,37.3466 67.5,44.5 Z"/></g>
<g><path style="opacity:1" fill="#133559" d="M 100.5,118.5 C 99.793,112.964 99.1263,107.298 98.5,101.5C 94.6597,99.0791 90.6597,96.9125 86.5,95C 85.8742,94.2496 85.3742,93.4162 85,92.5C 80.0227,95.7 74.8561,98.5333 69.5,101C 66.8333,101.667 64.1667,101.667 61.5,101C 58.5002,98.997 55.1669,98.1636 51.5,98.5C 51.5,99.8333 51.5,101.167 51.5,102.5C 53.2259,102.185 54.8925,102.019 56.5,102C 54.7922,103.062 54.1255,104.229 54.5,105.5C 53.7425,104.189 52.7425,103.689 51.5,104C 51.8333,104.333 52.1667,104.667 52.5,105C 51.6433,105.689 50.9767,106.522 50.5,107.5C 52.8222,106.208 55.1555,106.208 57.5,107.5C 57.2907,108.086 56.9574,108.586 56.5,109C 54.236,109.236 52.0693,109.736 50,110.5C 49.2195,111.944 49.3861,113.277 50.5,114.5C 51.2508,113.624 51.7508,112.624 52,111.5C 52.8077,113.579 52.641,115.579 51.5,117.5C 48.6944,114.051 47.3611,110.051 47.5,105.5C 46.1667,105.5 44.8333,105.5 43.5,105.5C 43.6646,102.482 43.498,99.4816 43,96.5C 42.6667,96.8333 42.3333,97.1667 42,97.5C 40.103,95.9837 37.9363,95.317 35.5,95.5C 35.5,98.8333 35.5,102.167 35.5,105.5C 30.8333,105.5 26.1667,105.5 21.5,105.5C 21.7989,103.396 21.4656,101.396 20.5,99.5C 19.2801,99.1131 18.6135,98.2798 18.5,97C 19.0788,94.9461 19.4121,92.9461 19.5,91C 14.9842,90.2299 10.6509,89.7299 6.5,89.5C 7.84983,88.0499 9.5165,87.3832 11.5,87.5C 11.6984,85.4247 11.8651,83.4247 12,81.5C 9.95807,81.8179 7.79141,81.9846 5.5,82C 3.17514,83.8219 2.84181,85.9885 4.5,88.5C 3.02946,101.94 2.02946,115.273 1.5,128.5C 1.33337,105.831 1.50004,83.1642 2,60.5C 4.01616,59.0448 4.84949,57.0448 4.5,54.5C 6.19981,54.6261 7.69981,55.2927 9,56.5C 8.94596,55.1893 9.94596,54.1893 12,53.5C 15.2401,54.8752 18.2401,56.5418 21,58.5C 21.2492,57.376 21.7492,56.376 22.5,55.5C 23.329,60.4671 23.829,65.4671 24,70.5C 24.3826,71.056 24.8826,71.3893 25.5,71.5C 26.8308,74.1267 28.6642,76.46 31,78.5C 32.3161,77.0257 33.3161,75.359 34,73.5C 34.3333,73.8333 34.6667,74.1667 35,74.5C 36.0305,78.7727 36.6972,83.106 37,87.5C 39.9844,90.1928 43.4844,91.3595 47.5,91C 43.57,88.7117 42.57,85.5451 44.5,81.5C 45.9587,81.5674 47.2921,81.2341 48.5,80.5C 48.5858,81.4959 48.2524,82.3292 47.5,83C 48.8633,84.9449 49.6966,87.1116 50,89.5C 50.21,87.9419 50.71,86.6085 51.5,85.5C 51.5,87.1667 51.5,88.8333 51.5,90.5C 57.6351,90.6212 63.6351,89.7878 69.5,88C 68.1485,85.875 68.8152,84.7083 71.5,84.5C 73.8006,85.3958 76.1339,85.5625 78.5,85C 79.3802,83.6439 79.7135,82.1439 79.5,80.5C 80.552,80.6495 81.552,80.4828 82.5,80C 86.7827,73.9298 85.4493,72.9298 78.5,77C 77.2744,78.6349 75.941,80.1349 74.5,81.5C 74.1667,81.1667 73.8333,80.8333 73.5,80.5C 75.4504,76.0322 76.4504,71.3655 76.5,66.5C 77.0209,62.5191 77.3542,58.5191 77.5,54.5C 77.5608,50.9513 76.7275,47.6179 75,44.5C 72.8707,45.8627 72.3707,45.5294 73.5,43.5C 72.675,42.6143 71.675,42.281 70.5,42.5C 68.8333,38.1667 70.1667,36.8333 74.5,38.5C 74.1866,35.7531 74.52,33.0865 75.5,30.5C 77.0026,31.0522 78.6693,31.0522 80.5,30.5C 80.3505,31.552 80.5172,32.552 81,33.5C 81.4955,31.5273 81.6621,29.5273 81.5,27.5C 80.5,27.5 79.5,27.5 78.5,27.5C 78.5,26.5 78.5,25.5 78.5,24.5C 83.0714,26.098 85.4047,29.4313 85.5,34.5C 86.1667,34.1667 86.8333,33.8333 87.5,33.5C 90.8304,34.0938 94.1637,34.7604 97.5,35.5C 98.2692,38.5101 99.1026,41.5101 100,44.5C 100.5,69.1644 100.667,93.8311 100.5,118.5 Z"/></g>
<g><path style="opacity:1" fill="#b4824d" d="M 60.5,42.5 C 60.4226,43.7498 59.756,44.5831 58.5,45C 61.816,48.4142 63.316,47.9142 63,43.5C 63.8333,44.5 64.6667,45.5 65.5,46.5C 66.1818,45.7573 66.8485,45.0906 67.5,44.5C 67.6785,47.2165 68.1785,49.8832 69,52.5C 69.6667,50.5 71,49.1667 73,48.5C 74.7641,50.3893 76.2641,52.3893 77.5,54.5C 77.3542,58.5191 77.0209,62.5191 76.5,66.5C 75.5041,66.4142 74.6708,66.7476 74,67.5C 73.8047,69.2072 73.8047,70.8739 74,72.5C 72.9505,71.4829 71.7839,71.3162 70.5,72C 67.354,74.3116 64.354,76.8116 61.5,79.5C 61.1667,79.3333 60.8333,79.1667 60.5,79C 64.5125,74.1334 68.5125,69.9668 72.5,66.5C 72.3333,66.1667 72.1667,65.8333 72,65.5C 70.907,67.3492 69.5737,69.0158 68,70.5C 68.3308,68.9813 68.1641,67.648 67.5,66.5C 68.6148,64.6931 69.2814,62.6931 69.5,60.5C 69.6102,58.626 68.9436,57.126 67.5,56C 62.1201,56.6224 56.7868,57.7891 51.5,59.5C 49.8927,59.363 48.5594,58.6964 47.5,57.5C 49.1173,57.3306 50.784,56.9972 52.5,56.5C 53.3094,54.9291 53.6427,53.2624 53.5,51.5C 58.8902,50.7503 59.5568,48.7503 55.5,45.5C 57.0287,44.2371 58.6954,43.2371 60.5,42.5 Z"/></g>
<g><path style="opacity:1" fill="#bc8851" d="M 42.5,49.5 C 42.8769,52.5248 43.0435,55.5248 43,58.5C 41.2328,59.8172 39.8995,61.4839 39,63.5C 37.0168,60.9321 37.1835,58.5988 39.5,56.5C 38.9984,55.479 38.3317,55.3123 37.5,56C 35.3584,58.9312 33.6918,62.0979 32.5,65.5C 33.0869,68.0186 34.5869,69.6853 37,70.5C 40.6971,68.6287 44.5304,67.1287 48.5,66C 50.9018,65.1859 53.2351,65.3526 55.5,66.5C 53.8333,67.1667 52.1667,67.8333 50.5,68.5C 49.8347,71.8383 48.1681,74.505 45.5,76.5C 47.2882,77.2826 48.2882,78.6159 48.5,80.5C 47.2921,81.2341 45.9587,81.5674 44.5,81.5C 42.57,85.5451 43.57,88.7117 47.5,91C 43.4844,91.3595 39.9844,90.1928 37,87.5C 36.6972,83.106 36.0305,78.7727 35,74.5C 34.6667,74.1667 34.3333,73.8333 34,73.5C 33.3161,75.359 32.3161,77.0257 31,78.5C 28.6642,76.46 26.8308,74.1267 25.5,71.5C 25.5,68.1667 25.5,64.8333 25.5,61.5C 26.4959,61.5858 27.3292,61.2524 28,60.5C 28.1953,58.7928 28.1953,57.1261 28,55.5C 28.3333,55.8333 28.6667,56.1667 29,56.5C 32.319,52.633 35.819,49.633 39.5,47.5C 38.1851,49.3159 36.6851,50.9825 35,52.5C 34.3333,53.5 34.3333,54.5 35,55.5C 36.9707,53.1918 38.9707,50.8585 41,48.5C 41.3826,49.056 41.8826,49.3893 42.5,49.5 Z"/></g>
<g><path style="opacity:1" fill="#ce985c" d="M 67.5,66.5 C 68.1641,67.648 68.3308,68.9813 68,70.5C 69.5737,69.0158 70.907,67.3492 72,65.5C 72.1667,65.8333 72.3333,66.1667 72.5,66.5C 68.5125,69.9668 64.5125,74.1334 60.5,79C 60.8333,79.1667 61.1667,79.3333 61.5,79.5C 64.354,76.8116 67.354,74.3116 70.5,72C 71.7839,71.3162 72.9505,71.4829 74,72.5C 73.8047,70.8739 73.8047,69.2072 74,67.5C 74.6708,66.7476 75.5041,66.4142 76.5,66.5C 76.4504,71.3655 75.4504,76.0322 73.5,80.5C 73.8333,80.8333 74.1667,81.1667 74.5,81.5C 75.941,80.1349 77.2744,78.6349 78.5,77C 85.4493,72.9298 86.7827,73.9298 82.5,80C 81.552,80.4828 80.552,80.6495 79.5,80.5C 79.7135,82.1439 79.3802,83.6439 78.5,85C 76.1339,85.5625 73.8006,85.3958 71.5,84.5C 68.8152,84.7083 68.1485,85.875 69.5,88C 63.6351,89.7878 57.6351,90.6212 51.5,90.5C 51.5,88.8333 51.5,87.1667 51.5,85.5C 51.3505,84.448 51.5172,83.448 52,82.5C 54.741,80.9326 55.9077,78.5993 55.5,75.5C 59.6186,75.0204 60.6186,72.8538 58.5,69C 59.9543,66.8657 61.4543,64.699 63,62.5C 63.4017,63.8721 63.9017,65.2054 64.5,66.5C 63.1666,67.6199 62.6666,68.9532 63,70.5C 64.6667,69.2668 66.1667,67.9335 67.5,66.5 Z"/></g>
<g><path style="opacity:1" fill="#133d62" d="M 100.5,118.5 C 100.824,128.217 100.324,137.884 99,147.5C 97.668,149.66 96.168,151.66 94.5,153.5C 62.8333,153.5 31.1667,153.5 -0.5,153.5C -0.5,150.833 -0.5,148.167 -0.5,145.5C 0.117425,145.389 0.617425,145.056 1,144.5C 1.49935,139.177 1.66602,133.844 1.5,128.5C 2.02946,115.273 3.02946,101.94 4.5,88.5C 2.84181,85.9885 3.17514,83.8219 5.5,82C 7.79141,81.9846 9.95807,81.8179 12,81.5C 11.8651,83.4247 11.6984,85.4247 11.5,87.5C 9.5165,87.3832 7.84983,88.0499 6.5,89.5C 10.6509,89.7299 14.9842,90.2299 19.5,91C 19.4121,92.9461 19.0788,94.9461 18.5,97C 18.6135,98.2798 19.2801,99.1131 20.5,99.5C 21.4656,101.396 21.7989,103.396 21.5,105.5C 26.1667,105.5 30.8333,105.5 35.5,105.5C 35.5,102.167 35.5,98.8333 35.5,95.5C 37.9363,95.317 40.103,95.9837 42,97.5C 42.3333,97.1667 42.6667,96.8333 43,96.5C 43.498,99.4816 43.6646,102.482 43.5,105.5C 44.8333,105.5 46.1667,105.5 47.5,105.5C 47.3611,110.051 48.6944,114.051 51.5,117.5C 52.641,115.579 52.8077,113.579 52,111.5C 51.7508,112.624 51.2508,113.624 50.5,114.5C 49.3861,113.277 49.2195,111.944 50,110.5C 52.0693,109.736 54.236,109.236 56.5,109C 56.9574,108.586 57.2907,108.086 57.5,107.5C 55.1555,106.208 52.8222,106.208 50.5,107.5C 50.9767,106.522 51.6433,105.689 52.5,105C 52.1667,104.667 51.8333,104.333 51.5,104C 52.7425,103.689 53.7425,104.189 54.5,105.5C 54.1255,104.229 54.7922,103.062 56.5,102C 54.8925,102.019 53.2259,102.185 51.5,102.5C 51.5,101.167 51.5,99.8333 51.5,98.5C 55.1669,98.1636 58.5002,98.997 61.5,101C 64.1667,101.667 66.8333,101.667 69.5,101C 74.8561,98.5333 80.0227,95.7 85,92.5C 85.3742,93.4162 85.8742,94.2496 86.5,95C 90.6597,96.9125 94.6597,99.0791 98.5,101.5C 99.1263,107.298 99.793,112.964 100.5,118.5 Z"/></g>
<g><path style="opacity:1" fill="#8991ac" d="M 51.5,122.5 C 55.31,123.754 55.31,124.754 51.5,125.5C 51.5,124.5 51.5,123.5 51.5,122.5 Z"/></g>
<g><path style="opacity:1" fill="#be976b" d="M 40.5,128.5 C 42.337,128.639 42.6704,129.306 41.5,130.5C 40.7025,130.043 40.3691,129.376 40.5,128.5 Z"/></g>
<g><path style="opacity:1" fill="#c09a6c" d="M 32.5,130.5 C 34.2884,129.378 36.2884,129.211 38.5,130C 39.0585,130.725 39.3918,131.558 39.5,132.5C 37.0104,134.811 35.1771,137.144 34,139.5C 33.5,139.333 33,139.167 32.5,139C 33.8166,136.063 33.8166,133.23 32.5,130.5 Z"/></g>
<g><path style="opacity:1" fill="#263662" d="M 34.5,130.5 C 36.9118,130.694 37.9118,132.027 37.5,134.5C 36.5,134.5 35.5,134.5 34.5,134.5C 34.5,133.167 34.5,131.833 34.5,130.5 Z"/></g>
<g><path style="opacity:1" fill="#c6a06d" d="M 45.5,132.5 C 46.9778,132.238 48.3112,132.571 49.5,133.5C 48.6034,133.669 47.6034,134.002 46.5,134.5C 48.9803,135.415 49.6469,136.915 48.5,139C 47.0563,139.781 45.723,139.614 44.5,138.5C 45.3966,138.331 46.3966,137.998 47.5,137.5C 44.8068,136.468 44.1402,134.802 45.5,132.5 Z"/></g>
<g><path style="opacity:1" fill="#c5a06c" d="M 52.5,133.5 C 53.7082,132.218 55.0416,132.218 56.5,133.5C 55.3002,134.292 53.9669,134.292 52.5,133.5 Z"/></g>
<g><path style="opacity:1" fill="#e9b070" d="M 41.5,132.5 C 42.7969,134.693 42.7969,137.027 41.5,139.5C 41.2947,137.448 41.2947,135.114 41.5,132.5 Z"/></g>
<g><path style="opacity:1" fill="#d2a96d" d="M 64.5,133.5 C 66.1477,134.81 67.8144,136.143 69.5,137.5C 68.2138,139.571 66.5471,139.904 64.5,138.5C 65.2624,138.089 66.2624,137.923 67.5,138C 65.8588,136.871 64.8588,135.371 64.5,133.5 Z"/></g>
<g><path style="opacity:1" fill="#c8a36d" d="M 52.5,133.5 C 52.5,135.167 52.5,136.833 52.5,138.5C 53.552,138.351 54.552,138.517 55.5,139C 52.7753,139.803 51.1086,138.803 50.5,136C 50.6387,134.699 51.3054,133.866 52.5,133.5 Z"/></g>
<g><path style="opacity:1" fill="#d1a76d" d="M 58.5,132.5 C 59.8333,132.5 61.1667,132.5 62.5,132.5C 62.6713,135.797 62.0046,136.131 60.5,133.5C 57.8333,135.167 57.8333,136.833 60.5,138.5C 61.086,138.291 61.586,137.957 62,137.5C 62.4317,138.6 61.9317,139.267 60.5,139.5C 57.3371,138.075 56.6704,135.742 58.5,132.5 Z"/></g>
</svg>
