<?xml version="1.0" encoding="UTF-8"?>
<!DOCTYPE svg PUBLIC "-//W3C//DTD SVG 1.1//EN" "http://www.w3.org/Graphics/SVG/1.1/DTD/svg11.dtd">
<svg xmlns="http://www.w3.org/2000/svg" version="1.1" width="102px" height="155px" style="shape-rendering:geometricPrecision; text-rendering:geometricPrecision; image-rendering:optimizeQuality; fill-rule:evenodd; clip-rule:evenodd" xmlns:xlink="http://www.w3.org/1999/xlink">
<g><path style="opacity:1" fill="#132e51" d="M -0.5,-0.5 C 33.5,-0.5 67.5,-0.5 101.5,-0.5C 101.5,51.1667 101.5,102.833 101.5,154.5C 67.5,154.5 33.5,154.5 -0.5,154.5C -0.5,102.833 -0.5,51.1667 -0.5,-0.5 Z"/></g>
<g><path style="opacity:1" fill="#e0e2e6" d="M 55.5,10.5 C 57.8475,12.0301 58.0141,14.0301 56,16.5C 55.6667,15.8333 55.3333,15.1667 55,14.5C 51.8398,16.7285 50.0065,19.3952 49.5,22.5C 48.914,22.2907 48.414,21.9574 48,21.5C 41.8333,26.6667 41.3333,26.1667 46.5,20C 46.0426,19.586 45.7093,19.086 45.5,18.5C 46.7161,17.9041 48.0494,17.7374 49.5,18C 50.6667,16.8333 51.8333,15.6667 53,14.5C 53.6172,13.5509 53.4506,12.7175 52.5,12C 53.7375,11.7679 54.7375,11.2679 55.5,10.5 Z"/></g>
<g><path style="opacity:1" fill="#b47f44" d="M 30.5,43.5 C 29.0821,45.3079 27.0821,45.9746 24.5,45.5C 23.2563,43.5988 21.7563,41.9322 20,40.5C 18.1886,41.4235 18.3553,42.2569 20.5,43C 19.7471,44.487 18.9138,44.6537 18,43.5C 16.8353,40.1861 18.0019,38.1861 21.5,37.5C 23.6374,38.7381 24.9707,40.5714 25.5,43C 27.1341,43.4935 28.8008,43.6602 30.5,43.5 Z"/></g>
<g><path style="opacity:1" fill="#ba874c" d="M 46.5,40.5 C 49.1251,41.4405 49.1251,42.6072 46.5,44C 41.3158,44.8163 36.3158,44.6497 31.5,43.5C 36.1835,41.5486 41.1835,40.5486 46.5,40.5 Z"/></g>
<g><path style="opacity:1" fill="#704829" d="M 46.5,40.5 C 48.1992,40.3398 49.8659,40.5065 51.5,41C 52.2524,41.6708 52.5858,42.5041 52.5,43.5C 50.1985,42.1402 48.5318,42.8068 47.5,45.5C 48.7878,47.7388 49.7878,50.0721 50.5,52.5C 48.6944,50.9106 47.3611,48.9106 46.5,46.5C 39.0056,45.8415 31.6722,45.5081 24.5,45.5C 27.0821,45.9746 29.0821,45.3079 30.5,43.5C 30.8333,43.5 31.1667,43.5 31.5,43.5C 36.3158,44.6497 41.3158,44.8163 46.5,44C 49.1251,42.6072 49.1251,41.4405 46.5,40.5 Z"/></g>
<g><path style="opacity:1" fill="#113459" d="M 32.5,83.5 C 32.4326,84.9587 32.7659,86.2921 33.5,87.5C 30.592,88.5691 27.592,88.7358 24.5,88C 23.6634,86.9887 23.33,85.8221 23.5,84.5C 21.857,84.4802 20.5237,85.1468 19.5,86.5C 18.6922,84.5767 18.1922,82.5767 18,80.5C 16.9148,79.7069 15.7481,79.0402 14.5,78.5C 11.6724,80.6326 8.50569,81.966 5,82.5C 3.39366,97.2328 2.22699,112.233 1.5,127.5C 0.834131,123.012 0.500797,118.346 0.5,113.5C 1.11104,94.8365 1.61104,76.1698 2,57.5C 2.75044,56.8742 3.58377,56.3742 4.5,56C 3.35315,54.0964 3.85315,52.5964 6,51.5C 7.39433,52.6133 8.561,53.9466 9.5,55.5C 13.8737,58.8785 16.3737,57.8785 17,52.5C 17.2492,53.624 17.7492,54.624 18.5,55.5C 18.8333,55.1667 19.1667,54.8333 19.5,54.5C 18.4557,52.2324 18.289,49.8991 19,47.5C 19.3333,47.8333 19.6667,48.1667 20,48.5C 23.7045,60.4548 27.8712,72.1214 32.5,83.5 Z"/></g>
<g><path style="opacity:1" fill="#133459" d="M 75.5,77.5 C 74.448,77.3505 73.448,77.5172 72.5,78C 73.8333,78.6667 73.8333,79.3333 72.5,80C 60.8502,82.3067 49.1836,84.4734 37.5,86.5C 39.5227,80.737 41.856,75.0703 44.5,69.5C 47.5023,66.8388 49.5023,63.5055 50.5,59.5C 51.8267,58.1999 53.16,56.8665 54.5,55.5C 58.3087,57.0929 62.3087,57.9262 66.5,58C 68.7213,62.6607 70.5546,67.4941 72,72.5C 72.9973,74.3231 74.1639,75.9897 75.5,77.5 Z"/></g>
<g><path style="opacity:1" fill="#9f6e3d" d="M 80.5,74.5 C 81.4959,74.4142 82.3292,74.7476 83,75.5C 84.5685,79.9174 83.0685,81.9174 78.5,81.5C 78.7058,79.4508 79.5391,79.1175 81,80.5C 81.5,80 82,79.5 82.5,79C 80.4062,77.6485 78.0728,77.1485 75.5,77.5C 74.1639,75.9897 72.9973,74.3231 72,72.5C 70.5546,67.4941 68.7213,62.6607 66.5,58C 62.3087,57.9262 58.3087,57.0929 54.5,55.5C 53.16,56.8665 51.8267,58.1999 50.5,59.5C 50.7512,57.8297 51.4178,56.3297 52.5,55C 51.6195,54.2917 50.9528,53.4584 50.5,52.5C 49.7878,50.0721 48.7878,47.7388 47.5,45.5C 48.5318,42.8068 50.1985,42.1402 52.5,43.5C 55.8875,50.0577 58.0541,49.3911 59,41.5C 62.6381,37.5409 64.1381,38.5409 63.5,44.5C 62.448,44.3505 61.448,44.5172 60.5,45C 59.7433,46.5122 58.7433,47.8455 57.5,49C 58.8928,50.3631 60.5595,51.1964 62.5,51.5C 64.4104,50.4519 66.2438,50.4519 68,51.5C 71.8514,58.3861 74.518,65.7194 76,73.5C 77.3561,74.3802 78.8561,74.7135 80.5,74.5 Z"/></g>
<g><path style="opacity:1" fill="#805325" d="M 50.5,59.5 C 49.5023,63.5055 47.5023,66.8388 44.5,69.5C 45.4977,65.4945 47.4977,62.1612 50.5,59.5 Z"/></g>
<g><path style="opacity:1" fill="#936439" d="M 44.5,69.5 C 41.856,75.0703 39.5227,80.737 37.5,86.5C 36.8333,86.5 36.5,86.8333 36.5,87.5C 35.5,87.5 34.5,87.5 33.5,87.5C 32.7659,86.2921 32.4326,84.9587 32.5,83.5C 36.8744,79.1278 40.8744,74.4611 44.5,69.5 Z"/></g>
<g><path style="opacity:1" fill="#12365b" d="M 99.5,125.5 C 98.5953,115.667 97.9286,105.667 97.5,95.5C 95.0194,95.6766 93.1861,94.6766 92,92.5C 88.0705,94.033 86.4038,92.6997 87,88.5C 88.5843,87.1387 90.4176,86.472 92.5,86.5C 92.6621,84.4727 92.4955,82.4727 92,80.5C 90.9887,79.6634 89.8221,79.33 88.5,79.5C 87.9196,75.8581 87.4196,72.1914 87,68.5C 82.9329,67.0705 81.7662,68.4039 83.5,72.5C 86.2012,72.976 86.7012,73.976 85,75.5C 84.6667,79.1667 84.3333,82.8333 84,86.5C 83.5,87 83,87.5 82.5,88C 83.4061,89.6995 83.7394,91.5328 83.5,93.5C 78.5,93.5 73.5,93.5 68.5,93.5C 68.5,96.1667 68.5,98.8333 68.5,101.5C 64.8979,101.75 61.5646,102.75 58.5,104.5C 57.8333,103.833 57.1667,103.167 56.5,102.5C 55.8933,102.624 55.56,102.957 55.5,103.5C 55.1667,103.5 54.8333,103.5 54.5,103.5C 54.0113,102.005 53.3446,100.671 52.5,99.5C 51.5,96.8333 50.5,96.8333 49.5,99.5C 49.4142,100.496 49.7476,101.329 50.5,102C 49.8742,102.75 49.3742,103.584 49,104.5C 47.3076,102.641 45.8076,100.641 44.5,98.5C 43.7769,100.164 44.1103,101.831 45.5,103.5C 43.784,103.997 42.1173,104.331 40.5,104.5C 41.376,105.251 42.376,105.751 43.5,106C 42.944,106.383 42.6107,106.883 42.5,107.5C 41.7784,107.918 41.2784,108.584 41,109.5C 39.9635,106.298 37.7968,104.298 34.5,103.5C 33.5052,98.2079 33.1718,92.8746 33.5,87.5C 34.5,87.5 35.5,87.5 36.5,87.5C 50.5533,85.8895 64.5533,83.8895 78.5,81.5C 83.0685,81.9174 84.5685,79.9174 83,75.5C 82.3292,74.7476 81.4959,74.4142 80.5,74.5C 74.9171,70.2354 75.7504,67.5688 83,66.5C 83.49,65.2068 83.6567,63.8734 83.5,62.5C 85.1992,62.6602 86.8659,62.4935 88.5,62C 86.2893,60.2794 84.2893,58.2794 82.5,56C 78.789,55.8253 75.1224,55.3253 71.5,54.5C 73.3845,53.8027 73.7178,52.8027 72.5,51.5C 72.8457,50.3044 73.3457,50.3044 74,51.5C 74.6667,48.8333 74.6667,46.1667 74,43.5C 72.9887,42.6634 71.8221,42.33 70.5,42.5C 70.5,41.5 70.5,40.5 70.5,39.5C 74.3869,40.8512 78.3869,41.8512 82.5,42.5C 82.5,43.5 82.5,44.5 82.5,45.5C 77.6687,45.1621 76.3354,47.1621 78.5,51.5C 79.8333,51.5 81.1667,51.5 82.5,51.5C 82.5,50.5 82.5,49.5 82.5,48.5C 87.5,48.5 92.5,48.5 97.5,48.5C 97.281,47.325 97.6143,46.325 98.5,45.5C 99.4998,72.1583 99.8331,98.825 99.5,125.5 Z"/></g>
<g><path style="opacity:1" fill="#33354d" d="M 75.5,77.5 C 78.0728,77.1485 80.4062,77.6485 82.5,79C 82,79.5 81.5,80 81,80.5C 79.5391,79.1175 78.7058,79.4508 78.5,81.5C 64.5533,83.8895 50.5533,85.8895 36.5,87.5C 36.5,86.8333 36.8333,86.5 37.5,86.5C 49.1836,84.4734 60.8502,82.3067 72.5,80C 73.8333,79.3333 73.8333,78.6667 72.5,78C 73.448,77.5172 74.448,77.3505 75.5,77.5 Z"/></g>
<g><path style="opacity:1" fill="#143c62" d="M 99.5,125.5 C 99.6664,133.174 99.4997,140.841 99,148.5C 97.3651,149.726 95.8651,151.059 94.5,152.5C 65.5057,153.667 36.5057,153.833 7.5,153C 6.09531,151.731 4.42865,151.231 2.5,151.5C 2.43236,143.486 2.09903,135.486 1.5,127.5C 2.22699,112.233 3.39366,97.2328 5,82.5C 8.50569,81.966 11.6724,80.6326 14.5,78.5C 15.7481,79.0402 16.9148,79.7069 18,80.5C 18.1922,82.5767 18.6922,84.5767 19.5,86.5C 20.5237,85.1468 21.857,84.4802 23.5,84.5C 23.33,85.8221 23.6634,86.9887 24.5,88C 27.592,88.7358 30.592,88.5691 33.5,87.5C 33.1718,92.8746 33.5052,98.2079 34.5,103.5C 37.7968,104.298 39.9635,106.298 41,109.5C 41.2784,108.584 41.7784,107.918 42.5,107.5C 42.6107,106.883 42.944,106.383 43.5,106C 42.376,105.751 41.376,105.251 40.5,104.5C 42.1173,104.331 43.784,103.997 45.5,103.5C 44.1103,101.831 43.7769,100.164 44.5,98.5C 45.8076,100.641 47.3076,102.641 49,104.5C 49.3742,103.584 49.8742,102.75 50.5,102C 49.7476,101.329 49.4142,100.496 49.5,99.5C 50.5,100.833 51.5,100.833 52.5,99.5C 53.3446,100.671 54.0113,102.005 54.5,103.5C 52.0268,103.947 51.8601,104.947 54,106.5C 55.0386,105.756 55.5386,104.756 55.5,103.5C 55.56,102.957 55.8933,102.624 56.5,102.5C 57.1667,103.167 57.8333,103.833 58.5,104.5C 61.5646,102.75 64.8979,101.75 68.5,101.5C 68.5,98.8333 68.5,96.1667 68.5,93.5C 73.5,93.5 78.5,93.5 83.5,93.5C 83.7394,91.5328 83.4061,89.6995 82.5,88C 83,87.5 83.5,87 84,86.5C 84.3333,82.8333 84.6667,79.1667 85,75.5C 86.7012,73.976 86.2012,72.976 83.5,72.5C 81.7662,68.4039 82.9329,67.0705 87,68.5C 87.4196,72.1914 87.9196,75.8581 88.5,79.5C 89.8221,79.33 90.9887,79.6634 92,80.5C 92.4955,82.4727 92.6621,84.4727 92.5,86.5C 90.4176,86.472 88.5843,87.1387 87,88.5C 86.4038,92.6997 88.0705,94.033 92,92.5C 93.1861,94.6766 95.0194,95.6766 97.5,95.5C 97.9286,105.667 98.5953,115.667 99.5,125.5 Z"/></g>
<g><path style="opacity:1" fill="#d9d6de" d="M 52.5,99.5 C 51.5,100.833 50.5,100.833 49.5,99.5C 50.5,96.8333 51.5,96.8333 52.5,99.5 Z"/></g>
<g><path style="opacity:1" fill="#e0e2e7" d="M 54.5,103.5 C 54.8333,103.5 55.1667,103.5 55.5,103.5C 55.5386,104.756 55.0386,105.756 54,106.5C 51.8601,104.947 52.0268,103.947 54.5,103.5 Z"/></g>
<g><path style="opacity:1" fill="#f4f7f5" d="M 42.5,107.5 C 44.337,107.639 44.6704,108.306 43.5,109.5C 42.7025,109.043 42.3691,108.376 42.5,107.5 Z"/></g>
<g><path style="opacity:1" fill="#d8dce3" d="M 62.5,115.5 C 64.4646,115.948 64.7979,116.948 63.5,118.5C 62.6143,117.675 62.281,116.675 62.5,115.5 Z"/></g>
<g><path style="opacity:1" fill="#c59d71" d="M 67.5,128.5 C 69.337,128.639 69.6704,129.306 68.5,130.5C 67.7025,130.043 67.3691,129.376 67.5,128.5 Z"/></g>
<g><path style="opacity:1" fill="#e0b270" d="M 44.5,131.5 C 48.012,132.13 48.3453,133.63 45.5,136C 45.7549,137.326 46.4216,138.326 47.5,139C 46.552,139.483 45.552,139.649 44.5,139.5C 44.2077,136.624 44.2077,133.957 44.5,131.5 Z"/></g>
<g><path style="opacity:1" fill="#d8ac6f" d="M 49.5,131.5 C 50.4734,131.987 51.4734,132.487 52.5,133C 49.8333,135 49.8333,137 52.5,139C 51.552,139.483 50.552,139.649 49.5,139.5C 49.2077,136.624 49.2077,133.957 49.5,131.5 Z"/></g>
<g><path style="opacity:1" fill="#c1976c" d="M 67.5,132.5 C 68.7251,133.152 69.3917,134.319 69.5,136C 69.1667,137.167 68.8333,138.333 68.5,139.5C 67.5258,137.257 67.1924,134.924 67.5,132.5 Z"/></g>
<g><path style="opacity:1" fill="#c49a6d" d="M 71.5,132.5 C 73.0358,134.025 74.0358,136.025 74.5,138.5C 75.1667,136.5 75.8333,134.5 76.5,132.5C 77.2208,134.686 77.8875,136.853 78.5,139C 72.5062,140.841 70.1729,138.674 71.5,132.5 Z"/></g>
<g><path style="opacity:1" fill="#deb76f" d="M 21.5,138.5 C 20.5738,135.905 18.9071,133.905 16.5,132.5C 17.7118,130.077 19.7118,129.077 22.5,129.5C 22.6495,130.552 22.4828,131.552 22,132.5C 21.2904,131.027 20.1238,130.36 18.5,130.5C 18.6615,132.824 19.8282,134.491 22,135.5C 22.7401,136.749 22.5735,137.749 21.5,138.5 Z"/></g>
<g><path style="opacity:1" fill="#b7936d" d="M 25.5,133.5 C 26.5417,132.209 27.7083,132.209 29,133.5C 29.2511,135.433 29.7511,137.266 30.5,139C 28.6667,138.833 26.8333,138.667 25,138.5C 24.7287,136.193 25.8953,135.026 28.5,135C 27.7562,133.961 26.7562,133.461 25.5,133.5 Z"/></g>
<g><path style="opacity:1" fill="#cfa46d" d="M 21.5,138.5 C 20.0813,139.451 18.4147,139.784 16.5,139.5C 16.3505,138.448 16.5172,137.448 17,136.5C 18.049,138.107 19.549,138.773 21.5,138.5 Z"/></g>
<g><path style="opacity:1" fill="#af8d6d" d="M 32.5,132.5 C 34.1667,132.5 35.8333,132.5 37.5,132.5C 38.2096,135.86 36.8762,137.693 33.5,138C 39.6327,139.067 39.9661,140.9 34.5,143.5C 32.9996,143.547 31.9996,142.881 31.5,141.5C 32.3126,138.625 32.6459,135.625 32.5,132.5 Z"/></g>
<g><path style="opacity:1" fill="#263160" d="M 33.5,133.5 C 36.6741,133.952 37.0075,134.952 34.5,136.5C 33.6143,135.675 33.281,134.675 33.5,133.5 Z"/></g>
<g><path style="opacity:1" fill="#d8af70" d="M 40.5,132.5 C 41.2161,134.556 41.8828,136.723 42.5,139C 41.5,139.667 40.5,139.667 39.5,139C 40.4231,136.959 40.7564,134.792 40.5,132.5 Z"/></g>
<g><path style="opacity:1" fill="#bc9a6e" d="M 54.5,132.5 C 55.8333,132.5 57.1667,132.5 58.5,132.5C 58.2436,134.792 58.5769,136.959 59.5,139C 57.0437,139.946 55.0437,139.446 53.5,137.5C 54.6313,136.396 55.4646,136.729 56,138.5C 57.6324,136.973 57.7991,135.307 56.5,133.5C 55.056,134.981 54.3894,134.648 54.5,132.5 Z"/></g>
<g><path style="opacity:1" fill="#bf9a6f" d="M 61.5,132.5 C 63.288,132.215 64.9547,132.548 66.5,133.5C 65.675,134.386 64.675,134.719 63.5,134.5C 63.2865,136.144 63.6198,137.644 64.5,139C 63.552,139.483 62.552,139.649 61.5,139.5C 61.5,137.167 61.5,134.833 61.5,132.5 Z"/></g>
<g><path style="opacity:1" fill="#b9946d" d="M 81.5,131.5 C 82.9953,131.415 83.9953,132.081 84.5,133.5C 83.6034,133.669 82.6034,134.002 81.5,134.5C 85.362,136.471 85.362,138.137 81.5,139.5C 80.8333,139.167 80.1667,138.833 79.5,138.5C 80.3966,138.331 81.3966,137.998 82.5,137.5C 79.025,135.916 78.6917,133.916 81.5,131.5 Z"/></g>
</svg>
