<?xml version="1.0" encoding="UTF-8"?>
<!DOCTYPE svg PUBLIC "-//W3C//DTD SVG 1.1//EN" "http://www.w3.org/Graphics/SVG/1.1/DTD/svg11.dtd">
<svg xmlns="http://www.w3.org/2000/svg" version="1.1" width="101px" height="155px" style="shape-rendering:geometricPrecision; text-rendering:geometricPrecision; image-rendering:optimizeQuality; fill-rule:evenodd; clip-rule:evenodd" xmlns:xlink="http://www.w3.org/1999/xlink">
<g><path style="opacity:1" fill="#132d50" d="M -0.5,-0.5 C 33.1667,-0.5 66.8333,-0.5 100.5,-0.5C 100.5,51.1667 100.5,102.833 100.5,154.5C 66.8333,154.5 33.1667,154.5 -0.5,154.5C -0.5,102.833 -0.5,51.1667 -0.5,-0.5 Z"/></g>
<g><path style="opacity:1" fill="#d4d6dd" d="M 56.5,25.5 C 55.5041,25.5858 54.6708,25.2524 54,24.5C 53.6667,21.1667 53.3333,17.8333 53,14.5C 51.9887,13.6634 50.8221,13.33 49.5,13.5C 49.1667,26.8333 48.8333,26.8333 48.5,13.5C 47.5,13.5 46.5,13.5 45.5,13.5C 45.8204,16.8984 45.487,20.2317 44.5,23.5C 44.0062,19.2347 43.0062,15.2347 41.5,11.5C 41.7352,10.9033 42.2352,10.5699 43,10.5C 46.4605,11.2181 49.9605,11.7181 53.5,12C 54.297,15.7454 54.797,19.5787 55,23.5C 55.3333,23.8333 55.6667,24.1667 56,24.5C 56.7096,23.0267 57.8762,22.3601 59.5,22.5C 59.5,23.5 59.5,24.5 59.5,25.5C 58.5,25.5 57.5,25.5 56.5,25.5 Z"/></g>
<g><path style="opacity:1" fill="#8e603a" d="M 57.5,34.5 C 58.9187,33.5489 60.5853,33.2155 62.5,33.5C 62.3257,36.763 60.659,38.4296 57.5,38.5C 57.9258,36.8612 57.9258,35.5279 57.5,34.5 Z"/></g>
<g><path style="opacity:1" fill="#dfa762" d="M 62.5,33.5 C 67.6698,34.1643 70.8365,37.1643 72,42.5C 73.2547,43.2106 74.4214,44.044 75.5,45C 72.6999,44.9335 70.3666,43.7668 68.5,41.5C 67.2067,40.8418 65.7067,40.5085 64,40.5C 61.4563,40.336 59.2897,41.0027 57.5,42.5C 56.1667,42.5 54.8333,42.5 53.5,42.5C 53.5,40.8333 53.5,39.1667 53.5,37.5C 53.8333,36.8333 54.1667,36.1667 54.5,35.5C 55.609,35.4431 56.609,35.1098 57.5,34.5C 57.9258,35.5279 57.9258,36.8612 57.5,38.5C 60.659,38.4296 62.3257,36.763 62.5,33.5 Z"/></g>
<g><path style="opacity:1" fill="#825834" d="M 68.5,41.5 C 62.7389,41.7088 62.4055,42.5422 67.5,44C 66.6667,44.1667 65.8333,44.3333 65,44.5C 62.7298,43.1401 60.2298,42.4734 57.5,42.5C 59.2897,41.0027 61.4563,40.336 64,40.5C 65.7067,40.5085 67.2067,40.8418 68.5,41.5 Z"/></g>
<g><path style="opacity:1" fill="#153357" d="M 41.5,11.5 C 43.0062,15.2347 44.0062,19.2347 44.5,23.5C 45.487,20.2317 45.8204,16.8984 45.5,13.5C 46.5,13.5 47.5,13.5 48.5,13.5C 48.8333,26.8333 49.1667,26.8333 49.5,13.5C 50.8221,13.33 51.9887,13.6634 53,14.5C 53.3333,17.8333 53.6667,21.1667 54,24.5C 54.6708,25.2524 55.5041,25.5858 56.5,25.5C 58.0746,27.1137 58.7413,29.1137 58.5,31.5C 54.4828,30.8386 53.1495,32.1719 54.5,35.5C 54.1667,36.1667 53.8333,36.8333 53.5,37.5C 50.1445,44.4752 52.1445,49.4752 59.5,52.5C 58.4093,54.5342 56.7426,55.8676 54.5,56.5C 52.771,55.0473 51.771,53.0473 51.5,50.5C 49.5766,49.3522 47.5766,48.8522 45.5,49C 46.8905,50.02 48.3905,50.8534 50,51.5C 52.1148,54.3541 51.7815,56.6874 49,58.5C 48.4753,52.2899 44.9753,49.4565 38.5,50C 35.2486,46.8292 34.9153,47.1626 37.5,51C 40.3527,52.4301 43.3527,53.2634 46.5,53.5C 46.5,55.8333 46.5,58.1667 46.5,60.5C 45.8333,60.5 45.5,60.8333 45.5,61.5C 43.4305,61.4173 43.0972,60.4173 44.5,58.5C 44.4712,56.9707 43.8045,55.804 42.5,55C 39.0072,54.5329 35.6738,53.8662 32.5,53C 35.3475,55.3836 38.6808,56.5503 42.5,56.5C 43.254,65.027 41.9207,65.527 38.5,58C 34.3889,56.1499 30.3889,54.9832 26.5,54.5C 29.7817,56.8734 33.4483,58.3734 37.5,59C 38.6422,61.4499 39.6422,63.9499 40.5,66.5C 34.2091,70.284 31.3757,75.9506 32,83.5C 26.0066,87.1771 22.1733,85.5105 20.5,78.5C 22.0832,74.3118 23.7499,70.3118 25.5,66.5C 23.5328,66.2606 21.6995,66.5939 20,67.5C 18.8485,72.1262 18.0152,76.7929 17.5,81.5C 15.6921,82.9179 15.0254,84.9179 15.5,87.5C 14.1779,87.67 13.0113,87.3366 12,86.5C 12.0464,84.6874 11.8797,83.0207 11.5,81.5C 6.6029,81.3949 4.6029,83.7283 5.5,88.5C 6.83333,88.5 8.16667,88.5 9.5,88.5C 9.66409,91.1873 9.49742,93.854 9,96.5C 8.33333,95.1667 7.66667,95.1667 7,96.5C 6.66667,97.8333 6.33333,99.1667 6,100.5C 4.21166,98.24 2.71166,95.9066 1.5,93.5C 1.81991,82.9179 1.48657,72.4179 0.5,62C 1.22662,60.6012 1.72662,59.1012 2,57.5C 2.33333,51.1667 2.66667,44.8333 3,38.5C 3.33333,39.1667 3.66667,39.8333 4,40.5C 4.14636,36.4454 4.97969,32.6121 6.5,29C 5.62162,27.1999 4.95496,25.3666 4.5,23.5C 6.12377,23.3601 7.29044,24.0267 8,25.5C 9.04946,24.4829 10.2161,24.3162 11.5,25C 11.6605,29.1317 13.4939,32.2984 17,34.5C 18.4341,34.0696 19.6008,33.2362 20.5,32C 21.7932,31.51 23.1266,31.3433 24.5,31.5C 24.6672,34.9571 25.6672,35.2904 27.5,32.5C 25.8251,27.5493 26.8251,23.2159 30.5,19.5C 29.7517,17.5841 29.7517,15.5841 30.5,13.5C 32.5273,13.3379 34.5273,13.5045 36.5,14C 35.4564,17.3465 35.9564,20.5132 38,23.5C 40.0955,22.2845 39.9288,21.4512 37.5,21C 38.646,20.3551 39.646,19.5217 40.5,18.5C 41.7923,25.0253 42.459,25.0253 42.5,18.5C 42.3295,16.2852 41.6628,14.2852 40.5,12.5C 40.6236,11.8933 40.9569,11.56 41.5,11.5 Z"/></g>
<g><path style="opacity:1" fill="#ba854d" d="M 53.5,37.5 C 53.5,39.1667 53.5,40.8333 53.5,42.5C 54.8333,42.5 56.1667,42.5 57.5,42.5C 55.1646,47.5771 56.8313,50.4105 62.5,51C 63.1667,52.3333 64.1667,53.3333 65.5,54C 64.944,54.3826 64.6107,54.8826 64.5,55.5C 63.5655,56.5676 63.2322,57.901 63.5,59.5C 60.001,59.259 59.6677,60.0924 62.5,62C 57.4088,60.0452 57.4088,57.7119 62.5,55C 61.3094,54.3021 60.3094,53.4687 59.5,52.5C 52.1445,49.4752 50.1445,44.4752 53.5,37.5 Z"/></g>
<g><path style="opacity:1" fill="#efb771" d="M 54.5,56.5 C 55.3764,56.3691 56.0431,56.7025 56.5,57.5C 58.1431,60.4451 59.4764,63.4451 60.5,66.5C 60.1667,66.5 59.8333,66.5 59.5,66.5C 57.8712,65.3747 56.3712,64.0414 55,62.5C 55.7925,60.4995 55.6259,58.4995 54.5,56.5 Z"/></g>
<g><path style="opacity:1" fill="#dba461" d="M 85.5,66.5 C 85.634,68.2915 85.3007,69.9582 84.5,71.5C 82.326,71.0798 80.326,71.0798 78.5,71.5C 77.7691,69.5988 77.7691,67.5988 78.5,65.5C 79.3909,64.7387 80.0576,63.7387 80.5,62.5C 79.2515,59.5063 79.2515,56.5063 80.5,53.5C 81.3142,55.7662 81.8142,58.0995 82,60.5C 83.4213,62.4048 84.588,64.4048 85.5,66.5 Z"/></g>
<g><path style="opacity:1" fill="#a97845" d="M 59.5,52.5 C 60.3094,53.4687 61.3094,54.3021 62.5,55C 57.4088,57.7119 57.4088,60.0452 62.5,62C 59.6677,60.0924 60.001,59.259 63.5,59.5C 63.2322,57.901 63.5655,56.5676 64.5,55.5C 65.7273,57.5805 67.2273,59.5805 69,61.5C 68.686,64.5459 68.8526,67.5459 69.5,70.5C 74.4916,72.1699 76.1583,70.5032 74.5,65.5C 76.9699,60.4493 77.6366,60.4493 76.5,65.5C 76.9698,66.463 77.6365,66.463 78.5,65.5C 77.7691,67.5988 77.7691,69.5988 78.5,71.5C 80.326,71.0798 82.326,71.0798 84.5,71.5C 78.2033,79.4004 72.0366,79.4004 66,71.5C 65.8184,68.7737 65.3184,66.1071 64.5,63.5C 63.1482,64.5244 61.8149,65.5244 60.5,66.5C 59.4764,63.4451 58.1431,60.4451 56.5,57.5C 56.0431,56.7025 55.3764,56.3691 54.5,56.5C 56.7426,55.8676 58.4093,54.5342 59.5,52.5 Z"/></g>
<g><path style="opacity:1" fill="#865b35" d="M 54.5,56.5 C 55.6259,58.4995 55.7925,60.4995 55,62.5C 56.3712,64.0414 57.8712,65.3747 59.5,66.5C 60.6613,69.0738 62.328,71.2404 64.5,73C 61.9528,81.6007 61.1195,81.4341 62,72.5C 60.7365,70.393 58.9032,69.393 56.5,69.5C 56.8039,68.8501 57.1373,68.1835 57.5,67.5C 54.7711,64.9678 52.7711,61.9678 51.5,58.5C 49.3933,63.4652 50.7266,67.1319 55.5,69.5C 57.0671,71.6521 58.7338,73.8188 60.5,76C 58.4226,79.3517 57.7559,82.8517 58.5,86.5C 58.1543,87.6956 57.6543,87.6956 57,86.5C 56.8333,85 56.6667,83.5 56.5,82C 60.4012,75.655 58.7345,72.655 51.5,73C 53.3615,74.0283 54.6948,75.5283 55.5,77.5C 54.0282,80.7174 52.8615,84.0507 52,87.5C 51.8437,83.4452 52.3437,79.4452 53.5,75.5C 51.5165,75.6168 49.8498,74.9501 48.5,73.5C 48.1667,73.8333 47.8333,74.1667 47.5,74.5C 49.4016,76.0632 50.4016,78.0632 50.5,80.5C 49.5754,84.4446 48.9087,88.1113 48.5,91.5C 48.1667,90.3333 47.8333,89.1667 47.5,88C 48.2441,84.803 48.7441,81.6364 49,78.5C 47.2845,75.6026 44.7845,74.2693 41.5,74.5C 42.9488,72.8356 44.9488,72.0023 47.5,72C 46.4954,70.4933 45.162,69.3267 43.5,68.5C 44.4709,67.0379 44.1376,65.7046 42.5,64.5C 41.8182,65.2427 41.1515,65.9094 40.5,66.5C 39.6422,63.9499 38.6422,61.4499 37.5,59C 33.4483,58.3734 29.7817,56.8734 26.5,54.5C 30.3889,54.9832 34.3889,56.1499 38.5,58C 41.9207,65.527 43.254,65.027 42.5,56.5C 38.6808,56.5503 35.3475,55.3836 32.5,53C 35.6738,53.8662 39.0072,54.5329 42.5,55C 43.8045,55.804 44.4712,56.9707 44.5,58.5C 43.0972,60.4173 43.4305,61.4173 45.5,61.5C 46.6259,63.4995 46.7925,65.4995 46,67.5C 47.1667,68.6667 48.3333,69.8333 49.5,71C 50.635,71.7494 51.635,71.5827 52.5,70.5C 50.4741,67.1032 48.4741,63.7699 46.5,60.5C 46.5,58.1667 46.5,55.8333 46.5,53.5C 43.3527,53.2634 40.3527,52.4301 37.5,51C 34.9153,47.1626 35.2486,46.8292 38.5,50C 44.9753,49.4565 48.4753,52.2899 49,58.5C 51.7815,56.6874 52.1148,54.3541 50,51.5C 48.3905,50.8534 46.8905,50.02 45.5,49C 47.5766,48.8522 49.5766,49.3522 51.5,50.5C 51.771,53.0473 52.771,55.0473 54.5,56.5 Z"/></g>
<g><path style="opacity:1" fill="#e9b06e" d="M 56.5,69.5 C 56.1667,69.5 55.8333,69.5 55.5,69.5C 50.7266,67.1319 49.3933,63.4652 51.5,58.5C 52.7711,61.9678 54.7711,64.9678 57.5,67.5C 57.1373,68.1835 56.8039,68.8501 56.5,69.5 Z"/></g>
<g><path style="opacity:1" fill="#e8b06d" d="M 46.5,60.5 C 48.4741,63.7699 50.4741,67.1032 52.5,70.5C 51.635,71.5827 50.635,71.7494 49.5,71C 48.3333,69.8333 47.1667,68.6667 46,67.5C 46.7925,65.4995 46.6259,63.4995 45.5,61.5C 45.5,60.8333 45.8333,60.5 46.5,60.5 Z"/></g>
<g><path style="opacity:1" fill="#b1804a" d="M 41.5,74.5 C 38.1432,76.3762 36.6432,79.3762 37,83.5C 34.646,89.0949 30.4793,90.9282 24.5,89C 21.228,87.2332 18.8947,84.7332 17.5,81.5C 18.0152,76.7929 18.8485,72.1262 20,67.5C 21.6995,66.5939 23.5328,66.2606 25.5,66.5C 23.7499,70.3118 22.0832,74.3118 20.5,78.5C 22.1733,85.5105 26.0066,87.1771 32,83.5C 31.3757,75.9506 34.2091,70.284 40.5,66.5C 41.1515,65.9094 41.8182,65.2427 42.5,64.5C 44.1376,65.7046 44.4709,67.0379 43.5,68.5C 45.162,69.3267 46.4954,70.4933 47.5,72C 44.9488,72.0023 42.9488,72.8356 41.5,74.5 Z"/></g>
<g><path style="opacity:1" fill="#153a5f" d="M 97.5,147.5 C 97.848,140.094 97.348,132.761 96,125.5C 94.53,127.152 92.6967,128.152 90.5,128.5C 88.5,127.5 86.5,126.5 84.5,125.5C 82.5534,126.277 80.7201,127.277 79,128.5C 72.6393,128.187 66.1393,127.853 59.5,127.5C 59.5,129.167 59.5,130.833 59.5,132.5C 58.1667,132.5 56.8333,132.5 55.5,132.5C 55.5,135.833 55.5,139.167 55.5,142.5C 54.8826,142.611 54.3826,142.944 54,143.5C 51.848,142.115 49.5146,141.115 47,140.5C 44.8151,141.758 42.6484,141.758 40.5,140.5C 39.7492,141.376 39.2492,142.376 39,143.5C 38.1667,142.667 37.3333,141.833 36.5,141C 37.4158,140.722 38.0825,140.222 38.5,139.5C 39.0674,138.58 38.4008,138.246 36.5,138.5C 36.2148,136.712 36.5481,135.045 37.5,133.5C 38.3957,134.506 39.0623,134.506 39.5,133.5C 34.8238,132.801 33.4905,134.801 35.5,139.5C 34.209,139.737 33.209,139.404 32.5,138.5C 31.5578,135.58 30.2245,132.914 28.5,130.5C 27.5222,130.811 26.8555,131.478 26.5,132.5C 28.9071,133.905 30.5738,135.905 31.5,138.5C 29.8561,138.714 28.3561,138.38 27,137.5C 26.5357,138.094 26.369,138.761 26.5,139.5C 25.5166,135.702 25.1832,131.702 25.5,127.5C 29.0958,127.153 32.4291,127.82 35.5,129.5C 37.9091,129.085 40.2424,128.418 42.5,127.5C 39.6369,125.247 37.6369,122.414 36.5,119C 34.2199,118.767 32.2199,117.934 30.5,116.5C 29.7568,117.908 28.9234,119.241 28,120.5C 27.2904,119.027 26.1238,118.36 24.5,118.5C 24.6602,120.199 24.4935,121.866 24,123.5C 22.119,122.646 20.2857,122.979 18.5,124.5C 14.2238,121.037 9.55716,120.537 4.5,123C 3.04723,124.649 2.04723,126.482 1.5,128.5C 1.5,116.833 1.5,105.167 1.5,93.5C 2.71166,95.9066 4.21166,98.24 6,100.5C 6.33333,99.1667 6.66667,97.8333 7,96.5C 7.66667,95.1667 8.33333,95.1667 9,96.5C 9.49742,93.854 9.66409,91.1873 9.5,88.5C 8.16667,88.5 6.83333,88.5 5.5,88.5C 4.6029,83.7283 6.6029,81.3949 11.5,81.5C 11.8797,83.0207 12.0464,84.6874 12,86.5C 13.0113,87.3366 14.1779,87.67 15.5,87.5C 15.0254,84.9179 15.6921,82.9179 17.5,81.5C 18.8947,84.7332 21.228,87.2332 24.5,89C 30.4793,90.9282 34.646,89.0949 37,83.5C 36.6432,79.3762 38.1432,76.3762 41.5,74.5C 44.7845,74.2693 47.2845,75.6026 49,78.5C 48.7441,81.6364 48.2441,84.803 47.5,88C 47.8333,89.1667 48.1667,90.3333 48.5,91.5C 48.9087,88.1113 49.5754,84.4446 50.5,80.5C 50.4016,78.0632 49.4016,76.0632 47.5,74.5C 47.8333,74.1667 48.1667,73.8333 48.5,73.5C 49.8498,74.9501 51.5165,75.6168 53.5,75.5C 52.3437,79.4452 51.8437,83.4452 52,87.5C 52.8615,84.0507 54.0282,80.7174 55.5,77.5C 54.6948,75.5283 53.3615,74.0283 51.5,73C 58.7345,72.655 60.4012,75.655 56.5,82C 56.6667,83.5 56.8333,85 57,86.5C 57.6543,87.6956 58.1543,87.6956 58.5,86.5C 57.7559,82.8517 58.4226,79.3517 60.5,76C 58.7338,73.8188 57.0671,71.6521 55.5,69.5C 55.8333,69.5 56.1667,69.5 56.5,69.5C 58.9032,69.393 60.7365,70.393 62,72.5C 61.1195,81.4341 61.9528,81.6007 64.5,73C 62.328,71.2404 60.6613,69.0738 59.5,66.5C 59.8333,66.5 60.1667,66.5 60.5,66.5C 61.8149,65.5244 63.1482,64.5244 64.5,63.5C 65.3184,66.1071 65.8184,68.7737 66,71.5C 72.0366,79.4004 78.2033,79.4004 84.5,71.5C 85.3007,69.9582 85.634,68.2915 85.5,66.5C 86.2216,66.9175 86.7216,67.5842 87,68.5C 86.7821,66.4132 86.9488,64.4132 87.5,62.5C 88.8801,64.1738 90.2134,65.8404 91.5,67.5C 90.6911,68.9856 90.6911,70.3189 91.5,71.5C 93.0101,69.678 94.3434,67.678 95.5,65.5C 96.2508,66.376 96.7508,67.376 97,68.5C 97.7811,61.2959 97.6144,54.1292 96.5,47C 97.7701,43.7321 98.7701,43.8988 99.5,47.5C 97.8623,80.9768 97.1957,114.31 97.5,147.5 Z"/></g>
<g><path style="opacity:1" fill="#d5d4dd" d="M 31.5,104.5 C 35.31,105.754 35.31,106.754 31.5,107.5C 31.5,106.5 31.5,105.5 31.5,104.5 Z"/></g>
<g><path style="opacity:1" fill="#f0f0f1" d="M 55.5,105.5 C 56.5,105.5 57.5,105.5 58.5,105.5C 58.5,106.5 58.5,107.5 58.5,108.5C 55.5065,108.854 54.5065,107.854 55.5,105.5 Z"/></g>
<g><path style="opacity:1" fill="#e8ebec" d="M 66.5,108.5 C 67.8333,108.5 69.1667,108.5 70.5,108.5C 70.5,109.5 70.5,110.5 70.5,111.5C 68.0274,111.912 66.6941,110.912 66.5,108.5 Z"/></g>
<g><path style="opacity:1" fill="#e0e9e9" d="M 46.5,113.5 C 48.337,113.639 48.6704,114.306 47.5,115.5C 46.7025,115.043 46.3691,114.376 46.5,113.5 Z"/></g>
<g><path style="opacity:1" fill="#d4d3dd" d="M 63.5,113.5 C 65.337,113.639 65.6704,114.306 64.5,115.5C 63.7025,115.043 63.3691,114.376 63.5,113.5 Z"/></g>
<g><path style="opacity:1" fill="#103f65" d="M 26.5,139.5 C 28.4147,139.784 30.0813,139.451 31.5,138.5C 31.8333,138.5 32.1667,138.5 32.5,138.5C 33.209,139.404 34.209,139.737 35.5,139.5C 36.5,139.5 37.5,139.5 38.5,139.5C 38.0825,140.222 37.4158,140.722 36.5,141C 37.3333,141.833 38.1667,142.667 39,143.5C 39.2492,142.376 39.7492,141.376 40.5,140.5C 42.6484,141.758 44.8151,141.758 47,140.5C 49.5146,141.115 51.848,142.115 54,143.5C 54.3826,142.944 54.8826,142.611 55.5,142.5C 56.404,141.791 56.7373,140.791 56.5,139.5C 61.0685,139.917 62.5685,137.917 61,133.5C 60.6174,132.944 60.1174,132.611 59.5,132.5C 59.5,130.833 59.5,129.167 59.5,127.5C 66.1393,127.853 72.6393,128.187 79,128.5C 80.7201,127.277 82.5534,126.277 84.5,125.5C 86.5,126.5 88.5,127.5 90.5,128.5C 92.6967,128.152 94.53,127.152 96,125.5C 97.348,132.761 97.848,140.094 97.5,147.5C 97.2969,149.044 96.6302,150.378 95.5,151.5C 65.1722,152.667 34.8388,152.833 4.5,152C 3.80945,150.933 3.30945,149.766 3,148.5C 2.28881,141.844 1.78881,135.178 1.5,128.5C 2.04723,126.482 3.04723,124.649 4.5,123C 9.55716,120.537 14.2238,121.037 18.5,124.5C 20.2857,122.979 22.119,122.646 24,123.5C 24.4935,121.866 24.6602,120.199 24.5,118.5C 26.1238,118.36 27.2904,119.027 28,120.5C 28.9234,119.241 29.7568,117.908 30.5,116.5C 32.2199,117.934 34.2199,118.767 36.5,119C 37.6369,122.414 39.6369,125.247 42.5,127.5C 40.2424,128.418 37.9091,129.085 35.5,129.5C 32.4291,127.82 29.0958,127.153 25.5,127.5C 25.1832,131.702 25.5166,135.702 26.5,139.5 Z"/></g>
<g><path style="opacity:1" fill="#ab8d7a" d="M 63.5,128.5 C 65.337,128.639 65.6704,129.306 64.5,130.5C 63.7025,130.043 63.3691,129.376 63.5,128.5 Z"/></g>
<g><path style="opacity:1" fill="#c89f6d" d="M 28.5,130.5 C 29.5676,129.566 30.901,129.232 32.5,129.5C 32.6495,130.552 32.4828,131.552 32,132.5C 31.2904,131.027 30.1238,130.36 28.5,130.5 Z"/></g>
<g><path style="opacity:1" fill="#d5ab6e" d="M 42.5,132.5 C 47.3276,132.385 48.6609,134.552 46.5,139C 41.5705,139.427 40.2372,137.26 42.5,132.5 Z"/></g>
<g><path style="opacity:1" fill="#cda56f" d="M 68.5,132.5 C 73.3276,132.385 74.6609,134.552 72.5,139C 66.7377,139.418 65.4044,137.251 68.5,132.5 Z"/></g>
<g><path style="opacity:1" fill="#d8b66e" d="M 28.5,130.5 C 30.2245,132.914 31.5578,135.58 32.5,138.5C 32.1667,138.5 31.8333,138.5 31.5,138.5C 30.5738,135.905 28.9071,133.905 26.5,132.5C 26.8555,131.478 27.5222,130.811 28.5,130.5 Z"/></g>
<g><path style="opacity:1" fill="#c39a6e" d="M 49.5,132.5 C 50.9778,132.238 52.3112,132.571 53.5,133.5C 52.1735,135.311 51.1735,137.311 50.5,139.5C 49.5258,137.257 49.1924,134.924 49.5,132.5 Z"/></g>
<g><path style="opacity:1" fill="#d1a96e" d="M 38.5,139.5 C 37.5,139.5 36.5,139.5 35.5,139.5C 33.4905,134.801 34.8238,132.801 39.5,133.5C 39.0623,134.506 38.3957,134.506 37.5,133.5C 36.5481,135.045 36.2148,136.712 36.5,138.5C 38.4008,138.246 39.0674,138.58 38.5,139.5 Z"/></g>
<g><path style="opacity:1" fill="#c19770" d="M 63.5,132.5 C 64.7251,133.152 65.3917,134.319 65.5,136C 65.1667,137.167 64.8333,138.333 64.5,139.5C 63.5258,137.257 63.1924,134.924 63.5,132.5 Z"/></g>
<g><path style="opacity:1" fill="#213663" d="M 43.5,133.5 C 46.9563,134.536 47.2896,136.203 44.5,138.5C 42.2957,137.218 41.9624,135.551 43.5,133.5 Z"/></g>
<g><path style="opacity:1" fill="#2c3968" d="M 69.5,133.5 C 72.9563,134.536 73.2896,136.203 70.5,138.5C 68.2957,137.218 67.9624,135.551 69.5,133.5 Z"/></g>
<g><path style="opacity:1" fill="#b8976c" d="M 31.5,138.5 C 30.0813,139.451 28.4147,139.784 26.5,139.5C 26.369,138.761 26.5357,138.094 27,137.5C 28.3561,138.38 29.8561,138.714 31.5,138.5 Z"/></g>
<g><path style="opacity:1" fill="#d9a96f" d="M 59.5,132.5 C 60.1174,132.611 60.6174,132.944 61,133.5C 62.5685,137.917 61.0685,139.917 56.5,139.5C 56.7373,140.791 56.404,141.791 55.5,142.5C 55.5,139.167 55.5,135.833 55.5,132.5C 56.8333,132.5 58.1667,132.5 59.5,132.5 Z"/></g>
<g><path style="opacity:1" fill="#3b3e66" d="M 57.5,133.5 C 60.3892,133.999 61.0558,135.499 59.5,138C 58.552,138.483 57.552,138.649 56.5,138.5C 56.366,136.708 56.6993,135.042 57.5,133.5 Z"/></g>
</svg>
