<?xml version="1.0" encoding="UTF-8"?>
<!DOCTYPE svg PUBLIC "-//W3C//DTD SVG 1.1//EN" "http://www.w3.org/Graphics/SVG/1.1/DTD/svg11.dtd">
<svg xmlns="http://www.w3.org/2000/svg" version="1.1" width="102px" height="155px" style="shape-rendering:geometricPrecision; text-rendering:geometricPrecision; image-rendering:optimizeQuality; fill-rule:evenodd; clip-rule:evenodd" xmlns:xlink="http://www.w3.org/1999/xlink">
<g><path style="opacity:1" fill="#152a4e" d="M -0.5,-0.5 C 33.5,-0.5 67.5,-0.5 101.5,-0.5C 101.5,51.1667 101.5,102.833 101.5,154.5C 67.5,154.5 33.5,154.5 -0.5,154.5C -0.5,102.833 -0.5,51.1667 -0.5,-0.5 Z"/></g>
<g><path style="opacity:1" fill="#163053" d="M 98.5,65.5 C 97.7469,61.4831 97.0802,57.3164 96.5,53C 96.1667,52.5 95.8333,52 95.5,51.5C 94.5481,53.0453 94.2148,54.712 94.5,56.5C 91.1501,56.335 87.8168,56.5017 84.5,57C 82.8753,57.8525 82.5419,58.8525 83.5,60C 82.1667,60.1667 80.8333,60.3333 79.5,60.5C 75.5628,60.7318 71.5628,60.0651 67.5,58.5C 67.8128,62.0419 67.4794,65.3752 66.5,68.5C 66.5,67.1667 66.5,65.8333 66.5,64.5C 65.931,60.6707 66.5977,57.3373 68.5,54.5C 72.1427,58.1524 76.476,59.1524 81.5,57.5C 82.767,55.6293 82.767,53.7959 81.5,52C 77.1794,51.501 72.8461,51.3343 68.5,51.5C 68.5,51.1667 68.5,50.8333 68.5,50.5C 78.9315,49.684 83.0981,44.0173 81,33.5C 78.4792,30.1547 76.6458,26.488 75.5,22.5C 74.0542,23.1709 73.3875,24.3376 73.5,26C 75.392,29.9946 76.2254,34.1613 76,38.5C 73.3027,41.8705 69.8027,43.2038 65.5,42.5C 63.3432,41.5933 61.0098,40.9267 58.5,40.5C 57.8333,40.5 57.1667,40.5 56.5,40.5C 52.5,39.1667 48.5,39.1667 44.5,40.5C 44.1667,40.5 43.8333,40.5 43.5,40.5C 39.5233,41.2588 35.5233,41.9254 31.5,42.5C 28.6572,41.8283 26.1572,40.495 24,38.5C 23.8776,34.0194 24.7109,29.6861 26.5,25.5C 26.1667,24.5 25.8333,23.5 25.5,22.5C 24.7022,24.0777 24.2022,25.7444 24,27.5C 17.8928,32.5738 16.8928,38.5738 21,45.5C 21.8159,46.8228 22.9826,47.4894 24.5,47.5C 26.1016,49.0739 28.1016,49.7406 30.5,49.5C 30.8333,50.1667 31.1667,50.8333 31.5,51.5C 27.1539,51.3343 22.8206,51.501 18.5,52C 17.3947,54.1203 17.3947,56.2869 18.5,58.5C 15.6029,56.3156 12.4362,55.6489 9,56.5C 7.07863,54.9972 4.91196,54.3305 2.5,54.5C 2.64763,42.9861 2.3143,31.4861 1.5,20C 1.83333,17.5 2.16667,15 2.5,12.5C 3.16667,11.8333 3.83333,11.1667 4.5,10.5C 14.8444,7.58136 25.011,7.9147 35,11.5C 36,11.1667 37,10.8333 38,10.5C 39.7257,12.724 41.8924,14.3907 44.5,15.5C 43.1299,18.5723 42.1299,21.739 41.5,25C 44.8279,26.0354 48.4945,26.3687 52.5,26C 50.6183,25.8019 48.9516,25.3019 47.5,24.5C 50.5133,24.8928 53.1799,24.2261 55.5,22.5C 55.81,23.7383 56.31,23.7383 57,22.5C 57.2078,20.141 57.3744,17.9743 57.5,16C 58.3317,15.3123 58.9984,15.479 59.5,16.5C 58.5721,17.7678 58.4054,19.1011 59,20.5C 60.02,19.1095 60.8534,17.6095 61.5,16C 63.1667,15.6667 64.8333,15.3333 66.5,15C 59.7885,14.7613 58.9552,12.5947 64,8.5C 65.2515,10.0009 66.2515,11.6675 67,13.5C 67.9669,12.3224 68.4669,10.989 68.5,9.5C 71.0841,8.60724 73.7508,8.27391 76.5,8.5C 76.5,9.5 76.5,10.5 76.5,11.5C 82.3951,10.9458 88.0617,11.6124 93.5,13.5C 94.9374,10.9557 96.4374,10.9557 98,13.5C 98.3333,23.8333 98.6667,34.1667 99,44.5C 99.3333,32.1667 99.6667,19.8333 100,7.5C 100.667,54.5 100.667,101.5 100,148.5C 99.9549,109.487 99.4549,81.8206 98.5,65.5 Z"/></g>
<g><path style="opacity:1" fill="#e3e5e8" d="M 55.5,22.5 C 53.1799,24.2261 50.5133,24.8928 47.5,24.5C 43.5266,21.4603 43.5266,18.2936 47.5,15C 46.0257,13.6839 44.359,12.6839 42.5,12C 43.8333,11.3333 45.1667,11.3333 46.5,12C 49.1667,15.3333 51.8333,15.3333 54.5,12C 55.5,11.3333 56.5,11.3333 57.5,12C 55.6969,12.6368 54.3636,13.8035 53.5,15.5C 55.1713,17.5098 55.838,19.8431 55.5,22.5 Z"/></g>
<g><path style="opacity:1" fill="#24284e" d="M 47.5,16.5 C 52.0057,15.5272 54.1724,17.1939 54,21.5C 47.6446,25.2008 45.4779,23.5342 47.5,16.5 Z"/></g>
<g><path style="opacity:1" fill="#c28d54" d="M 31.5,42.5 C 33.5706,43.7866 33.9039,45.4533 32.5,47.5C 29.911,48.205 27.2443,48.205 24.5,47.5C 22.9826,47.4894 21.8159,46.8228 21,45.5C 16.8928,38.5738 17.8928,32.5738 24,27.5C 24.2022,25.7444 24.7022,24.0777 25.5,22.5C 25.8333,23.5 26.1667,24.5 26.5,25.5C 24.7109,29.6861 23.8776,34.0194 24,38.5C 26.1572,40.495 28.6572,41.8283 31.5,42.5 Z"/></g>
<g><path style="opacity:1" fill="#e7af6b" d="M 43.5,40.5 C 43.8333,40.5 44.1667,40.5 44.5,40.5C 45.9274,42.4672 47.7608,44.1339 50,45.5C 52.2514,44.9365 53.2514,43.6032 53,41.5C 52,42.5 51,43.5 50,44.5C 49.044,43.4214 48.2106,42.2547 47.5,41C 50.4816,40.502 53.4816,40.3354 56.5,40.5C 55.8363,42.8669 54.503,44.8669 52.5,46.5C 56.0897,53.2362 58.7563,52.9029 60.5,45.5C 60.6816,47.5914 60.3482,49.5914 59.5,51.5C 59.6667,51.8333 59.8333,52.1667 60,52.5C 63.7893,48.5626 65.1226,49.5626 64,55.5C 61.6877,55.9551 59.6877,56.9551 58,58.5C 57.6667,57.1667 57.3333,55.8333 57,54.5C 57.0461,57.6331 56.0461,60.2998 54,62.5C 54.3052,60.5568 54.3052,58.5568 54,56.5C 53.2086,57.745 52.7086,59.0783 52.5,60.5C 51.6907,58.9867 51.5241,57.3201 52,55.5C 51.0853,56.3279 50.4186,57.3279 50,58.5C 49.6397,56.5789 48.8064,54.9122 47.5,53.5C 47.1667,53.6667 46.8333,53.8333 46.5,54C 48.1834,56.1831 48.85,58.3498 48.5,60.5C 47.5726,58.8872 46.7393,57.2205 46,55.5C 45.8605,60.8384 44.3605,61.505 41.5,57.5C 39.9547,56.5481 38.288,56.2148 36.5,56.5C 36.1165,51.6574 36.7832,46.9907 38.5,42.5C 39.2943,44.8558 38.961,47.1891 37.5,49.5C 38.8419,50.8761 40.1752,52.2094 41.5,53.5C 42.5051,52.8902 42.3385,52.2236 41,51.5C 40.3333,50.1667 40.3333,48.8333 41,47.5C 41.2896,49.0441 41.9563,50.3774 43,51.5C 48.943,49.2282 49.443,46.5615 44.5,43.5C 43.6143,42.675 43.281,41.675 43.5,40.5 Z"/></g>
<g><path style="opacity:1" fill="#9d6e49" d="M 44.5,40.5 C 48.5,39.1667 52.5,39.1667 56.5,40.5C 53.4816,40.3354 50.4816,40.502 47.5,41C 48.2106,42.2547 49.044,43.4214 50,44.5C 51,43.5 52,42.5 53,41.5C 53.2514,43.6032 52.2514,44.9365 50,45.5C 47.7608,44.1339 45.9274,42.4672 44.5,40.5 Z"/></g>
<g><path style="opacity:1" fill="#c08d57" d="M 56.5,40.5 C 57.1667,40.5 57.8333,40.5 58.5,40.5C 58.8925,42.2838 59.5592,43.9505 60.5,45.5C 58.7563,52.9029 56.0897,53.2362 52.5,46.5C 54.503,44.8669 55.8363,42.8669 56.5,40.5 Z"/></g>
<g><path style="opacity:1" fill="#be8951" d="M 68.5,50.5 C 67.603,51.5981 66.7697,51.5981 66,50.5C 65.6667,49.1667 65.3333,47.8333 65,46.5C 64.6924,47.3081 64.1924,47.9747 63.5,48.5C 62.2319,46.6957 61.5652,44.6957 61.5,42.5C 62.8333,42.5 64.1667,42.5 65.5,42.5C 69.8027,43.2038 73.3027,41.8705 76,38.5C 76.2254,34.1613 75.392,29.9946 73.5,26C 73.3875,24.3376 74.0542,23.1709 75.5,22.5C 76.6458,26.488 78.4792,30.1547 81,33.5C 83.0981,44.0173 78.9315,49.684 68.5,50.5 Z"/></g>
<g><path style="opacity:1" fill="#12355a" d="M 98.5,65.5 C 98.5,74.8333 98.5,84.1667 98.5,93.5C 96.7949,94.0881 95.1283,94.4214 93.5,94.5C 91.0903,91.5753 90.4236,88.4087 91.5,85C 90.4366,83.8118 89.1033,83.3118 87.5,83.5C 87.6495,84.552 87.4828,85.552 87,86.5C 84.5714,87.0293 82.7381,88.3626 81.5,90.5C 72.0531,93.8226 62.3864,96.156 52.5,97.5C 52.5,98.8333 52.5,100.167 52.5,101.5C 50.7376,101.643 49.0709,101.309 47.5,100.5C 46.3185,101.515 45.3185,102.681 44.5,104C 46.9362,105.332 46.9362,106.499 44.5,107.5C 43.7702,106.066 42.7702,104.9 41.5,104C 42.9733,103.29 43.6399,102.124 43.5,100.5C 42.5,100.5 41.5,100.5 40.5,100.5C 40.5,101.833 40.5,103.167 40.5,104.5C 36.7162,104.475 35.7162,102.808 37.5,99.5C 36.8444,98.7222 36.0111,98.0556 35,97.5C 32.599,98.4027 30.099,98.236 27.5,97C 28.4158,96.7216 29.0825,96.2216 29.5,95.5C 30.5669,93.1205 29.5669,92.1205 26.5,92.5C 26.5,93.5 26.5,94.5 26.5,95.5C 24.0882,95.3059 23.0882,93.9726 23.5,91.5C 21.8008,91.6602 20.1341,91.4935 18.5,91C 19.9733,90.2904 20.6399,89.1238 20.5,87.5C 17.9556,87.1043 15.7889,87.771 14,89.5C 12.6026,88.7741 11.7692,87.6075 11.5,86C 12.1662,84.3313 12.1662,82.8313 11.5,81.5C 9.05135,81.98 6.88469,82.98 5,84.5C 4.66667,88.8333 4.33333,93.1667 4,97.5C 3.76791,98.7375 3.26791,99.7375 2.5,100.5C 1.4318,85.1743 1.4318,69.841 2.5,54.5C 4.91196,54.3305 7.07863,54.9972 9,56.5C 12.4362,55.6489 15.6029,56.3156 18.5,58.5C 23.1857,58.8809 27.5191,57.8809 31.5,55.5C 32.1174,55.3893 32.6174,55.056 33,54.5C 33.3333,59.1667 33.6667,63.8333 34,68.5C 34.6082,70.0664 35.4415,71.3998 36.5,72.5C 39.8615,74.8949 42.5281,77.8949 44.5,81.5C 44.427,83.0269 45.0937,84.0269 46.5,84.5C 48.7257,85.7563 51.059,85.7563 53.5,84.5C 54.8333,83.8333 55.8333,82.8333 56.5,81.5C 58.0908,78.5691 60.0908,75.9024 62.5,73.5C 63.1667,73.5 63.5,73.1667 63.5,72.5C 64.9744,71.5637 65.9744,70.2303 66.5,68.5C 67.4794,65.3752 67.8128,62.0419 67.5,58.5C 71.5628,60.0651 75.5628,60.7318 79.5,60.5C 80.8333,60.3333 82.1667,60.1667 83.5,60C 82.5419,58.8525 82.8753,57.8525 84.5,57C 87.8168,56.5017 91.1501,56.335 94.5,56.5C 94.2148,54.712 94.5481,53.0453 95.5,51.5C 95.8333,52 96.1667,52.5 96.5,53C 97.0802,57.3164 97.7469,61.4831 98.5,65.5 Z"/></g>
<g><path style="opacity:1" fill="#c79255" d="M 31.5,51.5 C 32.7383,51.81 32.7383,52.31 31.5,53C 27.4592,53.1735 23.4592,53.6735 19.5,54.5C 23.5144,54.3039 27.5144,54.6372 31.5,55.5C 27.5191,57.8809 23.1857,58.8809 18.5,58.5C 17.3947,56.2869 17.3947,54.1203 18.5,52C 22.8206,51.501 27.1539,51.3343 31.5,51.5 Z"/></g>
<g><path style="opacity:1" fill="#ce9859" d="M 68.5,51.5 C 72.8461,51.3343 77.1794,51.501 81.5,52C 82.767,53.7959 82.767,55.6293 81.5,57.5C 76.476,59.1524 72.1427,58.1524 68.5,54.5C 72.8929,54.5427 77.2262,54.7093 81.5,55C 77.6875,53.7378 73.6875,53.0712 69.5,53C 68.944,52.6174 68.6107,52.1174 68.5,51.5 Z"/></g>
<g><path style="opacity:1" fill="#8c5f39" d="M 58.5,40.5 C 61.0098,40.9267 63.3432,41.5933 65.5,42.5C 64.1667,42.5 62.8333,42.5 61.5,42.5C 61.5652,44.6957 62.2319,46.6957 63.5,48.5C 64.1924,47.9747 64.6924,47.3081 65,46.5C 65.3333,47.8333 65.6667,49.1667 66,50.5C 66.7697,51.5981 67.603,51.5981 68.5,50.5C 68.5,50.8333 68.5,51.1667 68.5,51.5C 68.6107,52.1174 68.944,52.6174 69.5,53C 73.6875,53.0712 77.6875,53.7378 81.5,55C 77.2262,54.7093 72.8929,54.5427 68.5,54.5C 66.5977,57.3373 65.931,60.6707 66.5,64.5C 65.8333,63.5 65.1667,62.5 64.5,61.5C 63.9467,59.3431 62.9467,59.5097 61.5,62C 59.7928,62.1953 58.1261,62.1953 56.5,62C 55.6198,63.3561 55.2865,64.8561 55.5,66.5C 54.5,65.8333 53.5,65.1667 52.5,64.5C 52.5,63.1667 52.5,61.8333 52.5,60.5C 52.7086,59.0783 53.2086,57.745 54,56.5C 54.3052,58.5568 54.3052,60.5568 54,62.5C 56.0461,60.2998 57.0461,57.6331 57,54.5C 57.3333,55.8333 57.6667,57.1667 58,58.5C 59.6877,56.9551 61.6877,55.9551 64,55.5C 65.1226,49.5626 63.7893,48.5626 60,52.5C 59.8333,52.1667 59.6667,51.8333 59.5,51.5C 60.3482,49.5914 60.6816,47.5914 60.5,45.5C 59.5592,43.9505 58.8925,42.2838 58.5,40.5 Z"/></g>
<g><path style="opacity:1" fill="#f3b971" d="M 37.5,61.5 C 39.7564,62.4385 42.0897,62.4385 44.5,61.5C 45.0922,64.6305 44.0922,66.9639 41.5,68.5C 40.1667,66.1667 38.8333,63.8333 37.5,61.5 Z"/></g>
<g><path style="opacity:1" fill="#a97849" d="M 43.5,40.5 C 43.281,41.675 43.6143,42.675 44.5,43.5C 49.443,46.5615 48.943,49.2282 43,51.5C 41.9563,50.3774 41.2896,49.0441 41,47.5C 40.3333,48.8333 40.3333,50.1667 41,51.5C 42.3385,52.2236 42.5051,52.8902 41.5,53.5C 40.1752,52.2094 38.8419,50.8761 37.5,49.5C 38.961,47.1891 39.2943,44.8558 38.5,42.5C 36.7832,46.9907 36.1165,51.6574 36.5,56.5C 38.288,56.2148 39.9547,56.5481 41.5,57.5C 44.3605,61.505 45.8605,60.8384 46,55.5C 46.7393,57.2205 47.5726,58.8872 48.5,60.5C 48.85,58.3498 48.1834,56.1831 46.5,54C 46.8333,53.8333 47.1667,53.6667 47.5,53.5C 48.8064,54.9122 49.6397,56.5789 50,58.5C 50.4186,57.3279 51.0853,56.3279 52,55.5C 51.5241,57.3201 51.6907,58.9867 52.5,60.5C 52.5,61.8333 52.5,63.1667 52.5,64.5C 51.5416,64.0472 50.7083,63.3805 50,62.5C 47.295,65.0362 44.795,67.7029 42.5,70.5C 41.6618,70.1583 41.3284,69.4916 41.5,68.5C 44.0922,66.9639 45.0922,64.6305 44.5,61.5C 42.0897,62.4385 39.7564,62.4385 37.5,61.5C 36.5416,61.0472 35.7083,60.3805 35,59.5C 34.7638,57.236 34.2638,55.0693 33.5,53C 35.158,52.2747 35.658,51.108 35,49.5C 33.5861,50.4132 32.0861,50.4132 30.5,49.5C 28.1016,49.7406 26.1016,49.0739 24.5,47.5C 27.2443,48.205 29.911,48.205 32.5,47.5C 33.9039,45.4533 33.5706,43.7866 31.5,42.5C 35.5233,41.9254 39.5233,41.2588 43.5,40.5 Z"/></g>
<g><path style="opacity:1" fill="#efb573" d="M 64.5,61.5 C 62.9669,63.3548 61.3003,65.1881 59.5,67C 58.1807,67.195 56.8474,67.0283 55.5,66.5C 55.2865,64.8561 55.6198,63.3561 56.5,62C 58.1261,62.1953 59.7928,62.1953 61.5,62C 62.9467,59.5097 63.9467,59.3431 64.5,61.5 Z"/></g>
<g><path style="opacity:1" fill="#91643c" d="M 30.5,49.5 C 32.0861,50.4132 33.5861,50.4132 35,49.5C 35.658,51.108 35.158,52.2747 33.5,53C 34.2638,55.0693 34.7638,57.236 35,59.5C 35.7083,60.3805 36.5416,61.0472 37.5,61.5C 38.8333,63.8333 40.1667,66.1667 41.5,68.5C 41.3284,69.4916 41.6618,70.1583 42.5,70.5C 43.7211,71.4646 45.0544,71.298 46.5,70C 47.8333,69.3333 47.8333,68.6667 46.5,68C 48.2117,65.3077 50.2117,64.9744 52.5,67C 51.8333,67.3333 51.1667,67.6667 50.5,68C 53.2018,69.0121 55.5351,70.5121 57.5,72.5C 56.4181,74.3386 55.5847,76.3386 55,78.5C 54.0975,79.7014 52.9308,80.5348 51.5,81C 53.3423,80.932 55.009,81.0986 56.5,81.5C 55.8333,82.8333 54.8333,83.8333 53.5,84.5C 51.2358,82.1093 48.9024,82.1093 46.5,84.5C 45.0937,84.0269 44.427,83.0269 44.5,81.5C 45.5791,79.9194 45.5791,78.2527 44.5,76.5C 41.7934,71.2222 38.6267,66.2222 35,61.5C 34.8333,62.3333 34.6667,63.1667 34.5,64C 37.2954,66.3476 37.9621,69.1809 36.5,72.5C 35.4415,71.3998 34.6082,70.0664 34,68.5C 33.6667,63.8333 33.3333,59.1667 33,54.5C 32.6174,55.056 32.1174,55.3893 31.5,55.5C 27.5144,54.6372 23.5144,54.3039 19.5,54.5C 23.4592,53.6735 27.4592,53.1735 31.5,53C 32.7383,52.31 32.7383,51.81 31.5,51.5C 31.1667,50.8333 30.8333,50.1667 30.5,49.5 Z"/></g>
<g><path style="opacity:1" fill="#eeb66f" d="M 52.5,64.5 C 53.5,65.1667 54.5,65.8333 55.5,66.5C 56.2899,67.7942 57.2899,68.9609 58.5,70C 57.7476,70.6708 57.4142,71.5041 57.5,72.5C 55.5351,70.5121 53.2018,69.0121 50.5,68C 51.1667,67.6667 51.8333,67.3333 52.5,67C 50.2117,64.9744 48.2117,65.3077 46.5,68C 47.8333,68.6667 47.8333,69.3333 46.5,70C 45.0544,71.298 43.7211,71.4646 42.5,70.5C 44.795,67.7029 47.295,65.0362 50,62.5C 50.7083,63.3805 51.5416,64.0472 52.5,64.5 Z"/></g>
<g><path style="opacity:1" fill="#efb66f" d="M 64.5,61.5 C 65.1667,62.5 65.8333,63.5 66.5,64.5C 66.5,65.8333 66.5,67.1667 66.5,68.5C 65.8485,67.9094 65.1818,67.2427 64.5,66.5C 62.8337,68.4207 62.5003,70.4207 63.5,72.5C 63.5,73.1667 63.1667,73.5 62.5,73.5C 61.548,72.548 60.548,71.548 59.5,70.5C 61.624,67.7206 63.2907,64.7206 64.5,61.5 Z"/></g>
<g><path style="opacity:1" fill="#9f6c3c" d="M 66.5,68.5 C 65.9744,70.2303 64.9744,71.5637 63.5,72.5C 62.5003,70.4207 62.8337,68.4207 64.5,66.5C 65.1818,67.2427 65.8485,67.9094 66.5,68.5 Z"/></g>
<g><path style="opacity:1" fill="#d19b5e" d="M 44.5,81.5 C 42.5281,77.8949 39.8615,74.8949 36.5,72.5C 37.9621,69.1809 37.2954,66.3476 34.5,64C 34.6667,63.1667 34.8333,62.3333 35,61.5C 38.6267,66.2222 41.7934,71.2222 44.5,76.5C 45.5791,78.2527 45.5791,79.9194 44.5,81.5 Z"/></g>
<g><path style="opacity:1" fill="#b2824e" d="M 64.5,61.5 C 63.2907,64.7206 61.624,67.7206 59.5,70.5C 60.548,71.548 61.548,72.548 62.5,73.5C 60.0908,75.9024 58.0908,78.5691 56.5,81.5C 55.009,81.0986 53.3423,80.932 51.5,81C 52.9308,80.5348 54.0975,79.7014 55,78.5C 55.5847,76.3386 56.4181,74.3386 57.5,72.5C 57.4142,71.5041 57.7476,70.6708 58.5,70C 57.2899,68.9609 56.2899,67.7942 55.5,66.5C 56.8474,67.0283 58.1807,67.195 59.5,67C 61.3003,65.1881 62.9669,63.3548 64.5,61.5 Z"/></g>
<g><path style="opacity:1" fill="#e6b173" d="M 49.5,69.5 C 54.2006,70.6843 55.3672,73.351 53,77.5C 51.2136,79.6737 49.0469,80.8404 46.5,81C 47.3081,80.6924 47.9747,80.1924 48.5,79.5C 47.218,77.8208 46.218,75.9874 45.5,74C 46.3574,71.9812 47.6908,70.4812 49.5,69.5 Z"/></g>
<g><path style="opacity:1" fill="#9f6f3e" d="M 48.5,71.5 C 52.0562,71.2749 52.3895,72.1082 49.5,74C 50.1021,75.563 50.9354,75.3963 52,73.5C 52.0099,76.3995 50.6766,77.0662 48,75.5C 47.805,74.1807 47.9717,72.8474 48.5,71.5 Z"/></g>
<g><path style="opacity:1" fill="#ebb96d" d="M 53.5,84.5 C 51.059,85.7563 48.7257,85.7563 46.5,84.5C 48.9024,82.1093 51.2358,82.1093 53.5,84.5 Z"/></g>
<g><path style="opacity:1" fill="#133b60" d="M 26.5,95.5 C 27.5,95.5 28.5,95.5 29.5,95.5C 29.0825,96.2216 28.4158,96.7216 27.5,97C 30.099,98.236 32.599,98.4027 35,97.5C 36.0111,98.0556 36.8444,98.7222 37.5,99.5C 35.7162,102.808 36.7162,104.475 40.5,104.5C 40.5,103.167 40.5,101.833 40.5,100.5C 41.5,100.5 42.5,100.5 43.5,100.5C 43.6399,102.124 42.9733,103.29 41.5,104C 42.7702,104.9 43.7702,106.066 44.5,107.5C 46.9362,106.499 46.9362,105.332 44.5,104C 45.3185,102.681 46.3185,101.515 47.5,100.5C 49.0709,101.309 50.7376,101.643 52.5,101.5C 52.5,100.167 52.5,98.8333 52.5,97.5C 62.3864,96.156 72.0531,93.8226 81.5,90.5C 82.7381,88.3626 84.5714,87.0293 87,86.5C 87.4828,85.552 87.6495,84.552 87.5,83.5C 89.1033,83.3118 90.4366,83.8118 91.5,85C 90.4236,88.4087 91.0903,91.5753 93.5,94.5C 95.1283,94.4214 96.7949,94.0881 98.5,93.5C 98.5,104.833 98.5,116.167 98.5,127.5C 97.5041,127.586 96.6708,127.252 96,126.5C 89.9053,126.982 83.9053,127.982 78,129.5C 71.783,126.521 65.283,125.854 58.5,127.5C 60.6655,128.88 60.9988,130.547 59.5,132.5C 59.2847,134.523 59.2847,136.856 59.5,139.5C 60.791,139.737 61.791,139.404 62.5,138.5C 65.4574,140.025 66.1241,139.358 64.5,136.5C 65.1667,135.5 65.8333,134.5 66.5,133.5C 67.0312,135.624 68.3645,137.124 70.5,138C 69.0494,137.737 67.7161,137.904 66.5,138.5C 67.7276,140.176 69.0609,140.509 70.5,139.5C 68.0383,144.662 64.3717,145.662 59.5,142.5C 58.8076,143.025 58.3076,143.692 58,144.5C 56.5806,143.54 55.0806,142.707 53.5,142C 46.9975,141.982 40.6641,141.148 34.5,139.5C 34.5,138.833 34.1667,138.5 33.5,138.5C 33.3359,135.813 33.5026,133.146 34,130.5C 35.4609,131.883 36.2942,131.549 36.5,129.5C 37.209,128.596 38.209,128.263 39.5,128.5C 39.2823,122.714 36.449,121.047 31,123.5C 28.9313,122.73 27.2647,121.397 26,119.5C 17.7524,121.205 9.58572,122.872 1.5,124.5C 1.50115,116.483 1.83448,108.483 2.5,100.5C 3.26791,99.7375 3.76791,98.7375 4,97.5C 4.33333,93.1667 4.66667,88.8333 5,84.5C 6.88469,82.98 9.05135,81.98 11.5,81.5C 12.1662,82.8313 12.1662,84.3313 11.5,86C 11.7692,87.6075 12.6026,88.7741 14,89.5C 15.7889,87.771 17.9556,87.1043 20.5,87.5C 20.6399,89.1238 19.9733,90.2904 18.5,91C 20.1341,91.4935 21.8008,91.6602 23.5,91.5C 23.0882,93.9726 24.0882,95.3059 26.5,95.5 Z"/></g>
<g><path style="opacity:1" fill="#d6d9df" d="M 29.5,95.5 C 28.5,95.5 27.5,95.5 26.5,95.5C 26.5,94.5 26.5,93.5 26.5,92.5C 29.5669,92.1205 30.5669,93.1205 29.5,95.5 Z"/></g>
<g><path style="opacity:1" fill="#b9becc" d="M 37.5,99.5 C 37.6395,97.663 38.3061,97.3296 39.5,98.5C 39.0431,99.2975 38.3764,99.6309 37.5,99.5 Z"/></g>
<g><path style="opacity:1" fill="#d4d7df" d="M 24.5,105.5 C 26.1765,106.183 26.8432,107.517 26.5,109.5C 25.5,109.5 24.5,109.5 23.5,109.5C 23.4326,108.041 23.7659,106.708 24.5,105.5 Z"/></g>
<g><path style="opacity:1" fill="#e9e5eb" d="M 50.5,112.5 C 52.337,112.639 52.6704,113.306 51.5,114.5C 50.7025,114.043 50.3691,113.376 50.5,112.5 Z"/></g>
<g><path style="opacity:1" fill="#d2d6dd" d="M 58.5,112.5 C 59.5,112.5 60.5,112.5 61.5,112.5C 61.5,113.833 61.5,115.167 61.5,116.5C 60.5,116.5 59.5,116.5 58.5,116.5C 58.5,115.167 58.5,113.833 58.5,112.5 Z"/></g>
<g><path style="opacity:1" fill="#c7c5d1" d="M 73.5,114.5 C 75.337,114.639 75.6704,115.306 74.5,116.5C 73.7025,116.043 73.3691,115.376 73.5,114.5 Z"/></g>
<g><path style="opacity:1" fill="#cdcbd6" d="M 44.5,114.5 C 46.337,114.639 46.6704,115.306 45.5,116.5C 44.7025,116.043 44.3691,115.376 44.5,114.5 Z"/></g>
<g><path style="opacity:1" fill="#0e3f64" d="M 36.5,129.5 C 35.1667,129.5 33.8333,129.5 32.5,129.5C 31.0222,129.238 29.6888,129.571 28.5,130.5C 28.9377,131.506 29.6043,131.506 30.5,130.5C 31.7825,133.372 31.7825,136.205 30.5,139C 31.7932,139.49 33.1266,139.657 34.5,139.5C 40.6641,141.148 46.9975,141.982 53.5,142C 55.0806,142.707 56.5806,143.54 58,144.5C 58.3076,143.692 58.8076,143.025 59.5,142.5C 64.3717,145.662 68.0383,144.662 70.5,139.5C 71.8699,137.293 71.2032,135.626 68.5,134.5C 69.6034,134.002 70.6034,133.669 71.5,133.5C 69.8327,132.334 68.166,132.334 66.5,133.5C 65.8333,134.5 65.1667,135.5 64.5,136.5C 64.6567,135.127 64.49,133.793 64,132.5C 63.6847,134.586 63.1847,136.586 62.5,138.5C 60.9397,136.844 59.9397,134.844 59.5,132.5C 60.9988,130.547 60.6655,128.88 58.5,127.5C 65.283,125.854 71.783,126.521 78,129.5C 83.9053,127.982 89.9053,126.982 96,126.5C 96.6708,127.252 97.5041,127.586 98.5,127.5C 98.6663,134.175 98.4996,140.842 98,147.5C 96.98,148.891 96.1466,150.391 95.5,152C 90.6252,152.753 85.7919,152.586 81,151.5C 79.9412,151.63 79.1079,152.13 78.5,153C 53.8285,153.115 29.1618,152.615 4.5,151.5C 2.71723,149.155 1.71723,146.488 1.5,143.5C 2.77685,137.161 2.77685,130.828 1.5,124.5C 9.58572,122.872 17.7524,121.205 26,119.5C 27.2647,121.397 28.9313,122.73 31,123.5C 36.449,121.047 39.2823,122.714 39.5,128.5C 38.209,128.263 37.209,128.596 36.5,129.5 Z"/></g>
<g><path style="opacity:1" fill="#e0ae6f" d="M 32.5,129.5 C 32.19,132.713 32.5233,135.713 33.5,138.5C 34.1667,138.5 34.5,138.833 34.5,139.5C 33.1266,139.657 31.7932,139.49 30.5,139C 31.7825,136.205 31.7825,133.372 30.5,130.5C 29.6043,131.506 28.9377,131.506 28.5,130.5C 29.6888,129.571 31.0222,129.238 32.5,129.5 Z"/></g>
<g><path style="opacity:1" fill="#86746b" d="M 32.5,129.5 C 33.8333,129.5 35.1667,129.5 36.5,129.5C 36.2942,131.549 35.4609,131.883 34,130.5C 33.5026,133.146 33.3359,135.813 33.5,138.5C 32.5233,135.713 32.19,132.713 32.5,129.5 Z"/></g>
<g><path style="opacity:1" fill="#cca36e" d="M 41.5,133.5 C 41.6602,135.199 41.4935,136.866 41,138.5C 40.5172,137.552 40.3505,136.552 40.5,135.5C 40.6309,134.624 40.2975,133.957 39.5,133.5C 36.8133,134.061 36.8133,133.394 39.5,131.5C 40.5223,131.855 41.189,132.522 41.5,133.5 Z"/></g>
<g><path style="opacity:1" fill="#bd996e" d="M 44.5,132.5 C 45.6935,132.97 46.3601,133.97 46.5,135.5C 47.0384,137.111 47.0384,138.444 46.5,139.5C 45.914,139.291 45.414,138.957 45,138.5C 44.5045,136.527 44.3379,134.527 44.5,132.5 Z"/></g>
<g><path style="opacity:1" fill="#bd9d6f" d="M 70.5,139.5 C 69.0609,140.509 67.7276,140.176 66.5,138.5C 67.7161,137.904 69.0494,137.737 70.5,138C 68.3645,137.124 67.0312,135.624 66.5,133.5C 68.166,132.334 69.8327,132.334 71.5,133.5C 70.6034,133.669 69.6034,134.002 68.5,134.5C 71.2032,135.626 71.8699,137.293 70.5,139.5 Z"/></g>
<g><path style="opacity:1" fill="#c79b6e" d="M 48.5,132.5 C 49.6935,132.97 50.3601,133.97 50.5,135.5C 51.0384,137.111 51.0384,138.444 50.5,139.5C 49.914,139.291 49.414,138.957 49,138.5C 48.5045,136.527 48.3379,134.527 48.5,132.5 Z"/></g>
<g><path style="opacity:1" fill="#e7b06f" d="M 53.5,132.5 C 54.8062,132.879 56.1395,133.212 57.5,133.5C 56.675,134.386 55.675,134.719 54.5,134.5C 54.8072,136.446 54.8072,138.113 54.5,139.5C 53.5258,137.257 53.1924,134.924 53.5,132.5 Z"/></g>
<g><path style="opacity:1" fill="#e8bd70" d="M 37.5,136.5 C 38.4013,137.29 39.0679,138.29 39.5,139.5C 37.9519,139.179 37.2852,138.179 37.5,136.5 Z"/></g>
<g><path style="opacity:1" fill="#695d69" d="M 41.5,133.5 C 42.3058,134.997 42.9724,136.664 43.5,138.5C 42.3112,139.429 40.9778,139.762 39.5,139.5C 39.0679,138.29 38.4013,137.29 37.5,136.5C 38.209,135.596 39.209,135.263 40.5,135.5C 40.3505,136.552 40.5172,137.552 41,138.5C 41.4935,136.866 41.6602,135.199 41.5,133.5 Z"/></g>
<g><path style="opacity:1" fill="#e8b471" d="M 64.5,136.5 C 66.1241,139.358 65.4574,140.025 62.5,138.5C 63.1847,136.586 63.6847,134.586 64,132.5C 64.49,133.793 64.6567,135.127 64.5,136.5 Z"/></g>
<g><path style="opacity:1" fill="#dfae6f" d="M 59.5,132.5 C 59.9397,134.844 60.9397,136.844 62.5,138.5C 61.791,139.404 60.791,139.737 59.5,139.5C 59.2847,136.856 59.2847,134.523 59.5,132.5 Z"/></g>
</svg>
