<?xml version="1.0" encoding="UTF-8"?>
<!DOCTYPE svg PUBLIC "-//W3C//DTD SVG 1.1//EN" "http://www.w3.org/Graphics/SVG/1.1/DTD/svg11.dtd">
<svg xmlns="http://www.w3.org/2000/svg" version="1.1" width="102px" height="154px" style="shape-rendering:geometricPrecision; text-rendering:geometricPrecision; image-rendering:optimizeQuality; fill-rule:evenodd; clip-rule:evenodd" xmlns:xlink="http://www.w3.org/1999/xlink">
<g><path style="opacity:1" fill="#132d51" d="M -0.5,-0.5 C 1.5,-0.5 3.5,-0.5 5.5,-0.5C 4.54417,0.659436 3.54417,1.8261 2.5,3C 3.75866,4.60234 5.09199,4.43567 6.5,2.5C 13.4763,1.33559 20.4763,1.16892 27.5,2C 28.4506,2.71752 28.6172,3.55085 28,4.5C 25.8935,5.59104 23.3935,5.59104 20.5,4.5C 20.5,5.83333 20.5,7.16667 20.5,8.5C 26.7056,6.8302 33.0389,6.3302 39.5,7C 40.2638,9.06934 40.7638,11.236 41,13.5C 41.7697,12.4019 42.603,12.4019 43.5,13.5C 44.1174,13.3893 44.6174,13.056 45,12.5C 45.6456,23.5767 46.8122,23.91 48.5,13.5C 49.8333,24.1667 51.1667,24.1667 52.5,13.5C 53.4254,17.4244 53.4254,21.091 52.5,24.5C 53.8196,22.7299 55.3196,22.3966 57,23.5C 57.4643,22.9056 57.631,22.2389 57.5,21.5C 58.2216,21.9175 58.7216,22.5842 59,23.5C 59.4974,20.854 59.6641,18.1873 59.5,15.5C 61.8568,15.6633 64.1902,15.4966 66.5,15C 61.8639,15.0468 60.5306,13.0468 62.5,9C 74.8446,8.17679 86.5113,11.0101 97.5,17.5C 98.6099,19.2004 99.9432,20.5337 101.5,21.5C 101.5,65.5 101.5,109.5 101.5,153.5C 67.5,153.5 33.5,153.5 -0.5,153.5C -0.5,102.167 -0.5,50.8333 -0.5,-0.5 Z"/></g>
<g><path style="opacity:1" fill="#132a4d" d="M 5.5,-0.5 C 37.5,-0.5 69.5,-0.5 101.5,-0.5C 101.5,6.83333 101.5,14.1667 101.5,21.5C 99.9432,20.5337 98.6099,19.2004 97.5,17.5C 86.5113,11.0101 74.8446,8.17679 62.5,9C 60.5306,13.0468 61.8639,15.0468 66.5,15C 64.1902,15.4966 61.8568,15.6633 59.5,15.5C 59.6641,18.1873 59.4974,20.854 59,23.5C 58.7216,22.5842 58.2216,21.9175 57.5,21.5C 57.0707,20.0473 56.904,18.3806 57,16.5C 55.3247,15.4045 54.158,13.9045 53.5,12C 51.2363,12.5854 48.903,12.4187 46.5,11.5C 44.9704,11.6399 43.9704,12.3065 43.5,13.5C 42.603,12.4019 41.7697,12.4019 41,13.5C 40.7638,11.236 40.2638,9.06934 39.5,7C 33.0389,6.3302 26.7056,6.8302 20.5,8.5C 20.5,7.16667 20.5,5.83333 20.5,4.5C 23.3935,5.59104 25.8935,5.59104 28,4.5C 28.6172,3.55085 28.4506,2.71752 27.5,2C 20.4763,1.16892 13.4763,1.33559 6.5,2.5C 5.09199,4.43567 3.75866,4.60234 2.5,3C 3.54417,1.8261 4.54417,0.659436 5.5,-0.5 Z"/></g>
<g><path style="opacity:1" fill="#dcdfe2" d="M 57.5,21.5 C 57.631,22.2389 57.4643,22.9056 57,23.5C 55.3196,22.3966 53.8196,22.7299 52.5,24.5C 53.4254,21.091 53.4254,17.4244 52.5,13.5C 51.1667,24.1667 49.8333,24.1667 48.5,13.5C 46.8122,23.91 45.6456,23.5767 45,12.5C 44.6174,13.056 44.1174,13.3893 43.5,13.5C 43.9704,12.3065 44.9704,11.6399 46.5,11.5C 48.903,12.4187 51.2363,12.5854 53.5,12C 54.158,13.9045 55.3247,15.4045 57,16.5C 56.904,18.3806 57.0707,20.0473 57.5,21.5 Z"/></g>
<g><path style="opacity:1" fill="#123054" d="M 58.5,29.5 C 55.8333,29.5 53.1667,29.5 50.5,29.5C 49.391,29.5569 48.391,29.8902 47.5,30.5C 45.4558,29.2216 43.4558,29.3883 41.5,31C 38.5532,33.4356 36.2199,36.2689 34.5,39.5C 30.9014,45.1655 29.9014,51.3322 31.5,58C 30.5581,62.2162 29.5581,66.3829 28.5,70.5C 28.3956,64.3608 28.2289,58.0275 28,51.5C 27.6667,51.1667 27.3333,50.8333 27,50.5C 25.2627,52.6246 23.096,53.458 20.5,53C 23.3463,52.1207 24.013,50.4541 22.5,48C 21.8333,47.3333 21.1667,47.3333 20.5,48C 19.5562,50.7191 19.2229,53.5525 19.5,56.5C 15.2447,56.4158 11.078,55.7491 7,54.5C 4.5697,56.0072 2.73636,58.0072 1.5,60.5C 1.92858,47.973 2.92858,35.3064 4.5,22.5C 5.83333,22.5 7.16667,22.5 8.5,22.5C 8.5,24.5 8.5,26.5 8.5,28.5C 14.6131,27.7769 20.1131,29.1102 25,32.5C 29.4303,25.8734 27.9303,22.54 20.5,22.5C 19.5721,21.2322 19.4054,19.8989 20,18.5C 22.0639,17.4086 24.2305,17.2419 26.5,18C 27.9003,19.4381 29.567,20.2714 31.5,20.5C 31.3367,18.1432 31.5034,15.8098 32,13.5C 33.7067,12.8617 35.54,12.8617 37.5,13.5C 37.5,14.8333 37.5,16.1667 37.5,17.5C 41.5123,16.8874 43.5123,18.5541 43.5,22.5C 45.8333,22.5 48.1667,22.5 50.5,22.5C 50.3433,23.8734 50.51,25.2068 51,26.5C 54.539,24.8623 57.7057,25.3623 60.5,28C 59.5842,28.2784 58.9175,28.7784 58.5,29.5 Z"/></g>
<g><path style="opacity:1" fill="#123155" d="M 100.5,72.5 C 99.0689,72.1193 98.2355,71.1193 98,69.5C 97.8029,64.9145 97.3029,60.4145 96.5,56C 94.8876,55.2797 93.3876,55.4464 92,56.5C 92.2217,60.2833 90.8884,63.2833 88,65.5C 86.5272,65.0969 85.1939,64.4303 84,63.5C 83.6667,61.1667 83.3333,58.8333 83,56.5C 81.9887,55.6634 80.8221,55.33 79.5,55.5C 77.7054,62.116 75.5388,62.116 73,55.5C 71.7308,56.9047 71.2308,58.5714 71.5,60.5C 71.1667,60.5 70.8333,60.5 70.5,60.5C 70.5,59.8333 70.1667,59.5 69.5,59.5C 70.1737,51.8791 69.1737,44.5458 66.5,37.5C 67.4731,35.9317 67.6397,34.265 67,32.5C 65.146,31.6346 63.3126,30.6346 61.5,29.5C 63.012,28.1375 64.512,27.8042 66,28.5C 69.3261,22.3583 72.9928,22.025 77,27.5C 77.4828,26.552 77.6495,25.552 77.5,24.5C 78.8333,24.5 80.1667,24.5 81.5,24.5C 80.9862,26.5116 80.8195,28.5116 81,30.5C 82.1855,28.4407 83.3521,28.274 84.5,30C 83.2666,33.8335 83.2666,37.6668 84.5,41.5C 85.3333,40.5 86.1667,39.5 87,38.5C 89.1623,38.9402 91.329,39.2735 93.5,39.5C 94.1667,38.8333 94.8333,38.1667 95.5,37.5C 96.7443,39.6382 98.2443,41.6382 100,43.5C 100.5,53.1609 100.666,62.8276 100.5,72.5 Z"/></g>
<g><path style="opacity:1" fill="#e1a967" d="M 50.5,29.5 C 53.1667,29.5 55.8333,29.5 58.5,29.5C 61.2427,31.2393 63.2427,33.5726 64.5,36.5C 64.631,37.2389 64.4643,37.9056 64,38.5C 60.6563,36.1051 57.1563,34.2718 53.5,33C 56.2667,35.7963 59.4334,37.9629 63,39.5C 63.658,41.108 63.158,42.2747 61.5,43C 62.5,44 63.5,45 64.5,46C 60.9578,45.7433 57.6245,44.5766 54.5,42.5C 53.914,42.7093 53.414,43.0426 53,43.5C 51.9609,42.2899 50.7942,41.2899 49.5,40.5C 48.7435,38.7334 48.0769,36.9001 47.5,35C 48.6321,33.2355 49.6321,31.4021 50.5,29.5 Z"/></g>
<g><path style="opacity:1" fill="#d8a061" d="M 47.5,30.5 C 46.9902,33.0857 45.9902,35.419 44.5,37.5C 43.5416,37.9528 42.7083,38.6195 42,39.5C 41.6667,38.8333 41.3333,38.1667 41,37.5C 39.1129,39.0261 38.1129,41.0261 38,43.5C 37.5291,41.7536 36.8624,40.087 36,38.5C 35.6667,39.1667 35.3333,39.8333 35,40.5C 34.6012,40.2716 34.4346,39.9382 34.5,39.5C 36.2199,36.2689 38.5532,33.4356 41.5,31C 43.4558,29.3883 45.4558,29.2216 47.5,30.5 Z"/></g>
<g><path style="opacity:1" fill="#895e3a" d="M 50.5,29.5 C 49.6321,31.4021 48.6321,33.2355 47.5,35C 48.0769,36.9001 48.7435,38.7334 49.5,40.5C 48.6457,41.6316 48.6457,42.965 49.5,44.5C 45.968,46.4541 42.968,49.1208 40.5,52.5C 39.8826,52.6107 39.3826,52.944 39,53.5C 38.6667,55.8333 38.3333,58.1667 38,60.5C 36.5282,57.2058 36.6948,54.2058 38.5,51.5C 41.0217,49.144 43.6884,46.9773 46.5,45C 46.1286,43.3967 45.7952,41.8967 45.5,40.5C 47.129,38.8041 46.7957,37.8041 44.5,37.5C 45.9902,35.419 46.9902,33.0857 47.5,30.5C 48.391,29.8902 49.391,29.5569 50.5,29.5 Z"/></g>
<g><path style="opacity:1" fill="#bb8953" d="M 64.5,36.5 C 65.1667,36.8333 65.8333,37.1667 66.5,37.5C 69.1737,44.5458 70.1737,51.8791 69.5,59.5C 68.8826,59.6107 68.3826,59.944 68,60.5C 67.654,58.7818 67.154,57.1151 66.5,55.5C 64.5,53.8333 62.5,52.1667 60.5,50.5C 56.3573,49.264 52.6906,47.264 49.5,44.5C 48.6457,42.965 48.6457,41.6316 49.5,40.5C 50.7942,41.2899 51.9609,42.2899 53,43.5C 53.414,43.0426 53.914,42.7093 54.5,42.5C 57.6245,44.5766 60.9578,45.7433 64.5,46C 63.5,45 62.5,44 61.5,43C 63.158,42.2747 63.658,41.108 63,39.5C 59.4334,37.9629 56.2667,35.7963 53.5,33C 57.1563,34.2718 60.6563,36.1051 64,38.5C 64.4643,37.9056 64.631,37.2389 64.5,36.5 Z"/></g>
<g><path style="opacity:1" fill="#f4b972" d="M 44.5,37.5 C 46.7957,37.8041 47.129,38.8041 45.5,40.5C 43.7324,42.5078 42.0657,44.6744 40.5,47C 38.6313,48.6017 36.6313,49.6017 34.5,50C 37.885,45.118 41.2183,40.9513 44.5,37.5 Z"/></g>
<g><path style="opacity:1" fill="#133559" d="M 28.5,70.5 C 30.0923,74.2783 30.9257,78.2783 31,82.5C 31.4169,83.756 32.2502,84.4226 33.5,84.5C 33.2322,86.099 33.5655,87.4324 34.5,88.5C 34.922,94.0884 37.922,96.5884 43.5,96C 44.1122,97.3033 44.4455,98.4699 44.5,99.5C 45.3857,98.675 45.719,97.675 45.5,96.5C 46.609,96.5569 47.609,96.8902 48.5,97.5C 50.3519,98.5177 52.0186,99.8511 53.5,101.5C 56.0756,100.117 55.7423,99.2833 52.5,99C 54.0293,96.2645 55.5293,96.0978 57,98.5C 58.0391,97.2899 59.2058,96.2899 60.5,95.5C 60.3284,96.4916 60.6618,97.1583 61.5,97.5C 62.8629,100.965 61.6962,101.965 58,100.5C 56.6057,101.613 55.439,102.947 54.5,104.5C 53.675,105.386 52.675,105.719 51.5,105.5C 51.7564,107.792 51.4231,109.959 50.5,112C 48.5211,112.684 46.8544,112.184 45.5,110.5C 43.618,112.693 43.118,112.027 44,108.5C 45.4579,107.253 46.9579,107.253 48.5,108.5C 49.711,106.578 51.0443,104.745 52.5,103C 51.1667,102.333 49.8333,102.333 48.5,103C 46.206,106.299 43.706,106.799 41,104.5C 38.313,105.025 35.4797,105.025 32.5,104.5C 32.5,103.167 32.5,101.833 32.5,100.5C 27.9497,99.4746 24.2831,96.9746 21.5,93C 22.0219,92.4387 22.3552,91.772 22.5,91C 20.6946,87.7085 19.6946,84.2085 19.5,80.5C 17.5082,80.3285 15.8415,80.9951 14.5,82.5C 12.1667,81.8333 9.83333,81.1667 7.5,80.5C 6.52242,80.9767 5.68909,81.6433 5,82.5C 3.87795,89.4486 3.21129,96.4486 3,103.5C 2.72158,104.416 2.22158,105.082 1.5,105.5C 1.5,90.5 1.5,75.5 1.5,60.5C 2.73636,58.0072 4.5697,56.0072 7,54.5C 11.078,55.7491 15.2447,56.4158 19.5,56.5C 19.2229,53.5525 19.5562,50.7191 20.5,48C 21.1667,47.3333 21.8333,47.3333 22.5,48C 24.013,50.4541 23.3463,52.1207 20.5,53C 23.096,53.458 25.2627,52.6246 27,50.5C 27.3333,50.8333 27.6667,51.1667 28,51.5C 28.2289,58.0275 28.3956,64.3608 28.5,70.5 Z"/></g>
<g><path style="opacity:1" fill="#b4814f" d="M 44.5,37.5 C 41.2183,40.9513 37.885,45.118 34.5,50C 36.6313,49.6017 38.6313,48.6017 40.5,47C 42.0657,44.6744 43.7324,42.5078 45.5,40.5C 45.7952,41.8967 46.1286,43.3967 46.5,45C 43.6884,46.9773 41.0217,49.144 38.5,51.5C 36.6948,54.2058 36.5282,57.2058 38,60.5C 38.3333,58.1667 38.6667,55.8333 39,53.5C 39.3826,52.944 39.8826,52.6107 40.5,52.5C 49.6212,53.9394 49.2879,54.6061 39.5,54.5C 39.1892,58.2463 40.1892,61.5796 42.5,64.5C 41.7573,65.1818 41.0906,65.8485 40.5,66.5C 39.6851,65.5707 38.8518,64.5707 38,63.5C 40.9051,75.1139 38.9051,75.4473 32,64.5C 31.3333,65.5 31.3333,66.5 32,67.5C 33.9104,70.156 35.4104,72.9893 36.5,76C 36.457,79.8798 35.2904,80.7131 33,78.5C 32.4926,79.9961 32.9926,81.1627 34.5,82C 33.7476,82.6708 33.4142,83.5041 33.5,84.5C 32.2502,84.4226 31.4169,83.756 31,82.5C 30.9257,78.2783 30.0923,74.2783 28.5,70.5C 29.5581,66.3829 30.5581,62.2162 31.5,58C 29.9014,51.3322 30.9014,45.1655 34.5,39.5C 34.4346,39.9382 34.6012,40.2716 35,40.5C 35.3333,39.8333 35.6667,39.1667 36,38.5C 36.8624,40.087 37.5291,41.7536 38,43.5C 38.1129,41.0261 39.1129,39.0261 41,37.5C 41.3333,38.1667 41.6667,38.8333 42,39.5C 42.7083,38.6195 43.5416,37.9528 44.5,37.5 Z"/></g>
<g><path style="opacity:1" fill="#996b40" d="M 49.5,44.5 C 52.6906,47.264 56.3573,49.264 60.5,50.5C 62.5,52.1667 64.5,53.8333 66.5,55.5C 67.154,57.1151 67.654,58.7818 68,60.5C 68.3826,59.944 68.8826,59.6107 69.5,59.5C 70.1667,59.5 70.5,59.8333 70.5,60.5C 67.6881,63.4015 64.6881,66.0681 61.5,68.5C 62.5396,64.2201 62.7062,59.8868 62,55.5C 60.8668,53.7888 59.3668,53.2888 57.5,54C 59.3031,54.6368 60.6364,55.8035 61.5,57.5C 59.1667,58.8333 56.8333,58.8333 54.5,57.5C 54.9767,56.5224 55.6433,55.6891 56.5,55C 55.8333,54.6667 55.1667,54.3333 54.5,54C 55.6226,52.9563 56.9559,52.2896 58.5,52C 56.4032,50.3896 54.0698,49.2229 51.5,48.5C 50.3698,47.3777 49.7031,46.0443 49.5,44.5 Z"/></g>
<g><path style="opacity:1" fill="#f1b570" d="M 49.5,44.5 C 49.7031,46.0443 50.3698,47.3777 51.5,48.5C 54.0698,49.2229 56.4032,50.3896 58.5,52C 56.9559,52.2896 55.6226,52.9563 54.5,54C 55.1667,54.3333 55.8333,54.6667 56.5,55C 55.6433,55.6891 54.9767,56.5224 54.5,57.5C 56.8333,58.8333 59.1667,58.8333 61.5,57.5C 60.6364,55.8035 59.3031,54.6368 57.5,54C 59.3668,53.2888 60.8668,53.7888 62,55.5C 62.7062,59.8868 62.5396,64.2201 61.5,68.5C 60.6618,68.8417 60.3284,69.5084 60.5,70.5C 55.3567,77.4415 49.5233,78.1081 43,72.5C 41.878,70.5932 41.0447,68.5932 40.5,66.5C 41.0906,65.8485 41.7573,65.1818 42.5,64.5C 40.1892,61.5796 39.1892,58.2463 39.5,54.5C 49.2879,54.6061 49.6212,53.9394 40.5,52.5C 42.968,49.1208 45.968,46.4541 49.5,44.5 Z"/></g>
<g><path style="opacity:1" fill="#744d34" d="M 40.5,55.5 C 42.9775,55.0508 44.9775,55.7175 46.5,57.5C 45.4699,57.5545 44.3033,57.8878 43,58.5C 41.583,57.9221 40.7496,56.9221 40.5,55.5 Z"/></g>
<g><path style="opacity:1" fill="#9d6e42" d="M 48.5,60.5 C 50.7583,60.7751 51.0916,61.7751 49.5,63.5C 50.2688,65.8008 51.2688,65.9675 52.5,64C 51.269,62.8173 51.269,61.6507 52.5,60.5C 55.5909,63.6418 55.0909,65.9751 51,67.5C 47.3369,66.1743 46.5036,63.8409 48.5,60.5 Z"/></g>
<g><path style="opacity:1" fill="#90653d" d="M 48.5,68.5 C 50.9775,68.0508 52.9775,68.7175 54.5,70.5C 52.1041,73.1662 49.7708,72.9995 47.5,70C 48.056,69.6174 48.3893,69.1174 48.5,68.5 Z"/></g>
<g><path style="opacity:1" fill="#91653e" d="M 40.5,66.5 C 41.0447,68.5932 41.878,70.5932 43,72.5C 49.5233,78.1081 55.3567,77.4415 60.5,70.5C 60.4142,71.4959 60.7476,72.3292 61.5,73C 59.4249,74.5814 59.4249,76.4148 61.5,78.5C 62.3957,77.4937 63.0623,77.4937 63.5,78.5C 62.9234,80.5499 61.5901,81.5499 59.5,81.5C 59.2291,83.3797 59.8958,84.713 61.5,85.5C 61.3398,87.1992 61.5065,88.8659 62,90.5C 63.5185,90.9426 64.6852,90.2759 65.5,88.5C 66.1835,88.8627 66.8501,89.1961 67.5,89.5C 65.7807,92.2195 63.4474,94.2195 60.5,95.5C 59.2058,96.2899 58.0391,97.2899 57,98.5C 55.5293,96.0978 54.0293,96.2645 52.5,99C 55.7423,99.2833 56.0756,100.117 53.5,101.5C 52.0186,99.8511 50.3519,98.5177 48.5,97.5C 53.5523,96.1414 57.5523,93.1414 60.5,88.5C 58.4042,84.8214 56.4042,81.1547 54.5,77.5C 51.8401,78.7026 49.1735,78.7026 46.5,77.5C 45.8826,77.6107 45.3826,77.944 45,78.5C 44.7398,76.3825 43.7398,74.7158 42,73.5C 37.6175,76.9198 35.1175,81.9198 34.5,88.5C 33.5655,87.4324 33.2322,86.099 33.5,84.5C 33.4142,83.5041 33.7476,82.6708 34.5,82C 32.9926,81.1627 32.4926,79.9961 33,78.5C 35.2904,80.7131 36.457,79.8798 36.5,76C 35.4104,72.9893 33.9104,70.156 32,67.5C 31.3333,66.5 31.3333,65.5 32,64.5C 38.9051,75.4473 40.9051,75.1139 38,63.5C 38.8518,64.5707 39.6851,65.5707 40.5,66.5 Z"/></g>
<g><path style="opacity:1" fill="#b3804f" d="M 70.5,60.5 C 70.8333,60.5 71.1667,60.5 71.5,60.5C 73.2629,64.51 72.7629,68.1767 70,71.5C 69.7897,77.3997 68.9563,83.0663 67.5,88.5C 67.838,85.8431 67.1713,83.5098 65.5,81.5C 65.0894,82.2624 64.9227,83.2624 65,84.5C 64.1887,83.0403 63.3554,82.707 62.5,83.5C 63.4279,84.7678 63.5946,86.1011 63,87.5C 62.7216,86.5842 62.2216,85.9175 61.5,85.5C 59.8958,84.713 59.2291,83.3797 59.5,81.5C 61.5901,81.5499 62.9234,80.5499 63.5,78.5C 63.0623,77.4937 62.3957,77.4937 61.5,78.5C 59.4249,76.4148 59.4249,74.5814 61.5,73C 60.7476,72.3292 60.4142,71.4959 60.5,70.5C 60.3284,69.5084 60.6618,68.8417 61.5,68.5C 64.6881,66.0681 67.6881,63.4015 70.5,60.5 Z"/></g>
<g><path style="opacity:1" fill="#e3a964" d="M 67.5,88.5 C 67.5,88.8333 67.5,89.1667 67.5,89.5C 66.8501,89.1961 66.1835,88.8627 65.5,88.5C 64.6852,90.2759 63.5185,90.9426 62,90.5C 61.5065,88.8659 61.3398,87.1992 61.5,85.5C 62.2216,85.9175 62.7216,86.5842 63,87.5C 63.5946,86.1011 63.4279,84.7678 62.5,83.5C 63.3554,82.707 64.1887,83.0403 65,84.5C 64.9227,83.2624 65.0894,82.2624 65.5,81.5C 67.1713,83.5098 67.838,85.8431 67.5,88.5 Z"/></g>
<g><path style="opacity:1" fill="#12365c" d="M 100.5,72.5 C 100.666,79.8409 100.5,87.1742 100,94.5C 98.2002,96.3651 98.0336,98.3651 99.5,100.5C 99.6567,101.873 99.49,103.207 99,104.5C 98.5,104 98,103.5 97.5,103C 94.2942,102.704 91.1275,102.204 88,101.5C 84.3953,103.375 80.562,103.542 76.5,102C 75.6198,100.644 75.2865,99.1439 75.5,97.5C 73.323,97.5861 71.323,98.2528 69.5,99.5C 67.1759,99.1227 66.5092,98.1227 67.5,96.5C 65.3079,95.5613 63.3079,95.8947 61.5,97.5C 60.6618,97.1583 60.3284,96.4916 60.5,95.5C 63.4474,94.2195 65.7807,92.2195 67.5,89.5C 67.5,89.1667 67.5,88.8333 67.5,88.5C 68.9563,83.0663 69.7897,77.3997 70,71.5C 72.7629,68.1767 73.2629,64.51 71.5,60.5C 71.2308,58.5714 71.7308,56.9047 73,55.5C 75.5388,62.116 77.7054,62.116 79.5,55.5C 80.8221,55.33 81.9887,55.6634 83,56.5C 83.3333,58.8333 83.6667,61.1667 84,63.5C 85.1939,64.4303 86.5272,65.0969 88,65.5C 90.8884,63.2833 92.2217,60.2833 92,56.5C 93.3876,55.4464 94.8876,55.2797 96.5,56C 97.3029,60.4145 97.8029,64.9145 98,69.5C 98.2355,71.1193 99.0689,72.1193 100.5,72.5 Z"/></g>
<g><path style="opacity:1" fill="#c18d56" d="M 46.5,77.5 C 46.3184,79.5914 46.6518,81.5914 47.5,83.5C 47.0623,84.5063 46.3957,84.5063 45.5,83.5C 44.7132,84.2421 44.0465,85.0754 43.5,86C 46.2263,86.1816 48.8929,86.6816 51.5,87.5C 48.6281,88.7825 45.7947,88.7825 43,87.5C 42.3333,89.1667 42.3333,90.8333 43,92.5C 44.0946,93.6934 44.928,95.0267 45.5,96.5C 45.719,97.675 45.3857,98.675 44.5,99.5C 44.4455,98.4699 44.1122,97.3033 43.5,96C 37.922,96.5884 34.922,94.0884 34.5,88.5C 35.1175,81.9198 37.6175,76.9198 42,73.5C 43.7398,74.7158 44.7398,76.3825 45,78.5C 45.3826,77.944 45.8826,77.6107 46.5,77.5 Z"/></g>
<g><path style="opacity:1" fill="#f1b770" d="M 46.5,77.5 C 49.1735,78.7026 51.8401,78.7026 54.5,77.5C 56.4042,81.1547 58.4042,84.8214 60.5,88.5C 57.5523,93.1414 53.5523,96.1414 48.5,97.5C 47.609,96.8902 46.609,96.5569 45.5,96.5C 44.928,95.0267 44.0946,93.6934 43,92.5C 42.3333,90.8333 42.3333,89.1667 43,87.5C 45.7947,88.7825 48.6281,88.7825 51.5,87.5C 48.8929,86.6816 46.2263,86.1816 43.5,86C 44.0465,85.0754 44.7132,84.2421 45.5,83.5C 46.3957,84.5063 47.0623,84.5063 47.5,83.5C 46.6518,81.5914 46.3184,79.5914 46.5,77.5 Z"/></g>
<g><path style="opacity:1" fill="#133b61" d="M 61.5,97.5 C 63.3079,95.8947 65.3079,95.5613 67.5,96.5C 66.5092,98.1227 67.1759,99.1227 69.5,99.5C 71.323,98.2528 73.323,97.5861 75.5,97.5C 75.2865,99.1439 75.6198,100.644 76.5,102C 80.562,103.542 84.3953,103.375 88,101.5C 91.1275,102.204 94.2942,102.704 97.5,103C 98,103.5 98.5,104 99,104.5C 99.49,103.207 99.6567,101.873 99.5,100.5C 99.7483,110.645 99.7483,120.978 99.5,131.5C 97.5102,130.001 95.1768,129.168 92.5,129C 97.7021,127.648 97.7021,126.482 92.5,125.5C 90.8957,125.939 89.3957,126.606 88,127.5C 83.8507,126.072 80.8507,127.405 79,131.5C 78.0565,130.737 77.5565,129.737 77.5,128.5C 79.354,125.163 78.6874,124.163 75.5,125.5C 73.9121,124.99 72.7455,123.99 72,122.5C 71.0754,123.047 70.2421,123.713 69.5,124.5C 72.7221,129.837 72.0554,131.003 67.5,128C 64.8333,127.333 62.1667,127.333 59.5,128C 60.2444,129.815 60.9111,131.648 61.5,133.5C 61.5,133.833 61.5,134.167 61.5,134.5C 60.8571,136.076 59.8571,137.41 58.5,138.5C 57.448,138.649 56.448,138.483 55.5,138C 60.2616,136.461 60.5949,134.294 56.5,131.5C 54.9541,132.212 53.9541,133.378 53.5,135C 53.6692,137.084 53.6692,139.251 53.5,141.5C 54.3202,143.111 55.6536,143.778 57.5,143.5C 58.0093,144.259 57.3427,144.592 55.5,144.5C 52.108,144.111 48.7746,143.444 45.5,142.5C 44.6852,140.724 43.5185,140.057 42,140.5C 41.6667,139.5 41.3333,138.5 41,137.5C 40.3678,139.531 39.2012,141.198 37.5,142.5C 35.4283,138.97 33.095,135.637 30.5,132.5C 30.1667,132.667 29.8333,132.833 29.5,133C 30.2931,134.085 30.9598,135.252 31.5,136.5C 27.5546,137.491 23.5546,137.824 19.5,137.5C 19.7087,133.351 18.8753,129.684 17,126.5C 17.804,127.804 18.9707,128.471 20.5,128.5C 23.8058,127.837 27.1392,127.337 30.5,127C 32.7672,125.392 33.7672,126.225 33.5,129.5C 35.0228,132.73 36.3561,136.064 37.5,139.5C 39.3274,137.513 40.3274,135.179 40.5,132.5C 42.5567,130.957 42.5567,129.957 40.5,129.5C 40.0825,128.778 39.4158,128.278 38.5,128C 40.4054,127.174 40.7388,126.007 39.5,124.5C 37.1667,123.167 34.8333,123.167 32.5,124.5C 30.8333,123.5 29.5,122.167 28.5,120.5C 27.7526,124.187 25.7526,125.187 22.5,123.5C 19.0806,126.146 16.0806,125.646 13.5,122C 9.7971,121.701 7.96377,123.534 8,127.5C 7.05905,125.939 5.89238,124.605 4.5,123.5C 3.50196,132.141 3.16863,140.808 3.5,149.5C 2.77842,149.082 2.27842,148.416 2,147.5C 1.50009,133.504 1.33343,119.504 1.5,105.5C 2.22158,105.082 2.72158,104.416 3,103.5C 3.21129,96.4486 3.87795,89.4486 5,82.5C 5.68909,81.6433 6.52242,80.9767 7.5,80.5C 9.83333,81.1667 12.1667,81.8333 14.5,82.5C 15.8415,80.9951 17.5082,80.3285 19.5,80.5C 19.6946,84.2085 20.6946,87.7085 22.5,91C 22.3552,91.772 22.0219,92.4387 21.5,93C 24.2831,96.9746 27.9497,99.4746 32.5,100.5C 32.5,101.833 32.5,103.167 32.5,104.5C 35.4797,105.025 38.313,105.025 41,104.5C 43.706,106.799 46.206,106.299 48.5,103C 49.8333,102.333 51.1667,102.333 52.5,103C 51.0443,104.745 49.711,106.578 48.5,108.5C 46.9579,107.253 45.4579,107.253 44,108.5C 43.118,112.027 43.618,112.693 45.5,110.5C 46.8544,112.184 48.5211,112.684 50.5,112C 51.4231,109.959 51.7564,107.792 51.5,105.5C 52.675,105.719 53.675,105.386 54.5,104.5C 55.439,102.947 56.6057,101.613 58,100.5C 61.6962,101.965 62.8629,100.965 61.5,97.5 Z"/></g>
<g><path style="opacity:1" fill="#f7f5f6" d="M 34.5,107.5 C 36.337,107.639 36.6704,108.306 35.5,109.5C 34.7025,109.043 34.3691,108.376 34.5,107.5 Z"/></g>
<g><path style="opacity:1" fill="#dcdee3" d="M 65.5,114.5 C 66.675,114.281 67.675,114.614 68.5,115.5C 66.9483,116.798 65.9483,116.465 65.5,114.5 Z"/></g>
<g><path style="opacity:1" fill="#c8c8d5" d="M 47.5,120.5 C 49.337,120.639 49.6704,121.306 48.5,122.5C 47.7025,122.043 47.3691,121.376 47.5,120.5 Z"/></g>
<g><path style="opacity:1" fill="#0e3f64" d="M 40.5,129.5 C 39.7611,129.369 39.0944,129.536 38.5,130C 39.756,130.417 40.4226,131.25 40.5,132.5C 39.4415,133.6 38.6082,134.934 38,136.5C 37.023,134.26 36.523,131.927 36.5,129.5C 35.5,129.5 34.5,129.5 33.5,129.5C 33.7672,126.225 32.7672,125.392 30.5,127C 27.1392,127.337 23.8058,127.837 20.5,128.5C 18.9707,128.471 17.804,127.804 17,126.5C 18.8753,129.684 19.7087,133.351 19.5,137.5C 23.5546,137.824 27.5546,137.491 31.5,136.5C 30.9598,135.252 30.2931,134.085 29.5,133C 29.8333,132.833 30.1667,132.667 30.5,132.5C 33.095,135.637 35.4283,138.97 37.5,142.5C 39.2012,141.198 40.3678,139.531 41,137.5C 41.3333,138.5 41.6667,139.5 42,140.5C 43.5185,140.057 44.6852,140.724 45.5,142.5C 48.7746,143.444 52.108,144.111 55.5,144.5C 57.3427,144.592 58.0093,144.259 57.5,143.5C 56.9094,142.849 56.2427,142.182 55.5,141.5C 56.7757,140.355 58.109,140.355 59.5,141.5C 59.8333,141.167 60.1667,140.833 60.5,140.5C 59.7573,139.818 59.0906,139.151 58.5,138.5C 59.8571,137.41 60.8571,136.076 61.5,134.5C 60.8416,138.677 62.5082,140.177 66.5,139C 68.1723,135.857 67.5056,133.357 64.5,131.5C 63.4822,132.193 62.4822,132.859 61.5,133.5C 60.9111,131.648 60.2444,129.815 59.5,128C 62.1667,127.333 64.8333,127.333 67.5,128C 72.0554,131.003 72.7221,129.837 69.5,124.5C 70.2421,123.713 71.0754,123.047 72,122.5C 72.7455,123.99 73.9121,124.99 75.5,125.5C 78.6874,124.163 79.354,125.163 77.5,128.5C 77.5565,129.737 78.0565,130.737 79,131.5C 80.8507,127.405 83.8507,126.072 88,127.5C 89.3957,126.606 90.8957,125.939 92.5,125.5C 97.7021,126.482 97.7021,127.648 92.5,129C 95.1768,129.168 97.5102,130.001 99.5,131.5C 99.6661,137.176 99.4994,142.843 99,148.5C 98.1667,149.333 97.3333,150.167 96.5,151C 66.1667,151.667 35.8333,151.667 5.5,151C 4.9558,150.283 4.28913,149.783 3.5,149.5C 3.16863,140.808 3.50196,132.141 4.5,123.5C 5.89238,124.605 7.05905,125.939 8,127.5C 7.96377,123.534 9.7971,121.701 13.5,122C 16.0806,125.646 19.0806,126.146 22.5,123.5C 25.7526,125.187 27.7526,124.187 28.5,120.5C 29.5,122.167 30.8333,123.5 32.5,124.5C 34.8333,123.167 37.1667,123.167 39.5,124.5C 40.7388,126.007 40.4054,127.174 38.5,128C 39.4158,128.278 40.0825,128.778 40.5,129.5 Z"/></g>
<g><path style="opacity:1" fill="#a4876d" d="M 43.5,128.5 C 45.337,128.639 45.6704,129.306 44.5,130.5C 43.7025,130.043 43.3691,129.376 43.5,128.5 Z"/></g>
<g><path style="opacity:1" fill="#cda573" d="M 40.5,129.5 C 42.5567,129.957 42.5567,130.957 40.5,132.5C 40.4226,131.25 39.756,130.417 38.5,130C 39.0944,129.536 39.7611,129.369 40.5,129.5 Z"/></g>
<g><path style="opacity:1" fill="#b2906d" d="M 58.5,138.5 C 59.0906,139.151 59.7573,139.818 60.5,140.5C 60.1667,140.833 59.8333,141.167 59.5,141.5C 58.109,140.355 56.7757,140.355 55.5,141.5C 56.2427,142.182 56.9094,142.849 57.5,143.5C 55.6536,143.778 54.3202,143.111 53.5,141.5C 53.6692,139.251 53.6692,137.084 53.5,135C 53.9541,133.378 54.9541,132.212 56.5,131.5C 60.5949,134.294 60.2616,136.461 55.5,138C 56.448,138.483 57.448,138.649 58.5,138.5 Z"/></g>
<g><path style="opacity:1" fill="#333266" d="M 55.5,133.5 C 58.6741,133.952 59.0075,134.952 56.5,136.5C 55.6143,135.675 55.281,134.675 55.5,133.5 Z"/></g>
<g><path style="opacity:1" fill="#d9ac6f" d="M 61.5,134.5 C 61.5,134.167 61.5,133.833 61.5,133.5C 62.4822,132.859 63.4822,132.193 64.5,131.5C 67.5056,133.357 68.1723,135.857 66.5,139C 62.5082,140.177 60.8416,138.677 61.5,134.5 Z"/></g>
<g><path style="opacity:1" fill="#d9a96e" d="M 43.5,133.5 C 43.56,132.957 43.8933,132.624 44.5,132.5C 45.2208,134.686 45.8875,136.853 46.5,139C 45.5,139.667 44.5,139.667 43.5,139C 44.807,137.057 44.807,135.223 43.5,133.5 Z"/></g>
<g><path style="opacity:1" fill="#cba36e" d="M 33.5,129.5 C 34.5,129.5 35.5,129.5 36.5,129.5C 36.523,131.927 37.023,134.26 38,136.5C 38.6082,134.934 39.4415,133.6 40.5,132.5C 40.3274,135.179 39.3274,137.513 37.5,139.5C 36.3561,136.064 35.0228,132.73 33.5,129.5 Z"/></g>
<g><path style="opacity:1" fill="#203965" d="M 63.5,133.5 C 66.9563,134.536 67.2896,136.203 64.5,138.5C 62.2957,137.218 61.9624,135.551 63.5,133.5 Z"/></g>
<g><path style="opacity:1" fill="#d8a96f" d="M 48.5,132.5 C 49.9778,132.238 51.3112,132.571 52.5,133.5C 51.675,134.386 50.675,134.719 49.5,134.5C 49.8072,136.446 49.8072,138.113 49.5,139.5C 48.5258,137.257 48.1924,134.924 48.5,132.5 Z"/></g>
</svg>
